<svg width="32" height="32" viewBox="0 0 32 32" fill="none" xmlns="http://www.w3.org/2000/svg">
<path d="M16 30.6668C24.1002 30.6668 30.6667 24.1003 30.6667 16.0002C30.6667 7.89999 24.1002 1.3335 16 1.3335C7.89983 1.3335 1.33334 7.89999 1.33334 16.0002C1.33334 24.1003 7.89983 30.6668 16 30.6668Z" fill="#64748B"/>
<path d="M16 27.3332C22.2592 27.3332 27.3333 22.2591 27.3333 15.9998C27.3333 9.74061 22.2592 4.6665 16 4.6665C9.74076 4.6665 4.66666 9.74061 4.66666 15.9998C4.66666 22.2591 9.74076 27.3332 16 27.3332Z" fill="#CBD5E1"/>
<path d="M16 24C20.4183 24 24 20.4183 24 16C24 11.5817 20.4183 8 16 8C11.5817 8 8 11.5817 8 16C8 20.4183 11.5817 24 16 24Z" fill="#64748B"/>
<path d="M16 20.6668C18.5773 20.6668 20.6667 18.5775 20.6667 16.0002C20.6667 13.4228 18.5773 11.3335 16 11.3335C13.4227 11.3335 11.3333 13.4228 11.3333 16.0002C11.3333 18.5775 13.4227 20.6668 16 20.6668Z" fill="#CBD5E1"/>
<path d="M13.12 13.1668L15.4733 14.7868L21.1333 9.54675C21.54 9.17342 22.1733 9.19342 22.5467 9.60009C22.8933 9.97342 22.9 10.5401 22.58 10.9201L16.78 17.9068L16.7133 17.9868C16.1667 18.6601 15.1 18.6601 14.5467 17.9868L11.7667 14.6401C11.02 13.7534 12.18 12.5001 13.1133 13.1668H13.12Z" fill="#334155"/>
</svg>
