<svg width="32" height="32" viewBox="0 0 32 32" fill="none" xmlns="http://www.w3.org/2000/svg">
<path d="M16 30.6668C24.1002 30.6668 30.6666 24.1003 30.6666 16.0002C30.6666 7.89999 24.1002 1.3335 16 1.3335C7.8998 1.3335 1.33331 7.89999 1.33331 16.0002C1.33331 24.1003 7.8998 30.6668 16 30.6668Z" fill="#5BC3FE"/>
<path d="M16 27.3332C22.2592 27.3332 27.3334 22.2591 27.3334 15.9998C27.3334 9.74061 22.2592 4.6665 16 4.6665C9.74079 4.6665 4.66669 9.74061 4.66669 15.9998C4.66669 22.2591 9.74079 27.3332 16 27.3332Z" fill="#D0EEFF"/>
<path d="M16 24C20.4183 24 24 20.4183 24 16C24 11.5817 20.4183 8 16 8C11.5817 8 8 11.5817 8 16C8 20.4183 11.5817 24 16 24Z" fill="#5BC3FE"/>
<path d="M16 20.6668C18.5773 20.6668 20.6666 18.5775 20.6666 16.0002C20.6666 13.4228 18.5773 11.3335 16 11.3335C13.4227 11.3335 11.3333 13.4228 11.3333 16.0002C11.3333 18.5775 13.4227 20.6668 16 20.6668Z" fill="#D0EEFF"/>
<path d="M13.12 13.1668L15.4734 14.7868L21.1334 9.54675C21.54 9.17342 22.1734 9.19342 22.5467 9.60009C22.8934 9.97342 22.9 10.5401 22.58 10.9201L16.78 17.9068L16.7134 17.9868C16.1667 18.6601 15.1 18.6601 14.5467 17.9868L11.7667 14.6401C11.02 13.7534 12.18 12.5001 13.1134 13.1668H13.12Z" fill="#FB923C"/>
</svg>
