<svg width="179" height="168" viewBox="0 0 179 168" fill="none" xmlns="http://www.w3.org/2000/svg">
<g clip-path="url(#clip0_2508_11451)">
<path d="M50.822 143.414L26.9548 70.8532L89.4408 26.0081L151.927 70.8532L128.06 143.414H50.822Z" fill="#0F172A" stroke="#475569"/>
<path d="M120.324 132.909H58.5575L39.4692 74.8747L39.6979 74.7111L89.4408 39.0074L89.6695 39.171L139.412 74.8747L120.324 132.909ZM59.1252 132.13H119.749L138.482 75.1706L89.4329 39.9655L40.3838 75.1706L59.1173 132.13H59.1252Z" fill="#475569"/>
<path d="M111.943 121.506H66.9387L53.0305 79.2207L53.2592 79.0572L89.4409 53.0895L125.851 79.2207L111.943 121.506ZM67.5064 120.727H111.368L124.921 79.5167L89.4409 54.0475L53.9609 79.5167L67.5142 120.727H67.5064Z" fill="#475569"/>
<path d="M103.562 110.111H75.3196L66.5916 83.5825L66.8202 83.4189L89.4328 67.1871L112.282 83.5825L103.554 110.111H103.562ZM75.8952 109.332H102.986L111.359 83.8784L89.4407 68.1452L67.5219 83.8784L75.8952 109.332Z" fill="#475569"/>
<path d="M95.1807 98.7082H83.7089L80.1609 87.9286L89.4409 81.2692L98.7209 87.9286L95.1729 98.7082H95.1807ZM84.2766 97.9293H94.6052L97.7984 88.2245L89.4409 82.2272L81.0834 88.2245L84.2766 97.9293Z" fill="#475569"/>
<path d="M89.9613 91.9242L89.4488 91.7607L26.2393 71.0192L26.4916 70.2793L89.1729 90.8494V25.8367H89.9613V91.9242Z" fill="#475569"/>
<path d="M50.9096 144.389L50.271 143.93L89.5671 90.7247L89.8903 91.1609L128.642 143.688L128.004 144.14L89.5671 92.0488L50.9096 144.389Z" fill="#475569"/>
<path d="M152.509 70.2839L89.4521 91.0417L89.7014 91.7807L152.758 71.0228L152.509 70.2839Z" fill="#475569"/>
<path d="M89.567 28.1733C90.8733 28.1733 91.9323 27.1271 91.9323 25.8366C91.9323 24.5461 90.8733 23.5 89.567 23.5C88.2607 23.5 87.2017 24.5461 87.2017 25.8366C87.2017 27.1271 88.2607 28.1733 89.567 28.1733Z" fill="white"/>
<path d="M26.3653 72.9898C27.6717 72.9898 28.7307 71.9436 28.7307 70.6532C28.7307 69.3627 27.6717 68.3165 26.3653 68.3165C25.059 68.3165 24 69.3627 24 70.6532C24 71.9436 25.059 72.9898 26.3653 72.9898Z" fill="white"/>
<path d="M152.635 72.9898C153.941 72.9898 155 71.9436 155 70.6532C155 69.3627 153.941 68.3165 152.635 68.3165C151.328 68.3165 150.269 69.3627 150.269 70.6532C150.269 71.9436 151.328 72.9898 152.635 72.9898Z" fill="white"/>
<path d="M128.319 146.251C129.625 146.251 130.684 145.205 130.684 143.914C130.684 142.624 129.625 141.578 128.319 141.578C127.013 141.578 125.954 142.624 125.954 143.914C125.954 145.205 127.013 146.251 128.319 146.251Z" fill="white"/>
<path d="M50.5863 146.5C51.8926 146.5 52.9516 145.454 52.9516 144.163C52.9516 142.873 51.8926 141.827 50.5863 141.827C49.2799 141.827 48.2209 142.873 48.2209 144.163C48.2209 145.454 49.2799 146.5 50.5863 146.5Z" fill="white"/>
</g>
<path d="M167 70C173.075 70 178 65.0751 178 59C178 52.9249 173.075 48 167 48C160.925 48 156 52.9249 156 59C156 65.0751 160.925 70 167 70Z" fill="#5BC3FE"/>
<path d="M167 67.5C171.694 67.5 175.5 63.6944 175.5 59C175.5 54.3056 171.694 50.5 167 50.5C162.306 50.5 158.5 54.3056 158.5 59C158.5 63.6944 162.306 67.5 167 67.5Z" fill="#D0EEFF"/>
<path d="M167 65C170.314 65 173 62.3137 173 59C173 55.6863 170.314 53 167 53C163.686 53 161 55.6863 161 59C161 62.3137 163.686 65 167 65Z" fill="#5BC3FE"/>
<path d="M167 62.5C168.933 62.5 170.5 60.933 170.5 59C170.5 57.067 168.933 55.5 167 55.5C165.067 55.5 163.5 57.067 163.5 59C163.5 60.933 165.067 62.5 167 62.5Z" fill="#D0EEFF"/>
<path d="M164.84 56.8749L166.605 58.0899L170.85 54.1599C171.155 53.8799 171.63 53.8949 171.91 54.1999C172.17 54.4799 172.175 54.9049 171.935 55.1899L167.585 60.4299L167.535 60.4899C167.125 60.9949 166.325 60.9949 165.91 60.4899L163.825 57.9799C163.265 57.3149 164.135 56.3749 164.835 56.8749H164.84Z" fill="#FB923C"/>
<path d="M6.04496 58.965L5.24996 57.085C4.96996 56.425 4.89496 55.7 5.02996 54.995L5.25496 53.825C5.25496 53.29 4.81996 52.86 4.28996 52.86C3.75996 52.86 3.32496 53.295 3.32496 53.825L3.54996 54.995C3.68496 55.7 3.60996 56.425 3.32996 57.085L2.53496 58.965C2.17996 59.8 2.15496 60.735 2.45996 61.585L3.13996 63.5H4.29496H5.44996L6.12996 61.585C6.43496 60.735 6.40496 59.8 6.05496 58.965H6.04496Z" fill="#B6E5FF"/>
<path d="M3.56005 55.095C3.62505 55.505 3.62505 55.92 3.55005 56.33H5.02505C4.95005 55.925 4.95005 55.505 5.01505 55.095H3.56505H3.56005Z" fill="#06A5FF"/>
<path d="M21.4749 58.965L20.6799 57.085C20.3999 56.425 20.3249 55.7 20.4599 54.995L20.6849 53.825C20.6849 53.29 20.2499 52.86 19.7199 52.86C19.1899 52.86 18.7549 53.295 18.7549 53.825L18.9799 54.995C19.1149 55.7 19.0399 56.425 18.7599 57.085L17.9649 58.965C17.6099 59.8 17.5849 60.735 17.8899 61.585L18.5699 63.5H19.7249H20.8799L21.5599 61.585C21.8649 60.735 21.8349 59.8 21.4849 58.965H21.4749Z" fill="#B6E5FF"/>
<path d="M18.99 55.095C19.055 55.505 19.055 55.92 18.98 56.33H20.455C20.38 55.925 20.38 55.505 20.445 55.095H18.995H18.99Z" fill="#06A5FF"/>
<path d="M19.6002 59.01L18.5052 56.43C18.1202 55.525 18.0152 54.525 18.2002 53.56L18.5102 51.955C18.5102 51.22 17.9152 50.63 17.1852 50.63C16.4552 50.63 15.8602 51.225 15.8602 51.955L16.1702 53.56C16.3552 54.525 16.2502 55.525 15.8652 56.43L14.7702 59.01C14.2852 60.15 14.2502 61.435 14.6652 62.605L15.6002 65.23H17.1852H18.7702L19.7052 62.605C20.1202 61.435 20.0852 60.155 19.6002 59.01Z" fill="#98D6FA"/>
<path d="M16.1903 53.7C16.2803 54.265 16.2803 54.835 16.1753 55.39H18.1953C18.0953 54.835 18.0903 54.26 18.1803 53.7H16.1903Z" fill="#06A5FF"/>
<path d="M9.2301 59.01L8.1351 56.43C7.7501 55.525 7.6451 54.525 7.8301 53.56L8.1401 51.955C8.1401 51.22 7.5451 50.63 6.8151 50.63C6.0851 50.63 5.4901 51.225 5.4901 51.955L5.8001 53.56C5.9851 54.525 5.8801 55.525 5.4951 56.43L4.4001 59.01C3.9151 60.15 3.8801 61.435 4.2951 62.605L5.2301 65.23H6.8151H8.4001L9.3351 62.605C9.7501 61.435 9.7151 60.155 9.2301 59.01Z" fill="#98D6FA"/>
<path d="M5.82018 53.7C5.91018 54.265 5.91018 54.835 5.80518 55.39H7.82518C7.72518 54.835 7.72018 54.26 7.81018 53.7H5.82018Z" fill="#06A5FF"/>
<path d="M15.23 59.39L13.765 55.935C13.25 54.725 13.11 53.385 13.36 52.095L13.775 49.945C13.775 48.965 12.98 48.17 12 48.17C11.02 48.17 10.225 48.965 10.225 49.945L10.64 52.095C10.89 53.385 10.75 54.725 10.235 55.935L8.76995 59.39C8.11995 60.92 8.06995 62.635 8.62995 64.205L9.88495 67.72H12.005H14.125L15.38 64.205C15.94 62.64 15.89 60.92 15.24 59.39H15.23Z" fill="#5BC3FE"/>
<path d="M10.665 52.28C10.79 53.035 10.785 53.8 10.645 54.545H13.35C13.215 53.8 13.21 53.035 13.33 52.28H10.66H10.665Z" fill="#06A5FF"/>
<path d="M12.2051 70C15.8419 70 18.7901 67.0518 18.7901 63.415C18.7901 59.7782 15.8419 56.83 12.2051 56.83C8.56832 56.83 5.62012 59.7782 5.62012 63.415C5.62012 67.0518 8.56832 70 12.2051 70Z" fill="#FB923C"/>
<path d="M12 61.33C12.5053 61.33 12.915 60.9203 12.915 60.415C12.915 59.9097 12.5053 59.5 12 59.5C11.4946 59.5 11.085 59.9097 11.085 60.415C11.085 60.9203 11.4946 61.33 12 61.33Z" fill="#FED7AA"/>
<path d="M10.7199 63.37C11.2253 63.37 11.6349 62.9604 11.6349 62.455C11.6349 61.9497 11.2253 61.54 10.7199 61.54C10.2146 61.54 9.80493 61.9497 9.80493 62.455C9.80493 62.9604 10.2146 63.37 10.7199 63.37Z" fill="#FED7AA"/>
<path d="M13.3349 63.37C13.8403 63.37 14.2499 62.9604 14.2499 62.455C14.2499 61.9497 13.8403 61.54 13.3349 61.54C12.8296 61.54 12.4199 61.9497 12.4199 62.455C12.4199 62.9604 12.8296 63.37 13.3349 63.37Z" fill="#FED7AA"/>
<path d="M145 146H141V148H145V146Z" fill="#98D6FA"/>
<path d="M143 167C148.523 167 153 162.523 153 157C153 151.477 148.523 147 143 147C137.477 147 133 151.477 133 157C133 162.523 137.477 167 143 167Z" fill="#27B1FF"/>
<path d="M143 165.5C147.694 165.5 151.5 161.694 151.5 157C151.5 152.306 147.694 148.5 143 148.5C138.306 148.5 134.5 152.306 134.5 157C134.5 161.694 138.306 165.5 143 165.5Z" fill="#FFEDD5"/>
<path d="M143 149.39V151.39" stroke="#FB923C" stroke-linecap="round" stroke-linejoin="round"/>
<path d="M143 162.595V164.595" stroke="#FB923C" stroke-linecap="round" stroke-linejoin="round"/>
<path d="M135.395 156.995H137.395" stroke="#FB923C" stroke-linecap="round" stroke-linejoin="round"/>
<path d="M148.605 156.995H150.605" stroke="#FB923C" stroke-linecap="round" stroke-linejoin="round"/>
<path d="M137.625 151.62L139.04 153.035" stroke="#FB923C" stroke-linecap="round" stroke-linejoin="round"/>
<path d="M146.96 160.955L148.375 162.37" stroke="#FB923C" stroke-linecap="round" stroke-linejoin="round"/>
<path d="M137.625 162.37L139.04 160.955" stroke="#FB923C" stroke-linecap="round" stroke-linejoin="round"/>
<path d="M146.96 153.035L148.375 151.62" stroke="#FB923C" stroke-linecap="round" stroke-linejoin="round"/>
<path d="M146.36 145H139.635V146H146.36V145Z" fill="#27B1FF"/>
<path d="M143.865 157.5L142.135 156.5L145.5 152.67L143.865 157.5Z" fill="#FDBA74"/>
<path d="M143 158C143.552 158 144 157.552 144 157C144 156.448 143.552 156 143 156C142.448 156 142 156.448 142 157C142 157.552 142.448 158 143 158Z" fill="#FB7200"/>
<path d="M36.5249 157.415C38.1818 157.415 39.5249 156.072 39.5249 154.415C39.5249 152.758 38.1818 151.415 36.5249 151.415C34.868 151.415 33.5249 152.758 33.5249 154.415C33.5249 156.072 34.868 157.415 36.5249 157.415Z" fill="#FED7AA"/>
<path d="M41.095 159.885C42.7518 159.885 44.095 158.542 44.095 156.885C44.095 155.228 42.7518 153.885 41.095 153.885C39.4381 153.885 38.095 155.228 38.095 156.885C38.095 158.542 39.4381 159.885 41.095 159.885Z" fill="#FDBA74"/>
<path d="M33.5249 160.02C35.1818 160.02 36.5249 158.677 36.5249 157.02C36.5249 155.363 35.1818 154.02 33.5249 154.02C31.868 154.02 30.5249 155.363 30.5249 157.02C30.5249 158.677 31.868 160.02 33.5249 160.02Z" fill="#FDBA74"/>
<path d="M29.9451 161.37C31.6019 161.37 32.9451 160.027 32.9451 158.37C32.9451 156.713 31.6019 155.37 29.9451 155.37C28.2882 155.37 26.9451 156.713 26.9451 158.37C26.9451 160.027 28.2882 161.37 29.9451 161.37Z" fill="#FB923C"/>
<path d="M37.5349 160.415C39.1918 160.415 40.5349 159.072 40.5349 157.415C40.5349 155.758 39.1918 154.415 37.5349 154.415C35.8781 154.415 34.5349 155.758 34.5349 157.415C34.5349 159.072 35.8781 160.415 37.5349 160.415Z" fill="#FB923C"/>
<path d="M43 165.885H29L26.5 158.885H45.5L43 165.885Z" fill="#5BC3FE"/>
<path d="M46.5 156.885H25.5V158.885H46.5V156.885Z" fill="#B6E5FF"/>
<path fill-rule="evenodd" clip-rule="evenodd" d="M31.0249 148C30.3293 148 29.727 148.473 29.5663 149.146L29.566 149.147L27.431 157.987C27.3661 158.256 27.096 158.421 26.8276 158.356C26.5591 158.291 26.3941 158.021 26.4589 157.753L28.5936 148.914C28.5937 148.914 28.5937 148.913 28.5938 148.913C28.8632 147.787 29.8708 147 31.0249 147H40.7499C41.9056 147 42.912 147.793 43.1811 148.913L45.311 157.753C45.3757 158.021 45.2105 158.291 44.9421 158.356C44.6736 158.421 44.4035 158.256 44.3389 157.987L42.2089 149.147L42.2088 149.147C42.0479 148.477 41.4443 148 40.7499 148H31.0249Z" fill="#06A5FF"/>
<path d="M84.8051 16.85C86.3151 18.36 84.7351 20.88 80.8151 20.84C80.7801 16.92 83.2951 15.34 84.8051 16.85Z" fill="#FDBA74"/>
<path d="M98.5 3.15503C98.5 3.15503 92.805 3.36003 90.675 5.48503C88.545 7.61503 83.73 13.835 83.73 13.835L85.775 15.88L87.82 17.925C87.82 17.925 94.045 13.11 96.17 10.98C98.295 8.85003 98.5 3.15503 98.5 3.15503Z" fill="#27B1FF"/>
<path d="M87.9299 8.59998L81.7099 10.83C81.2549 10.995 81.2349 11.63 81.6799 11.795L84.4899 12.845L87.9299 8.59998Z" fill="#FB923C"/>
<path d="M93.0599 13.73L90.8299 19.95C90.6649 20.405 90.0299 20.425 89.8649 19.98L88.8149 17.17L93.0599 13.73Z" fill="#FB923C"/>
<path d="M94.47 9.18506C95.5745 9.18506 96.47 8.28963 96.47 7.18506C96.47 6.08049 95.5745 5.18506 94.47 5.18506C93.3654 5.18506 92.47 6.08049 92.47 7.18506C92.47 8.28963 93.3654 9.18506 94.47 9.18506Z" fill="#D0EEFF"/>
<defs>
<clipPath id="clip0_2508_11451">
<rect width="131" height="123" fill="white" transform="translate(24 23.5)"/>
</clipPath>
</defs>
</svg>
