<svg width="106" height="105" viewBox="0 0 106 105" fill="none" xmlns="http://www.w3.org/2000/svg">
<g clip-path="url(#clip0_2485_9603)">
<path d="M53 105C81.9949 105 105.5 81.4949 105.5 52.5C105.5 23.505 81.9949 0 53 0C24.005 0 0.5 23.505 0.5 52.5C0.5 81.4949 24.005 105 53 105Z" fill="white"/>
<path d="M53.0002 100.227C79.3593 100.227 100.727 78.8593 100.727 52.5002C100.727 26.1412 79.3593 4.77295 53.0002 4.77295C26.6412 4.77295 5.27295 26.1412 5.27295 52.5002C5.27295 78.8593 26.6412 100.227 53.0002 100.227Z" fill="#1E293B"/>
<mask id="mask0_2485_9603" style="mask-type:luminance" maskUnits="userSpaceOnUse" x="5" y="4" width="96" height="97">
<path d="M53.0002 100.227C79.3593 100.227 100.727 78.8593 100.727 52.5002C100.727 26.1412 79.3593 4.77295 53.0002 4.77295C26.6412 4.77295 5.27295 26.1412 5.27295 52.5002C5.27295 78.8593 26.6412 100.227 53.0002 100.227Z" fill="white"/>
</mask>
<g mask="url(#mask0_2485_9603)">
<path d="M86.5408 88.7122C86.2633 91.2654 54.8195 94.7345 41.785 96.0574C38.3807 96.4089 36.2252 96.6032 36.2252 96.6032L35.5222 81.8943C35.5222 81.8943 20.0269 87.3985 18.8151 66.2695C18.4358 59.5719 18.2508 41.9397 23.3573 27.8968C30.869 28.9052 50.2588 30.4778 57.9278 21.3564C57.9278 21.3564 63.2008 34.909 71.9614 36.4816C73.1455 36.6944 74.2556 36.8332 75.301 36.9072C77.5305 43.7343 79.5102 51.2646 81.1661 58.4155C84.6722 73.5962 86.7166 87.1025 86.5408 88.7122Z" fill="white"/>
<path d="M52.2108 45.8705C53.9427 45.8705 55.3468 44.4499 55.3468 42.6975C55.3468 40.945 53.9427 39.5244 52.2108 39.5244C50.4788 39.5244 49.0747 40.945 49.0747 42.6975C49.0747 44.4499 50.4788 45.8705 52.2108 45.8705Z" fill="#1E293B"/>
<path d="M31.8035 45.8705C33.5355 45.8705 34.9396 44.4499 34.9396 42.6975C34.9396 40.945 33.5355 39.5244 31.8035 39.5244C30.0715 39.5244 28.6675 40.945 28.6675 42.6975C28.6675 44.4499 30.0715 45.8705 31.8035 45.8705Z" fill="#1E293B"/>
<path d="M69.6304 38.7107C69.6304 38.7107 75.7545 30.533 81.1847 38.7107C86.615 46.8885 82.1561 58.3134 73.525 56.7592" fill="white"/>
<path d="M38.0569 38.5996C38.0569 38.5996 27.7977 58.7388 31.2205 61.403C35.587 64.7981 43.3762 62.1616 43.3762 62.1616C43.3762 62.1616 33.8663 61.7083 33.117 57.9802C32.3584 54.1781 38.0569 38.5996 38.0569 38.5996Z" fill="#1E293B"/>
<path d="M47.5576 41.2644C47.5576 41.2644 49.0748 37.4623 55.9204 40.5058C55.9204 40.5058 52.1183 39.7472 47.5576 41.2644Z" fill="#1E293B"/>
<path d="M34.6431 40.5058C34.6431 40.5058 28.6763 39.7472 26.2803 41.2644C26.2803 41.2644 28.556 37.4623 34.6431 40.5058Z" fill="#1E293B"/>
<path d="M39.9624 68.6184C39.9624 68.6184 48.5287 70.2188 52.6084 64.104C52.6084 64.104 46.0495 67.8599 39.9624 68.6184Z" fill="#1E293B"/>
<path d="M71.1196 42.0225C71.1196 42.0225 76.2169 34.261 80.8886 42.6978C85.5603 51.1346 76.0041 52.6518 76.0041 52.6518C76.0041 52.6518 72.4425 47.8043 78.2428 46.4259C84.0431 45.0568 75.6803 36.694 71.1196 42.0132V42.0225Z" fill="#1E293B"/>
<path d="M95.0515 87.0742H18.2969V106.076H95.0515V87.0742Z" fill="#06A5FF"/>
<path d="M46.7989 87.4535L18.2969 92.0327V87.0742L46.7989 87.4535Z" fill="white"/>
</g>
<path d="M14.8184 65.3498C14.1649 65.3498 13.5261 64.9973 13.1957 64.3805C12.9828 63.9767 8.02646 54.3945 12.2191 40.3701C12.5128 39.4008 13.5335 38.8428 14.5027 39.1365C15.4719 39.4302 16.0226 40.4508 15.7363 41.4201C11.9988 53.9246 16.3971 62.5743 16.4411 62.655C16.9111 63.5508 16.566 64.6596 15.6702 65.1295C15.3985 65.2763 15.1048 65.3424 14.8111 65.3424L14.8184 65.3498Z" fill="white"/>
<path d="M18.2323 33.0564C17.9092 33.0564 17.5862 32.9757 17.2925 32.7921C16.426 32.2708 16.1397 31.1474 16.661 30.2736C25.9127 14.8173 41.5893 10.5071 42.2501 10.3309C43.2341 10.0666 44.2327 10.654 44.497 11.6379C44.754 12.6145 44.1739 13.6204 43.1974 13.8848C43.0505 13.9215 28.2771 18.026 19.811 32.1606C19.4659 32.7334 18.8564 33.0564 18.2323 33.0564Z" fill="white"/>
</g>
<defs>
<clipPath id="clip0_2485_9603">
<rect width="105" height="105" fill="white" transform="translate(0.5)"/>
</clipPath>
</defs>
</svg>
