<svg width="200" height="200" viewBox="0 0 200 200" fill="none" xmlns="http://www.w3.org/2000/svg">
<path d="M71.5147 147.718C80.2736 147.718 87.3741 140.617 87.3741 131.858C87.3741 123.1 80.2736 115.999 71.5147 115.999C62.7558 115.999 55.6553 123.1 55.6553 131.858C55.6553 140.617 62.7558 147.718 71.5147 147.718Z" fill="#27B1FF"/>
<path d="M71.6677 133.259C72.7862 133.259 73.6928 132.353 73.6928 131.234C73.6928 130.116 72.7862 129.209 71.6677 129.209C70.5493 129.209 69.6426 130.116 69.6426 131.234C69.6426 132.353 70.5493 133.259 71.6677 133.259Z" fill="#B6E5FF"/>
<path d="M80.3805 128.138C81.3363 128.138 82.1112 127.363 82.1112 126.407C82.1112 125.451 81.3363 124.676 80.3805 124.676C79.4246 124.676 78.6497 125.451 78.6497 126.407C78.6497 127.363 79.4246 128.138 80.3805 128.138Z" fill="#B6E5FF"/>
<path d="M62.7077 128.562C63.6896 128.562 64.4856 127.766 64.4856 126.784C64.4856 125.802 63.6896 125.006 62.7077 125.006C61.7258 125.006 60.9299 125.802 60.9299 126.784C60.9299 127.766 61.7258 128.562 62.7077 128.562Z" fill="#B6E5FF"/>
<path d="M71.6912 143.161C72.7381 143.161 73.5868 142.313 73.5868 141.266C73.5868 140.219 72.7381 139.37 71.6912 139.37C70.6443 139.37 69.7956 140.219 69.7956 141.266C69.7956 142.313 70.6443 143.161 71.6912 143.161Z" fill="#B6E5FF"/>
<path d="M71.6678 141.866C68.5712 141.866 66.134 137.157 66.134 131.187C66.134 125.218 68.5712 120.508 71.6678 120.508C74.7643 120.508 77.2015 125.218 77.2015 131.187C77.2015 137.157 74.7172 141.866 71.6678 141.866ZM71.6678 121.78C69.313 121.78 67.4056 126.089 67.4056 131.199C67.4056 136.309 69.3601 140.618 71.6678 140.618C73.9754 140.618 75.8946 136.332 75.8946 131.27C75.8946 126.207 73.9754 121.851 71.6678 121.851V121.78Z" fill="#B6E5FF"/>
<path d="M76.5066 138.052C73.9972 137.972 71.535 137.349 69.2892 136.227C66.974 135.183 64.9192 133.639 63.2728 131.705C61.7893 129.845 61.3536 128.055 62.0248 126.643C62.6959 125.23 64.3795 124.441 66.7343 124.417C69.2751 124.487 71.7702 125.11 74.0459 126.242C76.3619 127.29 78.4167 128.838 80.0623 130.775C81.5459 132.624 81.9815 134.413 81.3104 135.826C80.6393 137.239 78.9556 138.028 76.6008 138.052H76.5066ZM66.8285 125.689H66.7461C64.9211 125.689 63.6142 126.254 63.2139 127.184C62.8136 128.114 63.2139 129.539 64.3089 130.905C65.8588 132.644 67.7377 134.06 69.8372 135.071C71.9367 136.081 74.2154 136.666 76.542 136.792H76.6361C78.4611 136.792 79.768 136.227 80.1683 135.296C80.5686 134.366 80.1683 133.001 79.0733 131.576C77.5551 129.793 75.6667 128.363 73.5396 127.384C71.4512 126.341 69.1617 125.763 66.8285 125.689Z" fill="#B6E5FF"/>
<path d="M66.5813 138.44C64.5798 138.44 63.1198 137.792 62.4134 136.58C60.871 133.895 63.7203 129.445 68.9008 126.442C71.0804 125.14 73.5208 124.336 76.0475 124.088C78.4023 123.923 80.1331 124.57 80.9219 125.924C81.7108 127.278 81.4047 129.103 80.0742 131.07C78.5499 133.098 76.6315 134.797 74.4343 136.066C72.2371 137.334 69.8063 138.146 67.2878 138.452C67.0523 138.44 66.8168 138.44 66.5813 138.44ZM76.7422 125.3C76.5383 125.289 76.3339 125.289 76.1299 125.3C73.795 125.547 71.5435 126.307 69.5366 127.526C65.1214 130.069 62.3663 133.919 63.5201 135.92C64.0382 136.815 65.3686 137.251 67.2053 137.098C71.8796 136.471 76.1141 134.015 78.9792 130.269C80.0036 128.75 80.2861 127.373 79.7681 126.466C79.4012 126.034 78.9321 125.702 78.4035 125.498C77.8749 125.294 77.3038 125.227 76.7422 125.3Z" fill="#B6E5FF"/>
<path d="M128.983 41.117C137.404 41.117 144.23 34.2906 144.23 25.8699C144.23 17.4491 137.404 10.6227 128.983 10.6227C120.562 10.6227 113.736 17.4491 113.736 25.8699C113.736 34.2906 120.562 41.117 128.983 41.117Z" fill="#27B1FF"/>
<path d="M130.584 36.384C129.729 36.3522 128.891 36.1308 128.132 35.7358C127.372 35.3408 126.71 34.782 126.193 34.0999C125.264 34.3159 124.291 34.2164 123.426 33.8173C122.816 33.5502 122.264 33.1652 121.804 32.6843C121.343 32.2034 120.982 31.6361 120.741 31.0151C120.386 29.8924 120.329 28.6968 120.575 27.5453C120.82 26.3937 121.36 25.3256 122.142 24.4453C123.648 22.7744 125.564 21.5246 127.7 20.8189L128.583 20.4893C129.649 20.1601 130.67 19.6973 131.62 19.1117C132.167 18.7925 132.625 18.3401 132.95 17.7966C133.275 17.2532 133.458 16.6363 133.481 16.0034C133.474 15.8689 133.512 15.7361 133.589 15.6254C133.665 15.5148 133.776 15.4324 133.904 15.3912C134.033 15.3463 134.173 15.3463 134.301 15.3913C134.429 15.4362 134.539 15.5233 134.611 15.6384C137.028 19.3692 138.023 23.8449 137.413 28.2482C137.237 30.04 136.644 31.7658 135.682 33.2875C135.183 34.0814 134.524 34.7633 133.748 35.2901C132.972 35.817 132.095 36.1774 131.173 36.3487C130.978 36.3722 130.781 36.384 130.584 36.384ZM126.452 32.7694C126.559 32.767 126.666 32.7942 126.759 32.8482C126.853 32.9022 126.93 32.9808 126.981 33.0755C127.402 33.7465 127.996 34.2918 128.701 34.6543C129.405 35.0168 130.194 35.1832 130.985 35.136C131.74 34.9936 132.457 34.6962 133.091 34.2625C133.726 33.8288 134.263 33.2683 134.67 32.6164C135.522 31.2475 136.046 29.7001 136.2 28.0952C136.715 24.5137 136.08 20.8612 134.387 17.6635C133.938 18.6638 133.216 19.5168 132.303 20.1243C131.269 20.7679 130.157 21.2782 128.995 21.6431L128.135 21.961C126.193 22.5908 124.449 23.7147 123.072 25.2224C122.432 25.9408 121.987 26.8122 121.78 27.7526C121.574 28.6929 121.614 29.6706 121.895 30.5912C122.269 31.5355 123.001 32.2934 123.932 32.6988C124.296 32.8769 124.692 32.9792 125.097 32.9995C125.502 33.0197 125.907 32.9575 126.287 32.8165C126.339 32.7916 126.394 32.7756 126.452 32.7694Z" fill="#D0EEFF"/>
<path d="M126.451 33.9822C126.313 33.9832 126.178 33.9372 126.069 33.8517C125.96 33.7661 125.883 33.6461 125.851 33.5112C125.744 32.6597 125.808 31.7954 126.039 30.9687C126.269 30.142 126.662 29.3694 127.193 28.6957C127.874 27.8153 128.639 27.003 129.477 26.2703L130.278 25.4932C131.807 24.0006 132.782 22.0326 133.045 19.9124C133.098 19.784 133.193 19.6774 133.314 19.6101C133.436 19.5428 133.577 19.5188 133.714 19.5421C133.85 19.5654 133.975 19.6345 134.068 19.7382C134.16 19.8418 134.215 19.9738 134.222 20.1125C133.912 22.4872 132.813 24.6888 131.102 26.3645L130.278 27.1533C129.499 27.8388 128.785 28.5956 128.147 29.4139C127.265 30.4839 126.841 31.8595 126.97 33.2404C126.987 33.3193 126.988 33.4008 126.974 33.4803C126.96 33.5597 126.93 33.6356 126.886 33.7034C126.842 33.7713 126.785 33.8298 126.719 33.8756C126.652 33.9214 126.578 33.9536 126.499 33.9704L126.451 33.9822Z" fill="#D0EEFF"/>
<path d="M130.902 26.541H130.69C130.53 26.5348 130.378 26.466 130.268 26.3493C130.158 26.2326 130.098 26.0774 130.101 25.917C130.107 25.7576 130.174 25.6066 130.288 25.4949C130.402 25.3832 130.554 25.3194 130.714 25.3165C131.575 25.3667 132.436 25.2236 133.235 24.8976C134.033 24.5717 134.749 24.0711 135.329 23.4327C135.38 23.3716 135.443 23.3212 135.513 23.2843C135.584 23.2474 135.661 23.2247 135.74 23.2176C135.819 23.2105 135.899 23.2191 135.975 23.2429C136.051 23.2666 136.122 23.3051 136.183 23.3562C136.244 23.4072 136.294 23.4697 136.331 23.5402C136.368 23.6108 136.391 23.6878 136.398 23.7671C136.405 23.8464 136.396 23.9263 136.372 24.0022C136.349 24.0782 136.31 24.1487 136.259 24.2098C135.59 24.9647 134.763 25.5644 133.838 25.9671C132.913 26.3697 131.911 26.5656 130.902 26.541Z" fill="#D0EEFF"/>
<path d="M130.714 26.5411C130.615 26.5411 130.517 26.5176 130.429 26.4726C130.341 26.4276 130.265 26.3623 130.207 26.2821C129.695 25.6241 129.36 24.8456 129.234 24.021C129.108 23.1964 129.196 22.3534 129.489 21.5725C129.513 21.4952 129.552 21.4234 129.604 21.3611C129.656 21.2989 129.719 21.2474 129.791 21.2097C129.862 21.172 129.941 21.1487 130.021 21.1413C130.102 21.1338 130.183 21.1423 130.26 21.1663C130.338 21.1903 130.41 21.2292 130.472 21.281C130.534 21.3327 130.585 21.3962 130.623 21.4678C130.661 21.5394 130.684 21.6177 130.692 21.6983C130.699 21.7789 130.691 21.8602 130.667 21.9375C130.433 22.5354 130.361 23.1845 130.458 23.8191C130.555 24.4537 130.818 25.0515 131.22 25.5521C131.284 25.6434 131.323 25.7505 131.331 25.862C131.339 25.9735 131.316 26.085 131.265 26.1844C131.214 26.2839 131.137 26.3675 131.042 26.4262C130.947 26.4849 130.837 26.5165 130.725 26.5175L130.714 26.5411Z" fill="#D0EEFF"/>
<path d="M127.97 29.2608C127.88 29.2622 127.79 29.2427 127.709 29.2039C127.627 29.1651 127.555 29.108 127.499 29.0371C125.969 27.1415 126.087 25.3872 126.817 22.8087C126.863 22.6549 126.968 22.5255 127.109 22.4484C127.25 22.3713 127.416 22.3527 127.57 22.3966C127.648 22.417 127.721 22.4528 127.785 22.5021C127.849 22.5513 127.903 22.613 127.942 22.6833C127.982 22.7537 128.007 22.8313 128.016 22.9115C128.024 22.9917 128.017 23.0728 127.994 23.1501C127.335 25.4225 127.24 26.7765 128.441 28.2718C128.493 28.3338 128.532 28.4056 128.555 28.4829C128.578 28.5601 128.586 28.6413 128.577 28.7215C128.568 28.8018 128.543 28.8794 128.504 28.9498C128.464 29.0202 128.411 29.0819 128.347 29.1313C128.239 29.2137 128.107 29.2591 127.97 29.2608Z" fill="#D0EEFF"/>
<path d="M126.593 31.8982C126.511 31.8994 126.43 31.8833 126.355 31.8508C126.28 31.8184 126.212 31.7703 126.157 31.7098C125.213 30.7035 124.498 29.5047 124.061 28.1959C123.624 26.887 123.476 25.4991 123.626 24.1274C123.633 24.0477 123.656 23.9703 123.694 23.8999C123.732 23.8295 123.784 23.7677 123.847 23.7181C123.91 23.6685 123.982 23.6322 124.06 23.6115C124.137 23.5908 124.218 23.586 124.297 23.5976C124.457 23.6154 124.604 23.6959 124.706 23.8216C124.807 23.9473 124.855 24.108 124.838 24.2687C124.71 25.4632 124.84 26.6713 125.22 27.811C125.6 28.9507 126.221 29.9953 127.04 30.8738C127.097 30.9298 127.143 30.9966 127.174 31.0704C127.205 31.1442 127.221 31.2235 127.221 31.3036C127.221 31.3837 127.205 31.4629 127.174 31.5367C127.143 31.6106 127.097 31.6774 127.04 31.7333C126.918 31.8442 126.758 31.9033 126.593 31.8982Z" fill="#D0EEFF"/>
<path d="M129.984 32.9108C128.643 32.9198 127.334 32.508 126.24 31.7334C126.169 31.6885 126.109 31.6296 126.062 31.5605C126.015 31.4913 125.983 31.4133 125.967 31.3313C125.952 31.2493 125.953 31.1649 125.972 31.0834C125.99 31.002 126.024 30.9251 126.074 30.8575C126.123 30.79 126.185 30.7331 126.257 30.6906C126.329 30.648 126.408 30.6206 126.491 30.61C126.574 30.5994 126.658 30.6058 126.738 30.629C126.819 30.6521 126.893 30.6913 126.958 30.7444C128.143 31.4766 129.546 31.7748 130.927 31.588C132.307 31.4012 133.58 30.741 134.528 29.72C134.583 29.6612 134.65 29.6143 134.724 29.5823C134.798 29.5502 134.878 29.5337 134.958 29.5337C135.039 29.5337 135.118 29.5502 135.192 29.5823C135.266 29.6143 135.333 29.6612 135.388 29.72C135.445 29.776 135.491 29.8428 135.522 29.9166C135.553 29.9904 135.569 30.0697 135.569 30.1498C135.569 30.2299 135.553 30.3092 135.522 30.383C135.491 30.4568 135.445 30.5236 135.388 30.5795C134.686 31.3066 133.847 31.8871 132.92 32.2872C131.992 32.6874 130.994 32.8994 129.984 32.9108Z" fill="#D0EEFF"/>
<path d="M130.349 29.8731C129.422 29.8775 128.509 29.6423 127.7 29.1902C127.629 29.1509 127.567 29.0981 127.517 29.0348C127.467 28.9715 127.43 28.8989 127.408 28.8212C127.386 28.7435 127.38 28.6623 127.389 28.5821C127.399 28.502 127.424 28.4245 127.464 28.3542C127.502 28.2841 127.554 28.2223 127.616 28.1724C127.678 28.1225 127.75 28.0855 127.827 28.0635C127.904 28.0416 127.984 28.0352 128.063 28.0447C128.142 28.0542 128.219 28.0794 128.288 28.1188C130.431 29.2962 133.186 28.2718 134.964 26.7177C135.023 26.6553 135.094 26.6059 135.172 26.5726C135.251 26.5393 135.336 26.5229 135.422 26.5245C135.507 26.5261 135.592 26.5456 135.669 26.5817C135.747 26.6178 135.816 26.6698 135.872 26.7343C135.928 26.7988 135.97 26.8744 135.996 26.9561C136.021 27.0379 136.029 27.124 136.018 27.209C136.008 27.294 135.981 27.3759 135.937 27.4494C135.893 27.523 135.835 27.5865 135.765 27.636C134.275 28.9897 132.359 29.7809 130.349 29.8731Z" fill="#D0EEFF"/>
<path d="M139.403 184.464C162.376 184.464 181 165.841 181 142.867C181 119.894 162.376 101.27 139.403 101.27C116.429 101.27 97.8056 119.894 97.8056 142.867C97.8056 165.841 116.429 184.464 139.403 184.464Z" fill="#06A5FF"/>
<path d="M156.228 124.559H122.59C121.778 124.559 120.999 124.881 120.425 125.455C119.851 126.029 119.529 126.808 119.529 127.62C119.529 128.432 119.851 129.21 120.425 129.784C120.999 130.359 121.778 130.681 122.59 130.681H131.291C130.113 140.524 127.759 147.989 120.93 155.406C120.653 155.701 120.44 156.049 120.301 156.428C120.162 156.807 120.101 157.211 120.122 157.614C120.143 158.018 120.245 158.413 120.422 158.776C120.6 159.139 120.848 159.463 121.153 159.727C121.738 160.236 122.486 160.516 123.261 160.516C123.702 160.52 124.139 160.432 124.545 160.258C124.95 160.083 125.315 159.827 125.616 159.504C133.74 150.744 136.436 141.843 137.637 130.669H141.628C140.357 137.121 139.438 144.998 140.062 151.003C141.039 160.422 147.127 161.152 152.754 161.152C153.156 161.152 153.555 161.073 153.926 160.919C154.297 160.765 154.635 160.54 154.919 160.255C155.203 159.971 155.429 159.634 155.583 159.262C155.736 158.891 155.816 158.493 155.816 158.091C155.816 157.689 155.736 157.291 155.583 156.919C155.429 156.548 155.203 156.21 154.919 155.926C154.635 155.642 154.297 155.416 153.926 155.262C153.555 155.109 153.156 155.029 152.754 155.029C147.586 155.029 146.75 154.429 146.326 150.379C145.725 144.657 146.75 136.839 148.057 130.669H156.24C157.051 130.669 157.83 130.347 158.404 129.773C158.978 129.199 159.301 128.42 159.301 127.608C159.301 126.796 158.978 126.018 158.404 125.443C157.83 124.869 157.051 124.547 156.24 124.547L156.228 124.559Z" fill="#D0EEFF"/>
<path d="M62.2721 108.793C88.3798 108.793 109.544 87.6289 109.544 61.5212C109.544 35.4135 88.3798 14.249 62.2721 14.249C36.1645 14.249 15 35.4135 15 61.5212C15 87.6289 36.1645 108.793 62.2721 108.793Z" fill="#06A5FF"/>
<path d="M58.7518 70.5752V76.8978H35.5102V47.9458H58.2338V54.2802H43.6106V59.1545H56.4677V65.3358H43.6106V70.6341L58.7518 70.5752Z" fill="#D0EEFF"/>
<path d="M90.8473 47.9458V76.8978H84.1362L71.3262 61.474V76.8978H63.2964V47.9458H70.0075L82.8175 63.3814V47.9458H90.8473Z" fill="#D0EEFF"/>
<path d="M143.465 93.864C155.93 93.864 166.035 83.7588 166.035 71.2934C166.035 58.8281 155.93 48.7229 143.465 48.7229C130.999 48.7229 120.894 58.8281 120.894 71.2934C120.894 83.7588 130.999 93.864 143.465 93.864Z" fill="#27B1FF"/>
<path d="M148.351 78.8289H138.579L134.364 86.788H152.272L148.351 78.8289Z" fill="#D0EEFF"/>
<path d="M135.2 87.8947H151.683C151.972 87.884 152.254 87.7993 152.501 87.6489C152.749 87.4984 152.953 87.2872 153.096 87.0352L135.2 87.8947ZM135.2 87.8947C134.898 87.895 134.603 87.8156 134.342 87.6647C134.082 87.5137 133.866 87.2966 133.716 87.0352L135.2 87.8947ZM152.241 87.2217C152.07 87.3263 151.874 87.3858 151.673 87.3947H135.2H135.199C134.986 87.3949 134.777 87.3388 134.593 87.232C134.409 87.1256 134.257 86.9726 134.151 86.7884C134.038 86.5869 133.978 86.3597 133.978 86.1286C133.978 85.899 134.037 85.6732 134.149 85.4727L141.315 73.5049L141.386 73.3862V73.248V59.5016H145.426V73.248V73.3864L145.497 73.505L152.664 85.4627C152.778 85.6639 152.839 85.8913 152.839 86.1227C152.839 86.3557 152.778 86.5846 152.662 86.7868L152.661 86.789C152.56 86.9667 152.416 87.1156 152.241 87.2217ZM134.935 85.8368L134.483 86.5933H135.364H151.565H152.447L151.994 85.8368L144.683 73.6044V60.7912V60.2912H144.183H142.747H142.247V60.7912V73.6044L134.935 85.8368Z" fill="#B6E5FF" stroke="#B6E5FF"/>
<path d="M136.353 69.1507C137.322 69.1507 138.108 68.3653 138.108 67.3964C138.108 66.4275 137.322 65.6421 136.353 65.6421C135.385 65.6421 134.599 66.4275 134.599 67.3964C134.599 68.3653 135.385 69.1507 136.353 69.1507Z" stroke="#B6E5FF" stroke-width="2" stroke-miterlimit="10"/>
<path d="M146.114 57.3179C147.083 57.3179 147.868 56.5325 147.868 55.5636C147.868 54.5948 147.083 53.8093 146.114 53.8093C145.145 53.8093 144.36 54.5948 144.36 55.5636C144.36 56.5325 145.145 57.3179 146.114 57.3179Z" stroke="#B6E5FF" stroke-width="2" stroke-miterlimit="10"/>
<path d="M154.721 68.5031C156.567 68.5031 158.064 67.0061 158.064 65.1593C158.064 63.3126 156.567 61.8156 154.721 61.8156C152.874 61.8156 151.377 63.3126 151.377 65.1593C151.377 67.0061 152.874 68.5031 154.721 68.5031Z" stroke="#B6E5FF" stroke-width="2" stroke-miterlimit="10"/>
<path d="M132.244 77.3806C133.779 77.3806 135.023 76.1366 135.023 74.602C135.023 73.0674 133.779 71.8234 132.244 71.8234C130.71 71.8234 129.466 73.0674 129.466 74.602C129.466 76.1366 130.71 77.3806 132.244 77.3806Z" stroke="#B6E5FF" stroke-width="2" stroke-miterlimit="10"/>
<path d="M152.543 77.251C153.674 77.251 154.591 76.3338 154.591 75.2023C154.591 74.0709 153.674 73.1537 152.543 73.1537C151.411 73.1537 150.494 74.0709 150.494 75.2023C150.494 76.3338 151.411 77.251 152.543 77.251Z" stroke="#B6E5FF" stroke-width="2" stroke-miterlimit="10"/>
</svg>
