<svg width="32" height="32" viewBox="0 0 32 32" fill="none" xmlns="http://www.w3.org/2000/svg">
<path d="M8.06 15.9535L7 13.4468C6.62667 12.5668 6.52667 11.6001 6.70667 10.6601L7.00667 9.10014C7.00667 8.38681 6.42667 7.81348 5.72 7.81348C5.01334 7.81348 4.43334 8.39348 4.43334 9.10014L4.73334 10.6601C4.91334 11.6001 4.81334 12.5668 4.44 13.4468L3.38 15.9535C2.90667 17.0668 2.87334 18.3135 3.28 19.4468L4.18667 22.0001H5.72667H7.26667L8.17334 19.4468C8.58 18.3135 8.54 17.0668 8.07334 15.9535H8.06Z" fill="#CBD5E1"/>
<path d="M4.74667 10.7935C4.83334 11.3401 4.83334 11.8935 4.73334 12.4401H6.7C6.6 11.9001 6.6 11.3401 6.68667 10.7935H4.75334H4.74667Z" fill="#64748B"/>
<path d="M28.6333 15.9535L27.5733 13.4468C27.2 12.5668 27.1 11.6001 27.28 10.6601L27.58 9.10014C27.58 8.38681 27 7.81348 26.2933 7.81348C25.5867 7.81348 25.0067 8.39348 25.0067 9.10014L25.3067 10.6601C25.4867 11.6001 25.3867 12.5668 25.0133 13.4468L23.9533 15.9535C23.48 17.0668 23.4467 18.3135 23.8533 19.4468L24.76 22.0001H26.3H27.84L28.7467 19.4468C29.1533 18.3135 29.1133 17.0668 28.6467 15.9535H28.6333Z" fill="#CBD5E1"/>
<path d="M25.32 10.7935C25.4067 11.3401 25.4067 11.8935 25.3067 12.4401H27.2733C27.1733 11.9001 27.1733 11.3401 27.26 10.7935H25.3267H25.32Z" fill="#64748B"/>
<path d="M26.1333 16.0132L24.6733 12.5732C24.16 11.3665 24.02 10.0332 24.2667 8.74651L24.68 6.60651C24.68 5.62651 23.8866 4.83984 22.9133 4.83984C21.94 4.83984 21.1466 5.63318 21.1466 6.60651L21.56 8.74651C21.8066 10.0332 21.6666 11.3665 21.1533 12.5732L19.6933 16.0132C19.0466 17.5332 19 19.2465 19.5533 20.8065L20.8 24.3065H22.9133H25.0266L26.2733 20.8065C26.8266 19.2465 26.78 17.5398 26.1333 16.0132Z" fill="#94A3B8"/>
<path d="M21.5867 8.93311C21.7067 9.68644 21.7067 10.4464 21.5667 11.1864H24.26C24.1267 10.4464 24.12 9.67977 24.24 8.93311H21.5867Z" fill="#64748B"/>
<path d="M12.3067 16.0132L10.8467 12.5732C10.3333 11.3665 10.1933 10.0332 10.44 8.74651L10.8533 6.60651C10.8533 5.62651 10.06 4.83984 9.08666 4.83984C8.11332 4.83984 7.31999 5.63318 7.31999 6.60651L7.73332 8.74651C7.97999 10.0332 7.83999 11.3665 7.32666 12.5732L5.86666 16.0132C5.21999 17.5332 5.17332 19.2465 5.72666 20.8065L6.97332 24.3065H9.08666H11.2L12.4467 20.8065C13 19.2465 12.9533 17.5398 12.3067 16.0132Z" fill="#94A3B8"/>
<path d="M7.75999 8.93311C7.87999 9.68644 7.87999 10.4464 7.73999 11.1864H10.4333C10.3 10.4464 10.2933 9.67977 10.4133 8.93311H7.75999Z" fill="#64748B"/>
<path d="M20.3067 16.5201L18.3533 11.9134C17.6667 10.3001 17.48 8.51339 17.8133 6.79339L18.3667 3.92673C18.3667 2.62006 17.3067 1.56006 16 1.56006C14.6933 1.56006 13.6333 2.62006 13.6333 3.92673L14.1867 6.79339C14.52 8.51339 14.3333 10.3001 13.6467 11.9134L11.6933 16.5201C10.8267 18.5601 10.76 20.8467 11.5067 22.9401L13.18 27.6267H16.0067H18.8333L20.5067 22.9401C21.2533 20.8534 21.1867 18.5601 20.32 16.5201H20.3067Z" fill="#64748B"/>
<path d="M14.22 7.04004C14.3867 8.04671 14.38 9.06671 14.1933 10.06H17.8C17.62 9.06671 17.6133 8.04671 17.7733 7.04004H14.2133H14.22Z" fill="#64748B"/>
<path d="M16.2733 30.6664C21.1224 30.6664 25.0533 26.7355 25.0533 21.8864C25.0533 17.0374 21.1224 13.1064 16.2733 13.1064C11.4243 13.1064 7.49333 17.0374 7.49333 21.8864C7.49333 26.7355 11.4243 30.6664 16.2733 30.6664Z" fill="#334155"/>
<path d="M16 19.1065C16.6738 19.1065 17.22 18.5603 17.22 17.8865C17.22 17.2127 16.6738 16.6665 16 16.6665C15.3262 16.6665 14.78 17.2127 14.78 17.8865C14.78 18.5603 15.3262 19.1065 16 19.1065Z" fill="#94A3B8"/>
<path d="M14.2933 21.8267C14.9671 21.8267 15.5133 21.2805 15.5133 20.6067C15.5133 19.9329 14.9671 19.3867 14.2933 19.3867C13.6195 19.3867 13.0733 19.9329 13.0733 20.6067C13.0733 21.2805 13.6195 21.8267 14.2933 21.8267Z" fill="#94A3B8"/>
<path d="M17.78 21.8267C18.4538 21.8267 19 21.2805 19 20.6067C19 19.9329 18.4538 19.3867 17.78 19.3867C17.1062 19.3867 16.56 19.9329 16.56 20.6067C16.56 21.2805 17.1062 21.8267 17.78 21.8267Z" fill="#94A3B8"/>
</svg>
