<svg width="32" height="32" viewBox="0 0 32 32" fill="none" xmlns="http://www.w3.org/2000/svg">
<path d="M18.6666 2.66699H13.3333V5.33366H18.6666V2.66699Z" fill="#94A3B8"/>
<path d="M16 30.6667C23.3638 30.6667 29.3333 24.6971 29.3333 17.3333C29.3333 9.96954 23.3638 4 16 4C8.63619 4 2.66666 9.96954 2.66666 17.3333C2.66666 24.6971 8.63619 30.6667 16 30.6667Z" fill="#64748B"/>
<path d="M16 28.6667C22.2592 28.6667 27.3333 23.5926 27.3333 17.3333C27.3333 11.0741 22.2592 6 16 6C9.74076 6 4.66666 11.0741 4.66666 17.3333C4.66666 23.5926 9.74076 28.6667 16 28.6667Z" fill="#E2E8F0"/>
<path d="M16 7.18652V9.85319" stroke="#334155" stroke-linecap="round" stroke-linejoin="round"/>
<path d="M16 24.793V27.4596" stroke="#334155" stroke-linecap="round" stroke-linejoin="round"/>
<path d="M5.85999 17.3267H8.52665" stroke="#334155" stroke-linecap="round" stroke-linejoin="round"/>
<path d="M23.4733 17.3267H26.14" stroke="#334155" stroke-linecap="round" stroke-linejoin="round"/>
<path d="M8.83331 10.1597L10.72 12.0463" stroke="#334155" stroke-linecap="round" stroke-linejoin="round"/>
<path d="M21.28 22.6064L23.1666 24.4931" stroke="#334155" stroke-linecap="round" stroke-linejoin="round"/>
<path d="M8.83331 24.4931L10.72 22.6064" stroke="#334155" stroke-linecap="round" stroke-linejoin="round"/>
<path d="M21.28 12.0463L23.1666 10.1597" stroke="#334155" stroke-linecap="round" stroke-linejoin="round"/>
<path d="M20.48 1.3335H11.5133V2.66683H20.48V1.3335Z" fill="#64748B"/>
<path d="M17.1533 18.0001L14.8467 16.6667L19.3333 11.5601L17.1533 18.0001Z" fill="#94A3B8"/>
<path d="M16 18.6667C16.7364 18.6667 17.3333 18.0697 17.3333 17.3333C17.3333 16.597 16.7364 16 16 16C15.2636 16 14.6667 16.597 14.6667 17.3333C14.6667 18.0697 15.2636 18.6667 16 18.6667Z" fill="#1E293B"/>
</svg>
