<svg width="255" height="254" viewBox="0 0 255 254" fill="none" xmlns="http://www.w3.org/2000/svg">
<path d="M152.461 121.469C149.728 137.084 139.734 148.795 127.75 148.795C115.765 148.795 105.81 137.084 103.078 121.469" stroke="white" stroke-width="1.5" stroke-linecap="round" stroke-linejoin="round"/>
<path d="M148.674 92.8535C143.443 110.889 121.074 122.561 103.078 121.781" stroke="white" stroke-width="1.5" stroke-linecap="round" stroke-linejoin="round"/>
<path d="M140.125 107.063C143.063 112.866 147.282 117.925 152.461 121.859" stroke="white" stroke-width="1.5" stroke-linecap="round" stroke-linejoin="round"/>
<path d="M103.078 121.859C89.1414 94.22 127.75 69.4308 149.377 91.9168C156.248 99.9586 155.623 113.349 152.461 121.859" stroke="white" stroke-width="1.5" stroke-linecap="round" stroke-linejoin="round"/>
<path d="M138.836 147.077V153.636L133.352 158.242L127.867 162.849L116.624 153.636V147.077" stroke="white" stroke-width="1.5" stroke-linecap="round" stroke-linejoin="round"/>
<path d="M116.897 153.909L97.3782 161.326C96.3233 161.73 95.3687 162.358 94.5801 163.167C93.7915 163.976 93.1879 164.946 92.8107 166.011L90 174.834H128.023" stroke="white" stroke-width="1.5" stroke-linecap="round" stroke-linejoin="round"/>
<path d="M139.149 153.909L158.668 161.326C159.723 161.73 160.677 162.358 161.466 163.167C162.254 163.976 162.858 164.946 163.235 166.011L166.124 174.834H128.023" stroke="white" stroke-width="1.5" stroke-linecap="round" stroke-linejoin="round"/>
<circle cx="127.5" cy="127" r="93.5" stroke="#E2E8F0"/>
<circle cx="127.5" cy="127" r="126.5" stroke="#64748B"/>
</svg>
