<svg width="80" height="80" viewBox="0 0 80 80" fill="none" xmlns="http://www.w3.org/2000/svg">
<g clip-path="url(#clip0_1894_3005)">
<path d="M64 0H16C7.16344 0 0 7.16344 0 16V64C0 72.8366 7.16344 80 16 80H64C72.8366 80 80 72.8366 80 64V16C80 7.16344 72.8366 0 64 0Z" fill="#FB923C"/>
<mask id="mask0_1894_3005" style="mask-type:luminance" maskUnits="userSpaceOnUse" x="0" y="0" width="80" height="80">
<path d="M64 0H16C7.16344 0 0 7.16344 0 16V64C0 72.8366 7.16344 80 16 80H64C72.8366 80 80 72.8366 80 64V16C80 7.16344 72.8366 0 64 0Z" fill="white"/>
</mask>
<g mask="url(#mask0_1894_3005)">
<path d="M53.88 13.7202H8.75V64.8702L53.88 13.7202ZM35.1 22.7402L17.87 42.6502V22.7402H35.1Z" fill="white"/>
<path d="M13.3801 23.77H8.83008V24.84H13.3801V23.77Z" fill="#2C3D5B"/>
<path d="M13.3801 32.54H8.83008V33.61H13.3801V32.54Z" fill="#2C3D5B"/>
<path d="M13.3801 41.3101H8.83008V42.3801H13.3801V41.3101Z" fill="#2C3D5B"/>
<path d="M13.3801 50.0801H8.83008V51.1501H13.3801V50.0801Z" fill="#2C3D5B"/>
<path d="M30.04 26.8101H80.29V80.4001H19.26V37.5901C19.26 31.6401 24.09 26.8101 30.04 26.8101Z" fill="#315D93"/>
<path d="M31.0999 33.7502H80.2799V60.3202H31.0999C28.0799 60.3202 25.6299 57.8702 25.6299 54.8502V39.2102C25.6299 36.1902 28.0799 33.7402 31.0999 33.7402V33.7502Z" fill="#1E293B"/>
<path d="M31.0999 33.7502H80.2799V58.0602H31.0999C28.0799 58.0602 25.6299 55.6102 25.6299 52.5902V39.2102C25.6299 36.1902 28.0799 33.7402 31.0999 33.7402V33.7502Z" fill="#2C3D5B"/>
<path d="M42.8899 62.5103H28.5999C26.9651 62.5103 25.6399 63.8355 25.6399 65.4703V70.7803C25.6399 72.415 26.9651 73.7403 28.5999 73.7403H42.8899C44.5247 73.7403 45.8499 72.415 45.8499 70.7803V65.4703C45.8499 63.8355 44.5247 62.5103 42.8899 62.5103Z" fill="#2C3D5B"/>
<path d="M42.8899 62.5103H28.5999C26.9651 62.5103 25.6399 63.8355 25.6399 65.4703V69.8203C25.6399 71.455 26.9651 72.7803 28.5999 72.7803H42.8899C44.5247 72.7803 45.8499 71.455 45.8499 69.8203V65.4703C45.8499 63.8355 44.5247 62.5103 42.8899 62.5103Z" fill="#27B1FF"/>
<path d="M64.4099 62.5103H50.1199C48.4851 62.5103 47.1599 63.8355 47.1599 65.4703V70.7803C47.1599 72.415 48.4851 73.7403 50.1199 73.7403H64.4099C66.0447 73.7403 67.3699 72.415 67.3699 70.7803V65.4703C67.3699 63.8355 66.0447 62.5103 64.4099 62.5103Z" fill="#2C3D5B"/>
<path d="M64.4099 62.5103H50.1199C48.4851 62.5103 47.1599 63.8355 47.1599 65.4703V69.8203C47.1599 71.455 48.4851 72.7803 50.1199 72.7803H64.4099C66.0447 72.7803 67.3699 71.455 67.3699 69.8203V65.4703C67.3699 63.8355 66.0447 62.5103 64.4099 62.5103Z" fill="#27B1FF"/>
<path d="M85.9399 62.5103H71.6499C70.0152 62.5103 68.6899 63.8355 68.6899 65.4703V70.7803C68.6899 72.415 70.0152 73.7403 71.6499 73.7403H85.9399C87.5747 73.7403 88.8999 72.415 88.8999 70.7803V65.4703C88.8999 63.8355 87.5747 62.5103 85.9399 62.5103Z" fill="#2C3D5B"/>
<path d="M85.9399 62.5103H71.6499C70.0152 62.5103 68.6899 63.8355 68.6899 65.4703V69.8203C68.6899 71.455 70.0152 72.7803 71.6499 72.7803H85.9399C87.5747 72.7803 88.8999 71.455 88.8999 69.8203V65.4703C88.8999 63.8355 87.5747 62.5103 85.9399 62.5103Z" fill="#27B1FF"/>
<path d="M42.8899 74.9502H28.5999C26.9651 74.9502 25.6399 76.2754 25.6399 77.9102V83.2202C25.6399 84.855 26.9651 86.1802 28.5999 86.1802H42.8899C44.5247 86.1802 45.8499 84.855 45.8499 83.2202V77.9102C45.8499 76.2754 44.5247 74.9502 42.8899 74.9502Z" fill="#2C3D5B"/>
<path d="M42.8899 74.9502H28.5999C26.9651 74.9502 25.6399 76.2754 25.6399 77.9102V82.2602C25.6399 83.895 26.9651 85.2202 28.5999 85.2202H42.8899C44.5247 85.2202 45.8499 83.895 45.8499 82.2602V77.9102C45.8499 76.2754 44.5247 74.9502 42.8899 74.9502Z" fill="#27B1FF"/>
<path d="M64.4099 74.9502H50.1199C48.4851 74.9502 47.1599 76.2754 47.1599 77.9102V83.2202C47.1599 84.855 48.4851 86.1802 50.1199 86.1802H64.4099C66.0447 86.1802 67.3699 84.855 67.3699 83.2202V77.9102C67.3699 76.2754 66.0447 74.9502 64.4099 74.9502Z" fill="#2C3D5B"/>
<path d="M64.4099 74.9502H50.1199C48.4851 74.9502 47.1599 76.2754 47.1599 77.9102V82.2602C47.1599 83.895 48.4851 85.2202 50.1199 85.2202H64.4099C66.0447 85.2202 67.3699 83.895 67.3699 82.2602V77.9102C67.3699 76.2754 66.0447 74.9502 64.4099 74.9502Z" fill="#27B1FF"/>
<path d="M85.9399 74.9502H71.6499C70.0152 74.9502 68.6899 76.2754 68.6899 77.9102V83.2202C68.6899 84.855 70.0152 86.1802 71.6499 86.1802H85.9399C87.5747 86.1802 88.8999 84.855 88.8999 83.2202V77.9102C88.8999 76.2754 87.5747 74.9502 85.9399 74.9502Z" fill="#2C3D5B"/>
<path d="M85.9399 74.9502H71.6499C70.0152 74.9502 68.6899 76.2754 68.6899 77.9102V82.2602C68.6899 83.895 70.0152 85.2202 71.6499 85.2202H85.9399C87.5747 85.2202 88.8999 83.895 88.8999 82.2602V77.9102C88.8999 76.2754 87.5747 74.9502 85.9399 74.9502Z" fill="#27B1FF"/>
<path d="M31.8301 47.0802V45.7102H34.2401V39.9702H32.7801V38.6002H34.2401V37.2202H35.7001V45.7002H38.1101V47.0702H31.8401L31.8301 47.0802Z" fill="white"/>
<path d="M44.93 42.9402V45.0602H43.55V42.9402H41.48V41.5702H43.55V39.4702H44.93V41.5702H47.06V42.9402H44.93Z" fill="white"/>
<path d="M50.8501 47.0802V45.7102H53.2601V39.9702H51.8001V38.6002H53.2601V37.2202H54.7201V45.7002H57.1301V47.0702H50.8601L50.8501 47.0802Z" fill="white"/>
<path d="M69.22 55.51V53.7C69.22 53.33 69.31 52.99 69.5 52.69C69.69 52.39 69.93 52.13 70.24 51.94L75.05 48.82C75.14 48.77 75.21 48.69 75.27 48.59C75.33 48.49 75.36 48.38 75.36 48.26V47.7C75.36 47.51 75.28 47.35 75.13 47.19L74.59 46.67C74.44 46.54 74.26 46.47 74.05 46.47H72.5C72.28 46.47 72.1 46.54 71.96 46.67L71.39 47.21C71.24 47.36 71.16 47.53 71.16 47.72V48.52H69.61V47.72C69.61 47.44 69.67 47.16 69.78 46.9C69.9 46.64 70.06 46.4 70.28 46.2L70.87 45.65C71.09 45.43 71.34 45.28 71.62 45.17C71.9 45.07 72.19 45.02 72.49 45.02H74.06C74.35 45.02 74.64 45.07 74.93 45.18C75.22 45.29 75.46 45.44 75.68 45.66L76.25 46.18C76.47 46.4 76.63 46.64 76.75 46.9C76.86 47.16 76.92 47.43 76.92 47.7V48.32C76.92 48.7 76.82 49.05 76.63 49.36C76.44 49.67 76.19 49.92 75.89 50.12L71.1 53.18C70.89 53.32 70.79 53.5 70.79 53.72V54.06H77.2V55.52H69.24L69.22 55.51Z" fill="white"/>
</g>
</g>
<defs>
<clipPath id="clip0_1894_3005">
<rect width="80" height="80" fill="white"/>
</clipPath>
</defs>
</svg>
