<svg width="375" height="252" viewBox="0 0 375 252" fill="none" xmlns="http://www.w3.org/2000/svg">
<g clip-path="url(#clip0_2392_10700)">
<g opacity="0.7">
<path d="M42.845 33C51.8063 33 59.0708 25.7917 59.0708 16.8999C59.0708 8.00806 51.8063 0.799805 42.845 0.799805C33.8837 0.799805 26.6191 8.00806 26.6191 16.8999C26.6191 25.7917 33.8837 33 42.845 33Z" fill="url(#paint0_linear_2392_10700)"/>
<path opacity="0.37" d="M56.0214 7.50745C56.6828 8.41942 57.2326 9.38253 57.6792 10.3797C57.0951 10.3115 56.5712 10.2775 56.1331 10.3201C52.723 10.6099 48.265 16.6612 38.2752 12.6639C33.843 10.8911 30.1838 11.0701 27.478 11.7093C27.8646 10.5758 28.3799 9.47628 29.0328 8.44499C31.9446 7.66087 35.8358 7.40518 39.6839 9.5189C47.3373 13.7037 48.9607 6.86822 53.5047 7.24324C54.355 7.31142 55.1968 7.39665 56.03 7.49893L56.0214 7.50745Z" fill="#1E293B"/>
<path opacity="0.37" d="M59.0281 18.0335C58.968 18.954 58.822 19.8745 58.59 20.7694C57.4562 20.5648 56.4169 20.437 55.618 20.5052C51.8557 20.8291 46.9339 27.5111 35.8962 23.0877C32.6321 21.7836 29.7546 21.4427 27.3151 21.562C26.9801 20.4711 26.7654 19.3375 26.6709 18.2039C29.7546 17.5477 33.6199 17.5221 37.4509 19.6188C45.9117 24.2468 47.6898 16.6954 52.7061 17.113C54.8965 17.3005 57.0353 17.5562 59.0195 18.0335H59.0281Z" fill="#1E293B"/>
<path d="M58.0745 11.1127C61.4416 10.6354 64.783 9.96207 68.2017 10.6524C68.8889 10.8144 69.7564 11.4621 69.6362 12.3144C69.3012 14.6498 63.6406 16.4481 61.6564 17.2749C49.064 21.6046 36.0163 24.2638 22.6937 24.9286C21.0102 24.9627 19.3352 24.9797 17.5743 24.7155C16.8614 24.5877 16.0196 24.4343 15.3753 23.9484C12.5236 21.2125 20.0395 19.167 21.7746 18.5959C23.3637 18.1101 24.97 17.7095 26.5848 17.3516L26.7566 17.9141C23.7588 19.0732 20.6064 20.2068 17.8578 21.8091C17.4111 22.0904 16.9558 22.3802 16.638 22.7467C16.5607 22.8319 16.5693 22.9171 16.6037 22.7723C16.6208 22.6785 16.5779 22.5336 16.5349 22.474C18.3302 23.0024 20.5635 22.7637 22.5907 22.6615C25.8118 22.3972 29.0501 21.9796 32.2712 21.4597C38.7134 20.4284 45.1471 19.1585 51.4862 17.6243C54.6644 16.8913 57.8168 16.0305 60.9177 15.0844C63.2541 14.2833 65.8395 13.627 67.7894 12.1695C67.8925 12.0843 67.8753 12.0332 67.8753 12.1525C67.8667 12.2207 67.9096 12.3144 67.9354 12.3741C67.5145 12.0928 66.3206 11.9053 65.4702 11.8201C63.0393 11.607 60.5913 11.6496 58.1432 11.7008L58.0831 11.1212L58.0745 11.1127Z" fill="#94A3B8"/>
</g>
<path d="M322.991 251.216C338.45 251.216 350.982 238.781 350.982 223.442C350.982 208.102 338.45 195.667 322.991 195.667C307.532 195.667 295 208.102 295 223.442C295 238.781 307.532 251.216 322.991 251.216Z" fill="url(#paint1_linear_2392_10700)"/>
<path opacity="0.37" d="M349.848 215.593C350.391 217.456 350.753 219.328 350.896 221.21C349.991 220.775 349.152 220.425 348.409 220.236C342.69 218.789 331.959 226.118 317.978 213.966C311.773 208.566 305.712 206.798 300.947 206.316C302.233 204.68 303.701 203.195 305.35 201.881C310.534 202.249 317.025 204.027 322.076 209.645C332.14 220.784 338.707 210.571 345.893 213.749C347.237 214.345 348.561 214.95 349.848 215.593Z" fill="#64748B"/>
<path opacity="0.37" d="M348.685 234.44C348.056 235.906 347.293 237.315 346.407 238.648C344.673 237.674 343.052 236.88 341.728 236.539C335.418 234.941 323.562 243.036 308.123 229.607C303.548 225.645 299.069 223.451 295.019 222.269C295.095 220.302 295.4 218.345 295.895 216.434C301.29 217.096 307.599 219.243 312.64 224.832C323.753 237.154 330.996 225.853 338.926 229.371C342.385 230.912 345.73 232.539 348.675 234.44H348.685Z" fill="#64748B"/>
<g opacity="0.5">
<path d="M136.776 241.597L142.483 248.241C142.483 248.241 125.226 241.551 121.397 234.426L122.707 233.717L125.235 226.255L125.372 225.501C125.372 225.501 136.337 222.556 144.819 228.609L138.773 228.882C138.773 228.882 145.964 230.872 151.835 237.689L143.912 234.898L156.525 245.678L136.785 241.597H136.776Z" fill="#94A3B8"/>
<path d="M130.071 235.944L134.413 241.633C134.101 241.461 124.768 236.271 122.707 233.717L124.905 227.464C125.601 227.109 130.85 225.746 134.34 226.564L130.373 228.364C130.373 228.364 136.309 228.582 139.799 231.999L132.462 231.836L144.791 239.407L130.071 235.944Z" fill="#CBD5E1"/>
<path d="M108.115 226.918C107.776 230.245 109.342 232.072 109.342 232.072L113.839 232.953L109.269 232.472C109.269 232.472 106.786 230.754 108.115 226.918Z" fill="#F1F5F9"/>
<path d="M109.975 219.493C112.723 220.647 117.128 221.601 117.128 221.601C118.109 222.465 119.281 225.509 118.264 227.5V227.518L117.513 228.463L110.213 226.736L109.975 219.493Z" fill="url(#paint2_linear_2392_10700)"/>
<path d="M92.0669 232.562C92.0669 232.562 103.205 240.842 104.762 241.224C106.32 241.597 131.537 246.15 131.729 245.623C131.912 245.096 121.717 235.58 120.105 235.071C118.493 234.553 92.0761 232.562 92.0761 232.562H92.0669Z" fill="#94A3B8"/>
<path d="M92.0669 232.562C92.0669 232.562 105.385 240.252 106.942 240.642C108.5 241.024 129.796 245.25 129.989 244.705C130.181 244.16 120.16 235.725 118.539 235.216C116.927 234.698 92.0669 232.562 92.0669 232.562Z" fill="url(#paint3_linear_2392_10700)"/>
<path d="M98.8174 210.995C98.8174 210.995 113.033 210.586 114.591 211.113C116.148 211.64 140.751 220.556 140.577 221.056C140.394 221.556 125.601 224.255 123.924 223.865C122.239 223.483 98.8265 210.995 98.8265 210.995H98.8174Z" fill="#94A3B8"/>
<path d="M98.8638 210.849C98.8638 210.849 114.6 212.085 116.158 212.594C117.715 213.103 138.691 220.365 138.507 220.874C138.324 221.383 124.411 223.256 122.734 222.856C121.058 222.456 98.8638 210.849 98.8638 210.849Z" fill="url(#paint4_linear_2392_10700)"/>
<path d="M125.399 225.346C126.261 226.437 123.897 233.644 122.084 234.871C120.27 236.098 120.755 236.435 115.947 235.989C115.25 235.926 114.472 235.844 113.602 235.753C110.625 235.426 64.7981 228.554 60.8869 227.109C60.7678 227.064 60.6396 227.009 60.5113 226.955C60.4747 226.937 60.4472 226.928 60.4197 226.909C56.2245 224.774 51.1683 215.339 48.5852 209.377C47.486 206.678 46.8174 204.769 46.8174 204.769C46.8174 204.769 48.3196 203.706 50.5729 202.288C55.7207 199.279 64.734 195.189 69.3139 196.244C69.3597 196.244 69.3963 196.262 69.4238 196.271C69.5521 196.298 69.6711 196.335 69.7994 196.371C71.9703 197.107 85.2062 204.124 97.4162 210.231C107.886 215.094 117.614 219.384 118.859 219.966C125.116 222.792 123.824 223.356 125.39 225.328L125.399 225.346Z" fill="#F1F5F9"/>
<path d="M97.4252 210.249C107.895 215.112 117.623 219.402 118.868 219.983C125.125 222.81 124.804 222.846 125.482 224.955C126.16 227.064 125.115 232.799 122.083 234.871C119.052 236.943 120.755 236.434 115.946 235.989C116.78 234.671 117.696 232.771 118.374 230.118C119.958 223.964 97.3062 210.395 97.3062 210.395C97.3428 210.34 97.3794 210.286 97.4161 210.24L97.4252 210.249Z" fill="url(#paint5_linear_2392_10700)"/>
<path d="M60.8869 227.118C60.7678 227.073 60.6396 227.018 60.5113 226.964C60.4747 226.946 60.4564 226.918 60.4197 226.918C55.4185 226.846 47.5044 213.212 46.8174 204.778C49.8035 200.37 59.8884 194.735 69.3139 196.253C69.3597 196.253 69.3963 196.271 69.4238 196.28C69.5521 196.307 69.6711 196.344 69.7994 196.38C76.0372 202.869 68.8925 224.91 60.8777 227.109L60.8869 227.118Z" fill="#94A3B8"/>
<path d="M70.3672 223.365L72.9594 214.558L76.2661 215.676L73.8937 223.646L70.3672 223.365Z" fill="#2C3D5B"/>
<path d="M75.8171 204.905L78.8856 206.878L76.4766 214.976L73.1699 213.831L75.8171 204.905Z" fill="#2C3D5B"/>
<path d="M93.4321 232.672L104.232 240.37L96.1709 232.79L93.4321 232.672Z" fill="#F1F5F9"/>
<path d="M99.9263 211.976L112.897 211.604L101.3 212.876L99.9263 211.976Z" fill="#F1F5F9"/>
<path d="M105.733 240.524L116.597 242.851L108.207 240.433L105.733 240.524Z" fill="#F1F5F9"/>
<path d="M114.591 211.858L126.764 216.23L118.108 213.64L114.591 211.858Z" fill="#F1F5F9"/>
<path d="M95.2178 220.383C95.3918 220.438 95.4834 220.629 95.4284 220.811C95.3735 220.992 95.1903 221.083 95.0162 221.029C94.8422 220.974 94.7414 220.783 94.8056 220.602C94.8605 220.42 95.0437 220.32 95.2178 220.383Z" fill="#2C3D5B"/>
<path d="M96.9946 220.965C97.1686 221.02 97.2694 221.211 97.2144 221.383C97.1595 221.556 96.9763 221.656 96.8023 221.601C96.6282 221.547 96.5275 221.356 96.5824 221.183C96.6374 221.011 96.8206 220.911 96.9946 220.965Z" fill="#2C3D5B"/>
<path d="M98.7807 221.538C98.9548 221.592 99.0555 221.774 99.0006 221.947C98.9456 222.119 98.7624 222.21 98.5884 222.156C98.4144 222.101 98.3136 221.919 98.3686 221.747C98.4235 221.574 98.6067 221.483 98.7807 221.538Z" fill="#2C3D5B"/>
<path d="M88.623 232.035L93.0747 217.62L117.55 225.746L93.6793 218.866L88.623 232.035Z" fill="#2C3D5B"/>
<path d="M49.2446 204.369C49.2446 204.369 55.171 200.606 60.328 199.779C60.328 199.779 51.7819 204.133 49.2446 204.369Z" fill="#F1F5F9"/>
</g>
<path d="M-7.28754 167.556L-7.63477 154.238L3.38706 145.624L19.8652 154.671L-7.28754 167.556Z" fill="#64748B"/>
<path d="M-4.9164 161.916L-5.2041 154.809L1.74034 148.578L-3.57712 155.695L-4.9164 161.916Z" fill="#94A3B8"/>
<g opacity="0.3">
<path d="M281.933 18.5707L282.905 13.255L289.681 8.55957L305.137 13.57L308.659 26.0716L304.591 30.1075L281.933 18.5707Z" fill="#64748B"/>
<path d="M284.254 13.9637L295.296 18.2458L304.591 14.5347L306.337 20.3031L304.006 15.6962L294.492 20.3031L284.254 13.9637Z" fill="#94A3B8"/>
</g>
<path d="M232.034 193.123C238.428 193.123 243.611 187.98 243.611 181.635C243.611 175.291 238.428 170.147 232.034 170.147C225.64 170.147 220.457 175.291 220.457 181.635C220.457 187.98 225.64 193.123 232.034 193.123Z" fill="#E2E8F0"/>
<path d="M370.804 92.5313C379.828 92.5313 387.143 85.2726 387.143 76.3186C387.143 67.3646 379.828 60.106 370.804 60.106C361.78 60.106 354.464 67.3646 354.464 76.3186C354.464 85.2726 361.78 92.5313 370.804 92.5313Z" fill="#CBD5E1"/>
<path d="M320.159 124.386L320.794 121.029C320.823 120.862 321.072 120.871 321.091 121.049L321.329 124.307C321.359 124.671 321.637 124.976 322.004 125.035L324.97 125.488C325.139 125.518 325.139 125.754 324.97 125.783L321.954 126.246C321.607 126.295 321.339 126.561 321.29 126.906L320.784 130.115C320.754 130.282 320.506 130.282 320.486 130.115L320.129 126.906C320.089 126.561 319.831 126.276 319.484 126.217L316.915 125.744C316.746 125.715 316.756 125.478 316.915 125.449L319.504 125.055C319.841 125.006 320.099 124.75 320.169 124.425L320.159 124.386Z" fill="#64748B"/>
<path d="M122.093 46.7578L122.728 43.4011C122.758 43.2337 123.006 43.2436 123.026 43.4208L123.264 46.6791C123.294 47.0433 123.572 47.3484 123.939 47.4075L126.905 47.8603C127.074 47.8898 127.074 48.1261 126.905 48.1556L123.889 48.6183C123.542 48.6675 123.274 48.9333 123.224 49.2778L122.718 52.4869C122.689 52.6542 122.441 52.6542 122.421 52.4869L122.064 49.2778C122.024 48.9333 121.766 48.6478 121.419 48.5887L118.849 48.1162C118.681 48.0867 118.691 47.8505 118.849 47.8209L121.439 47.4272C121.776 47.378 122.034 47.122 122.103 46.7972L122.093 46.7578Z" fill="#CBD5E1"/>
<path d="M10.754 85.7391L11.8354 80.0593C11.8949 79.7738 12.3116 79.7935 12.3314 80.0888L12.7282 85.6013C12.7778 86.2214 13.2441 86.7333 13.8691 86.8318L18.889 87.5897C19.1767 87.6291 19.1767 88.0425 18.889 88.0819L13.7798 88.8596C13.2044 88.9482 12.7481 89.401 12.6489 89.9719L11.7858 95.4057C11.7362 95.6911 11.3195 95.6813 11.2898 95.3958L10.6846 89.9522C10.6152 89.3714 10.1786 88.8891 9.59333 88.7808L5.24809 87.9736C4.97031 87.9244 4.98023 87.5208 5.24809 87.4814L9.62309 86.8121C10.1886 86.7235 10.635 86.3002 10.7441 85.7391H10.754Z" fill="#64748B"/>
</g>
<defs>
<linearGradient id="paint0_linear_2392_10700" x1="42.2907" y1="36.2991" x2="43.3376" y2="-1.72358" gradientUnits="userSpaceOnUse">
<stop stop-color="#06A5FF"/>
<stop offset="0.03" stop-color="#94A3B8"/>
<stop offset="1" stop-color="#475569"/>
</linearGradient>
<linearGradient id="paint1_linear_2392_10700" x1="310.981" y1="254.693" x2="334.213" y2="193.255" gradientUnits="userSpaceOnUse">
<stop stop-color="#CBD5E1"/>
<stop offset="1" stop-color="#94A3B8"/>
</linearGradient>
<linearGradient id="paint2_linear_2392_10700" x1="118.895" y1="231.775" x2="110.109" y2="218.681" gradientUnits="userSpaceOnUse">
<stop stop-color="#DD5E00"/>
<stop offset="1" stop-color="#FF8806" stop-opacity="0"/>
</linearGradient>
<linearGradient id="paint3_linear_2392_10700" x1="118.445" y1="239.562" x2="127.946" y2="242.212" gradientUnits="userSpaceOnUse">
<stop stop-color="#1D2E43" stop-opacity="0"/>
<stop offset="1" stop-color="#1E293B"/>
</linearGradient>
<linearGradient id="paint4_linear_2392_10700" x1="125.444" y1="219.787" x2="135.012" y2="223.047" gradientUnits="userSpaceOnUse">
<stop stop-color="#1D2E43" stop-opacity="0"/>
<stop offset="1" stop-color="#1E293B"/>
</linearGradient>
<linearGradient id="paint5_linear_2392_10700" x1="113.648" y1="222.736" x2="126.399" y2="221.13" gradientUnits="userSpaceOnUse">
<stop offset="0.27" stop-color="white" stop-opacity="0"/>
<stop offset="0.67" stop-color="#94A3B8"/>
<stop offset="1" stop-color="#475569"/>
</linearGradient>
<clipPath id="clip0_2392_10700">
<rect width="375" height="252" fill="white"/>
</clipPath>
</defs>
</svg>
