<svg width="64" height="64" viewBox="0 0 64 64" fill="none" xmlns="http://www.w3.org/2000/svg">
<path d="M63.3872 31.6936C63.3872 49.2013 49.2013 63.3872 31.6936 63.3872C30.5141 63.3872 29.3507 63.323 28.2113 63.1946C22.1053 62.5287 16.5208 60.1296 11.9633 56.4949C7.60647 53.0206 4.18034 48.431 2.12627 43.1354C0.754223 39.5889 0 35.7295 0 31.6936C0 30.9153 0.024076 30.137 0.0802419 29.3667C1.26775 12.9503 14.9642 0 31.6936 0C36.2832 0 40.64 0.970862 44.5797 2.72805C46.9065 3.76311 49.089 5.079 51.0789 6.61955C53.3656 8.38476 55.4036 10.4549 57.1287 12.7817C60.2179 16.93 62.32 21.8646 63.0743 27.2244C63.2829 28.6847 63.3872 30.1771 63.3872 31.6936Z" fill="#CBD5E1"/>
<path d="M54.6574 10.6477C53.8631 12.2043 52.9644 13.6405 52.1781 14.5873C48.5193 19.0004 31.6695 35.7217 0.890628 39.5892C0.0561639 35.8822 -0.12838 31.9506 0.465373 27.9628C0.577705 27.1926 0.722131 26.4303 0.890628 25.6761C11.5541 23.3974 35.2401 17.4277 46.9948 7.34193C47.6367 6.7883 48.2465 6.29085 48.8081 5.8335C50.9585 7.19752 52.9243 8.8183 54.6655 10.6397L54.6574 10.6477Z" fill="#F1F5F9"/>
<path d="M63.0748 27.2249C57.2336 34.6227 49.0575 41.6756 44.6364 43.8179C33.8124 49.0654 21.0548 46.4336 34.687 37.9686C51.4164 27.5779 56.0461 18.3587 57.1293 12.7822C60.2184 16.9305 62.3206 21.8651 63.0748 27.2249Z" fill="#F1F5F9"/>
<path d="M36.7166 60.1938C35.0798 61.5257 29.6798 62.7613 23.7503 63.2588C17.8047 61.7022 12.6375 58.5088 8.65771 54.2482C13.2553 55.1067 23.9108 56.5029 32.9695 53.173C40.4957 50.4049 41.4185 56.3664 36.7086 60.2018L36.7166 60.1938Z" fill="#F1F5F9"/>
</svg>
