<svg width="278" height="278" viewBox="0 0 278 278" fill="none" xmlns="http://www.w3.org/2000/svg">
<path d="M278 139C278 215.784 215.784 278 139 278C133.827 278 128.725 277.719 123.728 277.155C96.9481 274.235 72.456 263.713 52.4681 247.772C33.36 232.535 18.3339 212.406 9.3253 189.181C3.30783 173.627 0 156.701 0 139C0 135.587 0.105591 132.173 0.35192 128.795C5.56002 56.7965 65.6291 0 139 0C159.129 0 178.237 4.25795 195.515 11.9645C205.72 16.504 215.292 22.2752 224.019 29.0316C234.048 36.7734 242.986 45.8524 250.552 56.0574C264.1 74.2506 273.32 95.8924 276.628 119.399C277.542 125.804 278 132.349 278 139Z" fill="#CBD5E1"/>
<path d="M239.713 46.6969C236.229 53.5238 232.288 59.8227 228.84 63.9751C212.793 83.3295 138.894 156.665 3.9059 173.627C0.24615 157.369 -0.563213 140.126 2.04084 122.637C2.5335 119.258 3.16691 115.915 3.9059 112.607C50.6732 102.614 154.554 76.4323 206.107 32.1986C208.922 29.7705 211.597 27.5888 214.06 25.583C223.491 31.5653 232.112 38.6736 239.749 46.6617L239.713 46.6969Z" fill="#F1F5F9"/>
<path d="M276.628 119.399C251.009 151.844 215.151 182.776 195.761 192.172C148.29 215.186 92.3383 203.644 152.126 166.519C225.497 120.948 245.801 80.5146 250.552 56.0576C264.1 74.2508 273.32 95.8926 276.628 119.399Z" fill="#F1F5F9"/>
<path d="M161.029 263.994C153.85 269.836 130.167 275.255 104.162 277.437C78.0862 270.61 55.4239 256.604 37.9697 237.919C58.1335 241.684 104.866 247.807 144.595 233.203C177.603 221.063 181.65 247.209 160.993 264.029L161.029 263.994Z" fill="#F1F5F9"/>
</svg>
