<svg width="32" height="32" viewBox="0 0 32 32" fill="none" xmlns="http://www.w3.org/2000/svg">
<path d="M16.7 17.8867C18.9092 17.8867 20.7 16.0959 20.7 13.8867C20.7 11.6776 18.9092 9.88672 16.7 9.88672C14.4909 9.88672 12.7 11.6776 12.7 13.8867C12.7 16.0959 14.4909 17.8867 16.7 17.8867Z" fill="#FED7AA"/>
<path d="M22.7933 21.1802C25.0025 21.1802 26.7933 19.3893 26.7933 17.1802C26.7933 14.971 25.0025 13.1802 22.7933 13.1802C20.5842 13.1802 18.7933 14.971 18.7933 17.1802C18.7933 19.3893 20.5842 21.1802 22.7933 21.1802Z" fill="#FDBA74"/>
<path d="M12.7 21.3599C14.9092 21.3599 16.7 19.569 16.7 17.3599C16.7 15.1507 14.9092 13.3599 12.7 13.3599C10.4909 13.3599 8.70001 15.1507 8.70001 17.3599C8.70001 19.569 10.4909 21.3599 12.7 21.3599Z" fill="#FDBA74"/>
<path d="M7.9267 23.1602C10.1358 23.1602 11.9267 21.3693 11.9267 19.1602C11.9267 16.951 10.1358 15.1602 7.9267 15.1602C5.71756 15.1602 3.9267 16.951 3.9267 19.1602C3.9267 21.3693 5.71756 23.1602 7.9267 23.1602Z" fill="#FB923C"/>
<path d="M18.0467 21.8867C20.2558 21.8867 22.0467 20.0959 22.0467 17.8867C22.0467 15.6776 20.2558 13.8867 18.0467 13.8867C15.8376 13.8867 14.0467 15.6776 14.0467 17.8867C14.0467 20.0959 15.8376 21.8867 18.0467 21.8867Z" fill="#FB923C"/>
<path d="M25.3333 29.18H6.66665L3.33331 19.8467H28.6666L25.3333 29.18Z" fill="#5BC3FE"/>
<path d="M30 17.1802H2V19.8468H30V17.1802Z" fill="#B6E5FF"/>
<path fill-rule="evenodd" clip-rule="evenodd" d="M9.36665 5.33333C8.43918 5.33333 7.6361 5.96422 7.42173 6.86157L7.42135 6.86318L4.57468 18.6498C4.48824 19.0077 4.12804 19.2278 3.77014 19.1414C3.41224 19.0549 3.19217 18.6947 3.27861 18.3368L6.12489 6.55177C6.12496 6.55148 6.12503 6.5512 6.1251 6.55092C6.48437 5.04872 7.82774 4 9.36665 4H22.3333C23.8742 4 25.2161 5.05729 25.5749 6.55095L28.4148 18.3372C28.501 18.6951 28.2808 19.0552 27.9228 19.1415C27.5649 19.2277 27.2048 19.0074 27.1185 18.6495L24.2785 6.86283L24.2784 6.86239C24.0639 5.96938 23.2591 5.33333 22.3333 5.33333H9.36665Z" fill="#06A5FF"/>
</svg>
