<svg width="150" height="150" viewBox="0 0 150 150" fill="none" xmlns="http://www.w3.org/2000/svg">
<g clip-path="url(#clip0_3007_12919)">
<path d="M127.444 8.33337H22.5556C14.7009 8.33337 8.33337 14.7009 8.33337 22.5556V127.444C8.33337 135.299 14.7009 141.667 22.5556 141.667H127.444C135.299 141.667 141.667 135.299 141.667 127.444V22.5556C141.667 14.7009 135.299 8.33337 127.444 8.33337Z" fill="#1E293B"/>
<mask id="mask0_3007_12919" style="mask-type:luminance" maskUnits="userSpaceOnUse" x="8" y="8" width="134" height="134">
<path d="M127.444 8.33337H22.5556C14.7009 8.33337 8.33337 14.7009 8.33337 22.5556V127.444C8.33337 135.299 14.7009 141.667 22.5556 141.667H127.444C135.299 141.667 141.667 135.299 141.667 127.444V22.5556C141.667 14.7009 135.299 8.33337 127.444 8.33337Z" fill="white"/>
</mask>
<g mask="url(#mask0_3007_12919)">
<path d="M21.7289 66.8401C32.0873 66.8401 40.4845 58.4429 40.4845 48.0845C40.4845 37.7261 32.0873 29.329 21.7289 29.329C11.3705 29.329 2.97339 37.7261 2.97339 48.0845C2.97339 58.4429 11.3705 66.8401 21.7289 66.8401Z" fill="url(#paint0_linear_3007_12919)"/>
<path opacity="0.37" d="M30.6712 31.6045C31.8179 32.2267 32.8845 32.9556 33.8534 33.7823C33.2134 34.0045 32.6534 34.2356 32.209 34.5023C28.8134 36.5289 27.249 45.1156 14.8223 45.9512C9.31121 46.3245 5.59565 48.3601 3.11565 50.3867C2.93787 49 2.9201 47.5867 3.07121 46.1823C5.70232 43.8978 9.62232 41.6667 14.689 41.9423C24.7779 42.4756 23.0001 34.4934 27.9157 32.6C28.8401 32.2445 29.7557 31.9067 30.6712 31.6045Z" fill="#1E293B"/>
<path opacity="0.37" d="M39.1334 41.1245C39.5334 42.1201 39.8534 43.1601 40.0667 44.209C38.7778 44.5645 37.6401 44.9556 36.8401 45.4267C33.089 47.6578 31.3556 57.1423 17.6401 58.0667C13.5867 58.3423 10.4134 59.4267 7.93339 60.7867C7.02673 59.809 6.23561 58.7334 5.56006 57.5956C8.43117 55.3556 12.4401 53.3823 17.4889 53.649C28.6356 54.2445 26.6534 45.4267 32.0934 43.3378C34.4667 42.4312 36.8223 41.6223 39.1245 41.1245H39.1334Z" fill="#1E293B"/>
<path d="M115.116 126.36C126.849 126.36 136.36 116.849 136.36 105.116C136.36 93.3827 126.849 83.8712 115.116 83.8712C103.383 83.8712 93.8712 93.3827 93.8712 105.116C93.8712 116.849 103.383 126.36 115.116 126.36Z" fill="url(#paint1_linear_3007_12919)"/>
<path opacity="0.37" d="M136.2 102.467C136.378 103.933 136.413 105.391 136.298 106.831C135.676 106.387 135.089 106.022 134.556 105.791C130.449 103.996 121.507 108.227 112.529 97.3378C108.547 92.5112 104.227 90.4312 100.707 89.4889C101.871 88.4134 103.151 87.4623 104.547 86.6801C108.387 87.5956 113.027 89.7289 116.12 94.5823C122.289 104.227 128.467 97.3112 133.453 100.591C134.387 101.204 135.311 101.827 136.191 102.467H136.2Z" fill="#1E293B"/>
<path opacity="0.37" d="M133.018 116.547C132.369 117.578 131.622 118.547 130.796 119.445C129.622 118.493 128.502 117.702 127.551 117.276C123.027 115.293 113.142 119.96 103.231 107.933C100.298 104.378 97.2046 102.182 94.3157 100.796C94.6179 99.3201 95.0801 97.8801 95.6934 96.5023C99.649 97.6668 104.12 100.058 107.205 104.885C114.013 115.542 120.831 107.898 126.342 111.525C128.742 113.107 131.045 114.751 133.018 116.538V116.547Z" fill="#1E293B"/>
<path d="M136.28 107.925C140.449 109.471 144.725 110.787 148.218 113.72C148.911 114.333 149.498 115.631 148.822 116.547C146.965 119.045 139.32 117.587 136.52 117.302C119.302 114.449 102.618 109.365 86.8667 101.8C84.9112 100.787 82.9734 99.7646 81.1156 98.3512C80.369 97.7557 79.4979 97.0535 79.0712 96.0846C77.5067 91.1335 87.4534 93.4624 89.8001 93.8801C91.9334 94.3157 94.0312 94.849 96.1201 95.4446L95.9601 96.2001C91.7734 95.6668 87.4356 95.009 83.2579 95.1512C82.5645 95.2046 81.8623 95.2401 81.2579 95.4801C81.1156 95.5335 81.0712 95.6312 81.1956 95.4801C81.2756 95.3824 81.3201 95.1957 81.3112 95.089C83.0445 96.8312 85.7645 97.9424 88.1645 99.089C92.0401 100.796 96.0312 102.333 100.058 103.747C108.12 106.591 116.316 109.133 124.582 111.32C128.707 112.458 132.867 113.427 137.027 114.28C140.218 114.813 143.605 115.676 146.769 115.205C146.938 115.169 146.956 115.098 146.876 115.231C146.813 115.311 146.813 115.445 146.805 115.525C146.502 114.938 145.249 113.969 144.316 113.347C141.658 111.578 138.813 110.102 135.96 108.627L136.262 107.916L136.28 107.925Z" fill="#475569"/>
<path d="M121.596 39.4978L117.027 78.4489H28.7068L24.4045 39.4978H121.596Z" fill="#F1F5F9"/>
<path d="M91.5601 39.4978V78.4489H28.7068L24.4045 39.4978H91.5601Z" fill="#FB7200"/>
<path d="M86.1557 112.769H63.6312L69.5868 78.4401H82.1823L86.1557 112.769Z" fill="#F1F5F9"/>
<path d="M86.1557 112.769H63.6312L69.5868 78.4401H82.1823L86.1557 112.769Z" fill="url(#paint2_linear_3007_12919)"/>
<path d="M35.9156 112.769H116.476L128.271 162.858H18.449L35.9156 112.769Z" fill="#F1F5F9"/>
<path d="M35.9156 112.769H116.476L128.271 162.858H18.449L35.9156 112.769Z" fill="url(#paint3_linear_3007_12919)"/>
<path d="M119.587 56.6178L96.9734 78.4489H117.027L119.587 56.6178Z" fill="url(#paint4_linear_3007_12919)"/>
<path d="M83.1157 107.88L80.5291 85.0446V107.88H83.1157Z" fill="#F1F5F9"/>
<path d="M78.9557 118.431H41.729L30.0668 152.76L45.249 122.396L78.9557 118.431Z" fill="#334155"/>
<path d="M51.9778 64.0134H47.0978L45.1245 51.3467L51.3467 47.7911L51.9778 64.0134Z" fill="#FED7AA"/>
<path d="M64.6801 64.0134H59.7912L59.3468 52.2357L65.569 50.4579L64.6801 64.0134Z" fill="#FED7AA"/>
<path d="M73.8267 73.1245H71.1601V68.8668H40.8756V61.969H43.5423V66.2001H73.8267V73.1245Z" fill="#FED7AA"/>
<path d="M45.1245 143.791H31.7912L28.2356 94.9022H45.1245V143.791Z" fill="#F1F5F9"/>
<path d="M45.1245 94.9022V143.791H31.7912L30.76 129.569L30.5023 126.013L29.9778 118.902L29.6578 114.458L29.2045 108.236L28.8845 103.791L28.2356 94.9022H45.1245Z" fill="url(#paint5_linear_3007_12919)"/>
<path d="M32.6801 84.2356C32.1823 85.489 32.4756 86.7334 33.1778 87.8801C33.569 88.5556 34.0934 89.1867 34.6801 89.7734C36.6534 91.7556 39.2223 93.1245 39.2223 93.1245L30.1734 93.8712C30.1734 93.8712 29.1512 93.1423 28.0667 91.809C27.3378 90.9201 26.5823 89.7734 26.0845 88.3867C25.3112 86.2979 25.1245 83.6845 26.4578 80.6801C27.0801 79.2845 27.8178 78.1912 28.6445 77.329C33.8445 71.889 42.209 75.9512 42.209 75.9512L40.0667 81.7112C40.0667 81.7112 36.6801 80.5556 34.3334 82.1201C33.7467 82.5112 33.2312 83.0801 32.8401 83.8712C32.7867 83.9867 32.7334 84.1112 32.6801 84.2356Z" fill="#F1F5F9"/>
<path d="M52.0578 87.7912C51.9245 88.4579 51.7112 89.1423 51.3734 89.8267C51.1334 90.3334 50.8312 90.849 50.4578 91.3467C49.7556 92.289 48.9823 92.9734 48.2267 93.4801C47.4267 94.0312 46.6356 94.3601 45.9778 94.5645C44.9378 94.8934 44.2089 94.8934 44.1912 94.8934L40.4845 93.1245C40.4845 93.1245 41.8712 92.5201 43.3556 91.5067C43.6312 91.3112 43.9067 91.1156 44.1823 90.8934C44.9289 90.3067 45.6312 89.6223 46.1467 88.8667C46.3867 88.5201 46.5823 88.1645 46.7156 87.7912C47.0356 86.9379 47.0623 86.0134 46.6267 85.0445L51.3467 81.569C51.3467 81.569 52.7334 84.449 52.0578 87.7912Z" fill="#F1F5F9"/>
<path d="M46.0135 93.1245H27.3468V98.4578H46.0135V93.1245Z" fill="#64748B"/>
<path d="M34.3334 82.1201C33.7468 82.5112 33.2312 83.0801 32.8401 83.8712L26.4579 80.6801C27.0801 79.2845 27.8179 78.1912 28.6446 77.329L34.3334 82.1201Z" fill="#CBD5E1"/>
<path d="M34.6802 89.7735L28.0668 91.809C27.3379 90.9201 26.5824 89.7735 26.0846 88.3868L33.1779 87.8801C33.569 88.5557 34.0935 89.1868 34.6802 89.7735Z" fill="#CBD5E1"/>
<path d="M52.0578 87.7911C51.9245 88.4578 51.7112 89.1423 51.3734 89.8267L46.1467 88.8667C46.3867 88.52 46.5823 88.1645 46.7156 87.7911H52.0578Z" fill="#CBD5E1"/>
<path d="M48.2268 93.4801C47.4268 94.0312 46.6357 94.3601 45.9779 94.5645L43.3557 91.5068C43.6313 91.3112 43.9068 91.1157 44.1824 90.8934L48.2268 93.4801Z" fill="#CBD5E1"/>
<path d="M45.1245 103.791V106.458L29.2045 108.236L28.8845 103.791H45.1245Z" fill="#CBD5E1"/>
<path d="M45.1245 114.458V117.125L29.9778 118.902L29.6578 114.458H45.1245Z" fill="#CBD5E1"/>
<path d="M45.1245 126.013V127.791L30.7601 129.569L30.5023 126.013H45.1245Z" fill="#CBD5E1"/>
<path d="M81.4712 56.6801C79.9067 56.6801 79.1156 55.8978 79.1156 54.3245V52.8578C79.1156 51.329 79.8978 50.5645 81.4712 50.5645H82.8845C84.3778 50.5645 85.1156 51.329 85.1156 52.8578V54.3245C85.1156 55.889 84.3689 56.6801 82.8845 56.6801H81.4712ZM82.1734 49.2667C80.5289 49.2667 79.7023 48.4401 79.7023 46.7956V17.6934C79.7023 16.049 80.5289 15.2223 82.1734 15.2223C83.8178 15.2223 84.6445 16.049 84.6445 17.6934V46.8045C84.6445 48.449 83.8178 49.2756 82.1734 49.2756V49.2667Z" fill="#F1F5F9"/>
<path d="M82.8845 57.1245H81.4711C79.6667 57.1245 78.6711 56.1289 78.6711 54.3245V52.8578C78.6711 51.0889 79.6667 50.1201 81.4711 50.1201H82.8845C84.6089 50.1201 85.56 51.0889 85.56 52.8578V54.3245C85.56 56.1289 84.6089 57.1245 82.8845 57.1245ZM81.4711 51.0089C80.1556 51.0089 79.56 51.5778 79.56 52.8578V54.3245C79.56 55.6401 80.1467 56.2356 81.4711 56.2356H82.8845C84.12 56.2356 84.6711 55.6489 84.6711 54.3245V52.8578C84.6711 51.5778 84.12 51.0089 82.8845 51.0089H81.4711ZM82.1734 49.7112C80.2978 49.7112 79.2578 48.6801 79.2578 46.7956V17.6934C79.2578 15.8178 80.2889 14.7778 82.1734 14.7778C84.0578 14.7778 85.0889 15.8089 85.0889 17.6934V46.8045C85.0889 48.6801 84.0578 49.7201 82.1734 49.7201V49.7112ZM82.1734 15.6667C80.7689 15.6667 80.1467 16.2889 80.1467 17.6934V46.8045C80.1467 48.2089 80.7689 48.8312 82.1734 48.8312C83.5778 48.8312 84.2 48.2089 84.2 46.8045V17.6934C84.2 16.2889 83.5778 15.6667 82.1734 15.6667Z" fill="#FB7200"/>
<path d="M104.058 46.9201C102.413 46.9201 101.587 46.0935 101.587 44.449C101.587 42.369 101.942 40.7068 102.662 39.4535C103.373 38.2001 104.236 37.2135 105.231 36.4846C106.227 35.7557 107.151 35.1601 107.996 34.689C108.858 34.1824 109.587 33.7113 110.182 33.2757C110.778 32.849 111.231 32.3157 111.533 31.6846C111.836 31.0535 111.987 30.1913 111.987 29.0979C111.987 26.769 111.578 25.1957 110.769 24.3779C109.951 23.569 108.387 23.1601 106.049 23.1601H102.111C99.8001 23.1601 98.2268 23.5779 97.409 24.4224C96.5823 25.2668 96.1734 26.8224 96.1734 29.0979C96.1734 30.7424 95.3468 31.569 93.7023 31.569C92.0579 31.569 91.2312 30.7424 91.2312 29.0979C91.2312 25.4535 92.129 22.7246 93.9334 20.929C95.7379 19.1335 98.4579 18.2268 102.111 18.2268H106.049C109.738 18.2268 112.467 19.1157 114.253 20.9024C116.04 22.689 116.929 25.4179 116.929 29.1068C116.929 31.1868 116.573 32.849 115.853 34.1024C115.133 35.3557 114.28 36.3513 113.285 37.0713C112.289 37.8001 111.365 38.3957 110.52 38.8668C109.658 39.3735 108.929 39.8446 108.333 40.2801C107.738 40.7157 107.285 41.2401 106.982 41.8713C106.68 42.5024 106.529 43.3646 106.529 44.4579C106.529 46.1024 105.702 46.929 104.058 46.929V46.9201ZM103.356 56.6801C101.791 56.6801 101 55.8979 101 54.3246V52.8579C101 51.329 101.782 50.5646 103.356 50.5646H104.769C106.262 50.5646 107 51.329 107 52.8579V54.3246C107 55.889 106.253 56.6801 104.769 56.6801H103.356Z" fill="#F1F5F9"/>
<path d="M104.76 57.1245H103.347C101.542 57.1245 100.547 56.129 100.547 54.3245V52.8579C100.547 51.089 101.542 50.1201 103.347 50.1201H104.76C106.484 50.1201 107.436 51.089 107.436 52.8579V54.3245C107.436 56.129 106.484 57.1245 104.76 57.1245ZM103.347 51.009C102.031 51.009 101.436 51.5779 101.436 52.8579V54.3245C101.436 55.6401 102.022 56.2356 103.347 56.2356H104.76C105.996 56.2356 106.547 55.649 106.547 54.3245V52.8579C106.547 51.5779 105.996 51.009 104.76 51.009H103.347ZM104.049 47.3645C102.173 47.3645 101.133 46.3334 101.133 44.449C101.133 42.2979 101.516 40.5467 102.262 39.2312C103.009 37.9245 103.916 36.8845 104.956 36.1201C105.969 35.3823 106.911 34.769 107.764 34.2979C108.6 33.8001 109.329 33.3379 109.916 32.9112C110.449 32.529 110.858 32.049 111.124 31.489C111.4 30.929 111.533 30.1201 111.533 29.0979C111.533 26.9023 111.169 25.4179 110.44 24.689C109.72 23.969 108.236 23.5956 106.031 23.5956H102.093C99.9156 23.5956 98.44 23.9779 97.7111 24.7245C96.9734 25.4801 96.6 26.9468 96.6 29.089C96.6 30.9645 95.5689 32.0045 93.6845 32.0045C91.8 32.0045 90.7689 30.9734 90.7689 29.089C90.7689 25.3379 91.72 22.4845 93.6045 20.6001C95.4889 18.7156 98.3423 17.7645 102.093 17.7645H106.031C109.818 17.7645 112.689 18.7067 114.547 20.5734C116.404 22.4401 117.356 25.3023 117.356 29.089C117.356 31.2312 116.973 32.9912 116.227 34.3068C115.48 35.6134 114.573 36.6534 113.524 37.4179C112.52 38.1468 111.569 38.7601 110.716 39.2401C109.88 39.7379 109.151 40.2001 108.564 40.6268C108.031 41.009 107.622 41.489 107.356 42.049C107.08 42.609 106.947 43.4179 106.947 44.4401C106.947 46.3156 105.916 47.3556 104.031 47.3556L104.049 47.3645ZM102.111 22.7156H106.049C108.529 22.7156 110.173 23.1601 111.08 24.0668C111.987 24.9734 112.431 26.6268 112.431 29.0979C112.431 30.2712 112.271 31.1868 111.933 31.8801C111.596 32.5734 111.098 33.1601 110.44 33.6312C109.836 34.0667 109.089 34.5468 108.218 35.0623C107.391 35.5245 106.476 36.1201 105.489 36.8312C104.547 37.5156 103.72 38.4668 103.044 39.6579C102.369 40.8401 102.031 42.449 102.031 44.4401C102.031 45.8445 102.653 46.4668 104.058 46.4668C105.462 46.4668 106.084 45.8445 106.084 44.4401C106.084 43.2668 106.244 42.3512 106.582 41.6579C106.92 40.9645 107.418 40.3779 108.076 39.9068C108.68 39.4712 109.436 38.9823 110.298 38.4756C111.133 38.0134 112.049 37.4179 113.027 36.7068C113.969 36.0223 114.796 35.0712 115.471 33.8801C116.147 32.6979 116.484 31.089 116.484 29.0979C116.484 25.5512 115.631 22.9023 113.942 21.2134C112.253 19.5245 109.596 18.6712 106.058 18.6712H102.12C98.6089 18.6712 95.9689 19.5334 94.2623 21.249C92.5556 22.9556 91.6845 25.6045 91.6845 29.1068C91.6845 30.5112 92.3067 31.1334 93.7111 31.1334C95.1156 31.1334 95.7378 30.5112 95.7378 29.1068C95.7378 26.689 96.1823 25.0623 97.0978 24.1201C98.0134 23.1779 99.6578 22.7245 102.12 22.7245L102.111 22.7156Z" fill="#FB7200"/>
</g>
</g>
<defs>
<linearGradient id="paint0_linear_3007_12919" x1="22.8075" y1="-13.1907" x2="22.8075" y2="59.2739" gradientUnits="userSpaceOnUse">
<stop stop-color="#06A5FF"/>
<stop offset="1" stop-color="#06A5FF" stop-opacity="0"/>
</linearGradient>
<linearGradient id="paint1_linear_3007_12919" x1="116.337" y1="35.7091" x2="116.337" y2="117.79" gradientUnits="userSpaceOnUse">
<stop stop-color="#06A5FF"/>
<stop offset="1" stop-color="#06A5FF" stop-opacity="0"/>
</linearGradient>
<linearGradient id="paint2_linear_3007_12919" x1="74.5823" y1="108.191" x2="83.6046" y2="73.6312" gradientUnits="userSpaceOnUse">
<stop stop-color="#1D2E43" stop-opacity="0"/>
<stop offset="1" stop-color="#1E293B"/>
</linearGradient>
<linearGradient id="paint3_linear_3007_12919" x1="104.911" y1="190.413" x2="2.76897" y2="46.9556" gradientUnits="userSpaceOnUse">
<stop offset="0.27" stop-color="white" stop-opacity="0"/>
<stop offset="0.67" stop-color="#F7AB00"/>
<stop offset="1" stop-color="#004794"/>
</linearGradient>
<linearGradient id="paint4_linear_3007_12919" x1="96.7512" y1="91.1245" x2="125.178" y2="55.9689" gradientUnits="userSpaceOnUse">
<stop offset="0.27" stop-color="white" stop-opacity="0"/>
<stop offset="0.67" stop-color="#F7AB00"/>
<stop offset="1" stop-color="#004794"/>
</linearGradient>
<linearGradient id="paint5_linear_3007_12919" x1="36.2445" y1="106.307" x2="45.08" y2="158.316" gradientUnits="userSpaceOnUse">
<stop offset="0.27" stop-color="white" stop-opacity="0"/>
<stop offset="0.67" stop-color="#F7AB00"/>
<stop offset="1" stop-color="#004794"/>
</linearGradient>
<clipPath id="clip0_3007_12919">
<rect width="133.333" height="133.333" fill="white" transform="translate(8.33337 8.33337)"/>
</clipPath>
</defs>
</svg>
