<svg width="146" height="72" viewBox="0 0 146 72" fill="none" xmlns="http://www.w3.org/2000/svg">
<g opacity="0.2">
<g clip-path="url(#clip0_2392_10877)">
<path d="M164.66 16.8889H114.005C109.555 16.8889 105.948 20.4905 105.948 24.9334V90.6222C105.948 95.0651 109.555 98.6667 114.005 98.6667H164.66C169.109 98.6667 172.716 95.0651 172.716 90.6222V24.9334C172.716 20.4905 169.109 16.8889 164.66 16.8889Z" fill="#64748B"/>
<path d="M150.389 24H116.702C114.696 24 113.07 25.6237 113.07 27.6267V42.5956C113.07 44.5985 114.696 46.2222 116.702 46.2222H150.389C152.395 46.2222 154.021 44.5985 154.021 42.5956V27.6267C154.021 25.6237 152.395 24 150.389 24Z" fill="#2C3D5B"/>
<path d="M138.406 49.04L114.877 35.4755C113.284 34.5511 111.281 35.7066 111.281 37.5466V64.6666C111.281 66.5066 113.275 67.6622 114.877 66.7377L138.406 53.1733C140 52.2488 140 49.9466 138.406 49.0311V49.04Z" fill="#CBD5E1"/>
<path d="M122.382 49.04L98.8527 35.4755C97.2592 34.5511 95.2561 35.7066 95.2561 37.5466V64.6666C95.2561 66.5066 97.2503 67.6622 98.8527 66.7377L122.382 53.1733C123.975 52.2488 123.975 49.9466 122.382 49.0311V49.04Z" fill="#2C3D5B"/>
</g>
</g>
<defs>
<clipPath id="clip0_2392_10877">
<rect width="146" height="72" rx="12" fill="white"/>
</clipPath>
</defs>
</svg>
