<svg width="32" height="32" viewBox="0 0 32 32" fill="none" xmlns="http://www.w3.org/2000/svg">
<path d="M9.07335 22.4666C11.0867 24.4799 8.98002 27.8399 3.75335 27.7866C3.70668 22.5599 7.06002 20.4532 9.07335 22.4666Z" fill="#FDBA74"/>
<path d="M27.3333 4.20654C27.3333 4.20654 19.74 4.47988 16.9 7.31321C14.06 10.1532 7.64001 18.4465 7.64001 18.4465L10.3667 21.1732L13.0933 23.8999C13.0933 23.8999 21.3933 17.4799 24.2267 14.6399C27.06 11.7999 27.3333 4.20654 27.3333 4.20654Z" fill="#27B1FF"/>
<path d="M13.24 11.4668L4.94667 14.4401C4.34 14.6601 4.31333 15.5068 4.90667 15.7268L8.65333 17.1268L13.24 11.4668Z" fill="#FB923C"/>
<path d="M20.08 18.3066L17.1067 26.6C16.8867 27.2066 16.04 27.2333 15.82 26.64L14.42 22.8933L20.08 18.3066Z" fill="#FB923C"/>
<path d="M21.96 12.2469C23.4328 12.2469 24.6267 11.053 24.6267 9.58024C24.6267 8.10748 23.4328 6.91357 21.96 6.91357C20.4872 6.91357 19.2933 8.10748 19.2933 9.58024C19.2933 11.053 20.4872 12.2469 21.96 12.2469Z" fill="#D0EEFF"/>
</svg>
