<svg width="287" height="270" viewBox="0 0 287 270" fill="none" xmlns="http://www.w3.org/2000/svg">
<g clip-path="url(#clip0_1665_7553)">
<path d="M89.0281 217.842L55.4108 114.907L143.417 51.2942L231.423 114.907L197.806 217.842H89.0281Z" fill="#0F172A" stroke="#475569"/>
<path d="M186.795 202.773H100.039L73.228 120.676L73.5492 120.445L143.417 69.937L143.738 70.1684L213.606 120.676L186.795 202.773ZM100.836 201.671H185.987L212.299 121.095L143.406 71.2923L74.5126 121.095L100.825 201.671H100.836Z" fill="#475569"/>
<path d="M175.023 186.642H111.811L92.2759 126.824L92.597 126.593L143.417 89.8579L194.558 126.824L175.023 186.642ZM112.608 185.54H174.215L193.252 127.243L143.417 91.2132L93.5827 127.243L112.619 185.54H112.608Z" fill="#475569"/>
<path d="M163.251 170.523H123.583L111.324 132.995L111.645 132.763L143.406 109.801L175.499 132.995L163.24 170.523H163.251ZM124.391 169.421H162.443L174.204 133.413L143.417 111.157L112.631 133.413L124.391 169.421Z" fill="#475569"/>
<path d="M151.479 154.392H135.366L130.382 139.143L143.417 129.722L156.451 139.143L151.468 154.392H151.479ZM136.163 153.29H150.67L155.156 139.561L143.417 131.077L131.678 139.561L136.163 153.29Z" fill="#475569"/>
<path d="M144.148 144.795L143.428 144.564L54.645 115.222L54.9994 114.176L143.04 143.275V51.3057H144.148V144.795Z" fill="#475569"/>
<path d="M89.2969 219.014L88.3999 218.364L143.594 143.099L144.048 143.716L198.479 218.023L197.582 218.662L143.594 144.972L89.2969 219.014Z" fill="#475569"/>
<path d="M232.001 114.182L143.433 143.547L143.783 144.592L232.351 115.227L232.001 114.182Z" fill="#475569"/>
<path d="M143.594 54.6109C145.429 54.6109 146.917 53.131 146.917 51.3055C146.917 49.4799 145.429 48 143.594 48C141.759 48 140.272 49.4799 140.272 51.3055C140.272 53.131 141.759 54.6109 143.594 54.6109Z" fill="white"/>
<path d="M54.8223 118.01C56.6572 118.01 58.1446 116.53 58.1446 114.704C58.1446 112.879 56.6572 111.399 54.8223 111.399C52.9874 111.399 51.5 112.879 51.5 114.704C51.5 116.53 52.9874 118.01 54.8223 118.01Z" fill="white"/>
<path d="M232.178 118.01C234.013 118.01 235.5 116.53 235.5 114.704C235.5 112.879 234.013 111.399 232.178 111.399C230.343 111.399 228.855 112.879 228.855 114.704C228.855 116.53 230.343 118.01 232.178 118.01Z" fill="white"/>
<path d="M198.024 221.648C199.859 221.648 201.347 220.168 201.347 218.342C201.347 216.517 199.859 215.037 198.024 215.037C196.19 215.037 194.702 216.517 194.702 218.342C194.702 220.168 196.19 221.648 198.024 221.648Z" fill="white"/>
<path d="M88.8428 222C90.6777 222 92.1651 220.52 92.1651 218.695C92.1651 216.869 90.6777 215.389 88.8428 215.389C87.008 215.389 85.5205 216.869 85.5205 218.695C85.5205 220.52 87.008 222 88.8428 222Z" fill="white"/>
</g>
<path d="M258.167 126.115C266.774 126.115 273.751 119.139 273.751 110.532C273.751 101.926 266.774 94.9487 258.167 94.9487C249.561 94.9487 242.584 101.926 242.584 110.532C242.584 119.139 249.561 126.115 258.167 126.115Z" fill="#5BC3FE"/>
<path d="M258.168 122.574C264.818 122.574 270.209 117.183 270.209 110.532C270.209 103.882 264.818 98.4907 258.168 98.4907C251.517 98.4907 246.126 103.882 246.126 110.532C246.126 117.183 251.517 122.574 258.168 122.574Z" fill="#D0EEFF"/>
<path d="M258.167 119.032C262.862 119.032 266.667 115.227 266.667 110.532C266.667 105.838 262.862 102.032 258.167 102.032C253.473 102.032 249.667 105.838 249.667 110.532C249.667 115.227 253.473 119.032 258.167 119.032Z" fill="#5BC3FE"/>
<path d="M258.167 115.49C260.906 115.49 263.126 113.27 263.126 110.532C263.126 107.794 260.906 105.574 258.167 105.574C255.429 105.574 253.209 107.794 253.209 110.532C253.209 113.27 255.429 115.49 258.167 115.49Z" fill="#D0EEFF"/>
<path d="M255.108 107.522L257.608 109.243L263.622 103.676C264.054 103.279 264.727 103.3 265.123 103.732C265.492 104.129 265.499 104.731 265.159 105.135L258.996 112.558L258.925 112.643C258.345 113.359 257.211 113.359 256.623 112.643L253.67 109.087C252.876 108.145 254.109 106.814 255.101 107.522H255.108Z" fill="#FB923C"/>
<path d="M18.3851 108.3L17.2588 105.637C16.8622 104.702 16.7559 103.675 16.9472 102.676L17.2659 101.018C17.2659 100.261 16.6497 99.6514 15.8988 99.6514C15.148 99.6514 14.5318 100.268 14.5318 101.018L14.8505 102.676C15.0418 103.675 14.9355 104.702 14.5388 105.637L13.4126 108.3C12.9097 109.483 12.8743 110.808 13.3063 112.012L14.2697 114.725H15.9059H17.5422L18.5055 112.012C18.9376 110.808 18.8951 109.483 18.3993 108.3H18.3851Z" fill="#B6E5FF"/>
<path d="M14.8648 102.817C14.9568 103.398 14.9568 103.986 14.8506 104.567H16.9402C16.8339 103.993 16.8339 103.398 16.926 102.817H14.8718H14.8648Z" fill="#06A5FF"/>
<path d="M40.2445 108.3L39.1182 105.637C38.7216 104.702 38.6153 103.675 38.8066 102.676L39.1253 101.018C39.1253 100.261 38.5091 99.6514 37.7582 99.6514C37.0074 99.6514 36.3911 100.268 36.3911 101.018L36.7099 102.676C36.9011 103.675 36.7949 104.702 36.3982 105.637L35.272 108.3C34.7691 109.483 34.7336 110.808 35.1657 112.012L36.1291 114.725H37.7653H39.4016L40.3649 112.012C40.797 110.808 40.7545 109.483 40.2586 108.3H40.2445Z" fill="#B6E5FF"/>
<path d="M36.7241 102.817C36.8162 103.398 36.8162 103.986 36.71 104.567H38.7995C38.6933 103.993 38.6933 103.398 38.7854 102.817H36.7312H36.7241Z" fill="#06A5FF"/>
<path d="M37.5878 108.364L36.0366 104.709C35.4912 103.427 35.3424 102.01 35.6045 100.643L36.0437 98.3693C36.0437 97.328 35.2007 96.4922 34.1666 96.4922C33.1324 96.4922 32.2895 97.3351 32.2895 98.3693L32.7287 100.643C32.9908 102.01 32.842 103.427 32.2966 104.709L30.7453 108.364C30.0583 109.979 30.0087 111.799 30.5966 113.457L31.9212 117.176H34.1666H36.412L37.7366 113.457C38.3245 111.799 38.2749 109.986 37.5878 108.364Z" fill="#98D6FA"/>
<path d="M32.7571 100.841C32.8846 101.642 32.8846 102.449 32.7358 103.235H35.5975C35.4558 102.449 35.4488 101.635 35.5763 100.841H32.7571Z" fill="#06A5FF"/>
<path d="M22.8969 108.364L21.3457 104.709C20.8002 103.427 20.6515 102.01 20.9136 100.643L21.3527 98.3693C21.3527 97.328 20.5098 96.4922 19.4757 96.4922C18.4415 96.4922 17.5986 97.3351 17.5986 98.3693L18.0377 100.643C18.2998 102.01 18.1511 103.427 17.6057 104.709L16.0544 108.364C15.3673 109.979 15.3177 111.799 15.9057 113.457L17.2302 117.176H19.4757H21.7211L23.0457 113.457C23.6336 111.799 23.584 109.986 22.8969 108.364Z" fill="#98D6FA"/>
<path d="M18.0662 100.841C18.1937 101.642 18.1937 102.449 18.0449 103.235H20.9066C20.7649 102.449 20.7578 101.635 20.8853 100.841H18.0662Z" fill="#06A5FF"/>
<path d="M31.3971 108.902L29.3217 104.008C28.5921 102.294 28.3938 100.395 28.748 98.5677L29.3359 95.5219C29.3359 94.1336 28.2096 93.0073 26.8213 93.0073C25.433 93.0073 24.3067 94.1336 24.3067 95.5219L24.8946 98.5677C25.2488 100.395 25.0505 102.294 24.3209 104.008L22.2455 108.902C21.3246 111.07 21.2538 113.499 22.0471 115.724L23.825 120.703H26.8284H29.8317L31.6096 115.724C32.403 113.506 32.3321 111.07 31.4113 108.902H31.3971Z" fill="#5BC3FE"/>
<path d="M24.9302 98.8296C25.1073 99.8992 25.1002 100.983 24.9019 102.038H28.7339C28.5427 100.983 28.5356 99.8992 28.7056 98.8296H24.9231H24.9302Z" fill="#06A5FF"/>
<path d="M27.1115 123.933C32.2636 123.933 36.4402 119.756 36.4402 114.604C36.4402 109.452 32.2636 105.275 27.1115 105.275C21.9593 105.275 17.7827 109.452 17.7827 114.604C17.7827 119.756 21.9593 123.933 27.1115 123.933Z" fill="#FB923C"/>
<path d="M26.8212 111.651C27.5371 111.651 28.1174 111.07 28.1174 110.354C28.1174 109.638 27.5371 109.058 26.8212 109.058C26.1053 109.058 25.5249 109.638 25.5249 110.354C25.5249 111.07 26.1053 111.651 26.8212 111.651Z" fill="#FED7AA"/>
<path d="M25.0082 114.54C25.7241 114.54 26.3044 113.96 26.3044 113.244C26.3044 112.528 25.7241 111.948 25.0082 111.948C24.2923 111.948 23.7119 112.528 23.7119 113.244C23.7119 113.96 24.2923 114.54 25.0082 114.54Z" fill="#FED7AA"/>
<path d="M28.7128 114.54C29.4287 114.54 30.009 113.96 30.009 113.244C30.009 112.528 29.4287 111.948 28.7128 111.948C27.9969 111.948 27.4165 112.528 27.4165 113.244C27.4165 113.96 27.9969 114.54 28.7128 114.54Z" fill="#FED7AA"/>
<path d="M216.259 229.499H210.593V232.332H216.259V229.499Z" fill="#98D6FA"/>
<path d="M213.426 259.249C221.25 259.249 227.593 252.906 227.593 245.082C227.593 237.258 221.25 230.916 213.426 230.916C205.602 230.916 199.259 237.258 199.259 245.082C199.259 252.906 205.602 259.249 213.426 259.249Z" fill="#27B1FF"/>
<path d="M213.426 257.124C220.076 257.124 225.468 251.733 225.468 245.082C225.468 238.432 220.076 233.041 213.426 233.041C206.776 233.041 201.384 238.432 201.384 245.082C201.384 251.733 206.776 257.124 213.426 257.124Z" fill="#FFEDD5"/>
<path d="M213.426 234.301V237.135" stroke="#FB923C" stroke-linecap="round" stroke-linejoin="round"/>
<path d="M213.426 253.008V255.842" stroke="#FB923C" stroke-linecap="round" stroke-linejoin="round"/>
<path d="M202.652 245.075H205.486" stroke="#FB923C" stroke-linecap="round" stroke-linejoin="round"/>
<path d="M221.367 245.075H224.2" stroke="#FB923C" stroke-linecap="round" stroke-linejoin="round"/>
<path d="M205.812 237.46L207.816 239.465" stroke="#FB923C" stroke-linecap="round" stroke-linejoin="round"/>
<path d="M219.036 250.685L221.041 252.69" stroke="#FB923C" stroke-linecap="round" stroke-linejoin="round"/>
<path d="M205.812 252.69L207.816 250.685" stroke="#FB923C" stroke-linecap="round" stroke-linejoin="round"/>
<path d="M219.036 239.465L221.041 237.46" stroke="#FB923C" stroke-linecap="round" stroke-linejoin="round"/>
<path d="M218.186 228.082H208.659V229.499H218.186V228.082Z" fill="#27B1FF"/>
<path d="M214.652 245.79L212.201 244.374L216.968 238.948L214.652 245.79Z" fill="#FDBA74"/>
<path d="M213.426 246.499C214.208 246.499 214.843 245.865 214.843 245.082C214.843 244.3 214.208 243.666 213.426 243.666C212.644 243.666 212.009 244.3 212.009 245.082C212.009 245.865 212.644 246.499 213.426 246.499Z" fill="#FB7200"/>
<path d="M74.4888 245.67C76.836 245.67 78.7388 243.767 78.7388 241.42C78.7388 239.073 76.836 237.17 74.4888 237.17C72.1416 237.17 70.2388 239.073 70.2388 241.42C70.2388 243.767 72.1416 245.67 74.4888 245.67Z" fill="#FED7AA"/>
<path d="M80.9629 249.169C83.3101 249.169 85.2129 247.267 85.2129 244.919C85.2129 242.572 83.3101 240.669 80.9629 240.669C78.6157 240.669 76.7129 242.572 76.7129 244.919C76.7129 247.267 78.6157 249.169 80.9629 249.169Z" fill="#FDBA74"/>
<path d="M70.2388 249.36C72.586 249.36 74.4888 247.458 74.4888 245.11C74.4888 242.763 72.586 240.86 70.2388 240.86C67.8916 240.86 65.9888 242.763 65.9888 245.11C65.9888 247.458 67.8916 249.36 70.2388 249.36Z" fill="#FDBA74"/>
<path d="M65.167 251.273C67.5142 251.273 69.417 249.37 69.417 247.023C69.417 244.676 67.5142 242.773 65.167 242.773C62.8198 242.773 60.917 244.676 60.917 247.023C60.917 249.37 62.8198 251.273 65.167 251.273Z" fill="#FB923C"/>
<path d="M75.9199 249.92C78.2671 249.92 80.1699 248.017 80.1699 245.67C80.1699 243.323 78.2671 241.42 75.9199 241.42C73.5727 241.42 71.6699 243.323 71.6699 245.67C71.6699 248.017 73.5727 249.92 75.9199 249.92Z" fill="#FB923C"/>
<path d="M83.6616 257.669H63.8283L60.2866 247.752H87.2033L83.6616 257.669Z" fill="#5BC3FE"/>
<path d="M88.6201 244.919H58.8701V247.753H88.6201V244.919Z" fill="#B6E5FF"/>
<path fill-rule="evenodd" clip-rule="evenodd" d="M66.697 232.332C65.7116 232.332 64.8583 233.003 64.6305 233.956L64.6301 233.958L61.6055 246.481C61.5137 246.861 61.131 247.095 60.7507 247.003C60.3704 246.911 60.1366 246.529 60.2285 246.148L63.2526 233.627C63.2527 233.626 63.2528 233.626 63.2528 233.626C63.6346 232.03 65.0619 230.916 66.697 230.916H80.4741C82.1113 230.916 83.537 232.039 83.9182 233.626L86.9356 246.149C87.0273 246.529 86.7932 246.912 86.4129 247.003C86.0326 247.095 85.65 246.861 85.5584 246.481L82.5409 233.957L82.5408 233.957C82.3128 233.008 81.4577 232.332 80.4741 232.332H66.697Z" fill="#06A5FF"/>
<path d="M134.043 27.9204C136.182 30.0595 133.944 33.6295 128.391 33.5729C128.341 28.0195 131.904 25.7812 134.043 27.9204Z" fill="#FDBA74"/>
<path d="M153.445 8.51904C153.445 8.51904 145.377 8.80946 142.359 11.8199C139.342 14.8374 132.521 23.649 132.521 23.649L135.418 26.5461L138.315 29.4432C138.315 29.4432 147.133 22.622 150.144 19.6045C153.154 16.587 153.445 8.51904 153.445 8.51904Z" fill="#27B1FF"/>
<path d="M138.47 16.2324L129.658 19.3916C129.014 19.6253 128.986 20.5249 129.616 20.7587L133.597 22.2462L138.47 16.2324Z" fill="#FB923C"/>
<path d="M145.738 23.5L142.579 32.3117C142.345 32.9563 141.445 32.9846 141.212 32.3542L139.724 28.3733L145.738 23.5Z" fill="#FB923C"/>
<path d="M147.735 17.0612C149.3 17.0612 150.569 15.7927 150.569 14.2279C150.569 12.6631 149.3 11.3945 147.735 11.3945C146.17 11.3945 144.902 12.6631 144.902 14.2279C144.902 15.7927 146.17 17.0612 147.735 17.0612Z" fill="#D0EEFF"/>
<defs>
<clipPath id="clip0_1665_7553">
<rect width="184" height="174" fill="white" transform="translate(51.5 48)"/>
</clipPath>
</defs>
</svg>
