<svg width="101" height="100" viewBox="0 0 101 100" fill="none" xmlns="http://www.w3.org/2000/svg">
<path d="M75.4607 42.4688C72.7281 58.084 62.7343 69.7954 50.7496 69.7954C38.7649 69.7954 28.8102 58.084 26.0775 42.4688" stroke="white" stroke-width="1.5" stroke-linecap="round" stroke-linejoin="round"/>
<path d="M71.674 13.8535C66.4429 31.8891 44.0741 43.5615 26.0775 42.7807" stroke="white" stroke-width="1.5" stroke-linecap="round" stroke-linejoin="round"/>
<path d="M63.1249 28.0635C66.0634 33.8659 70.2815 38.925 75.4609 42.8589" stroke="white" stroke-width="1.5" stroke-linecap="round" stroke-linejoin="round"/>
<path d="M26.0779 42.859C12.1413 15.22 50.75 -9.56916 72.377 12.9168C79.2478 20.9586 78.6231 34.3487 75.4611 42.859" stroke="white" stroke-width="1.5" stroke-linecap="round" stroke-linejoin="round"/>
<path d="M61.8364 68.0771V74.6355L56.3516 79.242L50.8667 83.8485L39.6238 74.6355V68.0771" stroke="white" stroke-width="1.5" stroke-linecap="round" stroke-linejoin="round"/>
<path d="M39.8972 74.9092L20.3782 82.3264C19.3233 82.7304 18.3687 83.3584 17.5801 84.1672C16.7915 84.976 16.1879 85.9462 15.8107 87.011L13 95.8336H51.0231" stroke="white" stroke-width="1.5" stroke-linecap="round" stroke-linejoin="round"/>
<path d="M62.1489 74.9092L81.668 82.3264C82.7228 82.7304 83.6775 83.3584 84.4661 84.1672C85.2546 84.976 85.8583 85.9462 86.2354 87.011L89.1242 95.8336H51.0231" stroke="white" stroke-width="1.5" stroke-linecap="round" stroke-linejoin="round"/>
</svg>
