<svg width="105" height="90" viewBox="0 0 105 90" fill="none" xmlns="http://www.w3.org/2000/svg">
<g clip-path="url(#clip0_198_2423)">
<path d="M10.4157 89.3902C10.4086 89.4806 10.3824 89.5685 10.3388 89.648C10.2952 89.7275 10.2352 89.7968 10.1628 89.8514C10.0566 89.9469 9.91888 89.9999 9.77603 90.0001C9.6867 89.9974 9.59939 89.9729 9.52163 89.9289C9.44388 89.8848 9.37802 89.8225 9.32975 89.7472L3.37934 82.3092L1.62397 84.0944V89.3456C1.63668 89.4266 1.63006 89.5095 1.60465 89.5875C1.57924 89.6655 1.53576 89.7364 1.47776 89.7944C1.41975 89.8524 1.34886 89.8959 1.27086 89.9213C1.19286 89.9467 1.10997 89.9533 1.02893 89.9406C0.947884 89.9533 0.864986 89.9467 0.786989 89.9213C0.708991 89.8959 0.638101 89.8524 0.580095 89.7944C0.52209 89.7364 0.478611 89.6655 0.453203 89.5875C0.427794 89.5095 0.421175 89.4266 0.433884 89.3456V75.734C0.421815 75.6524 0.428751 75.5692 0.454153 75.4907C0.479555 75.4122 0.522735 75.3407 0.580328 75.2817C0.63792 75.2226 0.708369 75.1777 0.786182 75.1504C0.863994 75.123 0.947067 75.1141 1.02893 75.1241C1.11078 75.1141 1.19386 75.123 1.27167 75.1504C1.34948 75.1777 1.41993 75.2226 1.47752 75.2817C1.53512 75.3407 1.5783 75.4122 1.6037 75.4907C1.6291 75.5692 1.63604 75.6524 1.62397 75.734V82.3687L8.48182 75.3324C8.58863 75.2119 8.73785 75.1373 8.89835 75.1241C9.05803 75.1401 9.20626 75.2142 9.31488 75.3324C9.43559 75.4499 9.50508 75.6102 9.50826 75.7787C9.49566 75.9288 9.43277 76.0703 9.32975 76.1803L4.18264 81.4762L10.2521 88.9142C10.3101 88.9783 10.3546 89.0536 10.3827 89.1354C10.4108 89.2173 10.422 89.3039 10.4157 89.3902Z" fill="white"/>
<path d="M33.8455 75.6893C33.8403 75.8218 33.7992 75.9504 33.7264 76.0612L28.5347 84.1984V89.3306C28.5347 89.4885 28.472 89.6398 28.3604 89.7514C28.2488 89.863 28.0975 89.9257 27.9397 89.9257C27.7819 89.9257 27.6305 89.863 27.5189 89.7514C27.4073 89.6398 27.3446 89.4885 27.3446 89.3306V84.1984L22.1826 76.0612C22.1161 75.9594 22.08 75.8407 22.0785 75.7191C22.0842 75.6173 22.1159 75.5188 22.1706 75.4328C22.2253 75.3469 22.3012 75.2764 22.3909 75.2282C22.4983 75.1618 22.6217 75.1259 22.7479 75.124C22.8474 75.1308 22.9435 75.1631 23.0269 75.2178C23.1103 75.2725 23.1782 75.3478 23.224 75.4364L27.9397 82.8744L32.7149 75.4364C32.7609 75.3536 32.8275 75.2841 32.9083 75.2345C32.9891 75.185 33.0813 75.1572 33.176 75.1538C33.3085 75.1589 33.4371 75.2 33.5479 75.2728C33.631 75.3081 33.7028 75.3657 33.7553 75.4392C33.8078 75.5127 33.839 75.5992 33.8455 75.6893Z" fill="white"/>
<path d="M46.6537 88.7953C46.2324 88.293 45.9144 87.7125 45.7179 87.0871C45.5213 86.4617 45.4501 85.8036 45.5083 85.1506V79.9143C45.3949 78.5914 45.8064 77.277 46.6537 76.2548C47.1518 75.837 47.7277 75.522 48.3481 75.328C48.9685 75.134 49.6212 75.0647 50.2686 75.1242H53.0504C53.7045 75.0656 54.3638 75.138 54.9896 75.3372C55.6154 75.5364 56.1952 75.8585 56.695 76.2845C57.5367 77.2975 57.9432 78.6025 57.8256 79.9143V85.1506C57.8858 85.8026 57.817 86.4601 57.623 87.0854C57.429 87.7108 57.1137 88.2918 56.695 88.7953C55.6798 89.6446 54.369 90.0566 53.0504 89.9407H50.2983C49.6454 89.9989 48.9873 89.9277 48.3619 89.7311C47.7365 89.5345 47.156 89.2165 46.6537 88.7953ZM53.0504 88.7953C54.0467 88.8978 55.0439 88.6098 55.8322 87.992C56.4501 87.2037 56.738 86.2064 56.6355 85.2101V79.9143C56.738 78.918 56.4501 77.9207 55.8322 77.1324C55.0439 76.5146 54.0467 76.2266 53.0504 76.3291H50.2686C49.5553 76.2852 48.8407 76.3917 48.1711 76.6415C47.6671 76.8602 47.2673 77.2653 47.0554 77.7721C46.7884 78.4535 46.6668 79.1831 46.6983 79.9143V85.1506C46.5919 86.1497 46.8862 87.1501 47.5165 87.9324C48.3048 88.5503 49.302 88.8383 50.2983 88.7358L53.0504 88.7953Z" fill="white"/>
<path d="M81.3892 75.719V89.3305C81.3993 89.4124 81.3903 89.4955 81.363 89.5733C81.3356 89.6511 81.2907 89.7215 81.2317 89.7791C81.1727 89.8367 81.1011 89.8799 81.0227 89.9053C80.9442 89.9307 80.8609 89.9377 80.7793 89.9256C80.66 89.9205 80.5436 89.8868 80.44 89.8273C80.3364 89.7677 80.2487 89.6841 80.1843 89.5834L70.6934 77.3553V89.2562C70.6708 89.3997 70.5976 89.5304 70.4872 89.6248C70.3767 89.7192 70.2362 89.7711 70.0909 89.7711C69.9456 89.7711 69.8051 89.7192 69.6946 89.6248C69.5842 89.5304 69.5111 89.3997 69.4884 89.2562V75.719C69.4784 75.6371 69.4874 75.554 69.5147 75.4762C69.542 75.3984 69.587 75.328 69.646 75.2704C69.705 75.2128 69.7766 75.1696 69.855 75.1442C69.9335 75.1188 70.0168 75.1119 70.0984 75.1239C70.2195 75.1302 70.3375 75.1643 70.4433 75.2237C70.5491 75.283 70.6398 75.366 70.7083 75.4661L80.1843 87.6495V75.7487C80.1716 75.6677 80.1782 75.5848 80.2036 75.5068C80.229 75.4288 80.2725 75.3579 80.3305 75.2999C80.3885 75.2419 80.4594 75.1984 80.5374 75.173C80.6154 75.1476 80.6983 75.141 80.7793 75.1537C80.8582 75.1424 80.9386 75.149 81.0146 75.1727C81.0907 75.1965 81.1605 75.2369 81.2189 75.2911C81.2773 75.3452 81.323 75.4118 81.3524 75.4858C81.3819 75.5598 81.3945 75.6395 81.3892 75.719Z" fill="white"/>
<path d="M94.1529 89.0035C93.7901 88.6224 93.5093 88.1711 93.3276 87.6773C93.146 87.1835 93.0674 86.6578 93.0967 86.1325C93.0847 86.0493 93.0918 85.9646 93.1176 85.8846C93.1434 85.8047 93.1871 85.7317 93.2454 85.6713C93.3051 85.6155 93.3753 85.5723 93.452 85.5442C93.5286 85.5161 93.6102 85.5037 93.6917 85.5077C93.7687 85.5042 93.8456 85.517 93.9174 85.5452C93.9891 85.5734 94.0542 85.6164 94.1083 85.6713C94.2176 85.789 94.281 85.9421 94.2868 86.1027C94.2368 86.8503 94.4825 87.5875 94.9711 88.1556C95.6232 88.5927 96.4058 88.7923 97.1876 88.7209H100.49C100.903 88.8377 101.339 88.8423 101.754 88.7342C102.169 88.6262 102.547 88.4093 102.851 88.1062C103.154 87.803 103.371 87.4244 103.479 87.0094C103.587 86.5945 103.582 86.1582 103.465 85.7457C103.549 84.9356 103.314 84.1248 102.811 83.4845C102.158 82.9964 101.345 82.7732 100.535 82.8597H97.3066C96.7662 82.907 96.2218 82.8413 95.7081 82.6669C95.1943 82.4925 94.7225 82.2132 94.3225 81.8467C93.9225 81.4802 93.6032 81.0344 93.3847 80.5379C93.1662 80.0413 93.0534 79.5047 93.0534 78.9622C93.0534 78.4197 93.1662 77.8831 93.3847 77.3865C93.6032 76.89 93.9225 76.4443 94.3225 76.0777C94.7225 75.7112 95.1943 75.4319 95.7081 75.2575C96.2218 75.0831 96.7662 75.0174 97.3066 75.0647H100.55C101.577 74.9764 102.599 75.2852 103.406 75.9275C103.746 76.2921 104.01 76.7204 104.184 77.1876C104.357 77.6548 104.437 78.1517 104.417 78.6498C104.426 78.7282 104.417 78.8076 104.391 78.8821C104.365 78.9567 104.324 79.0247 104.269 79.0812C104.141 79.192 103.976 79.2505 103.807 79.2448C103.733 79.2462 103.659 79.2324 103.59 79.2043C103.521 79.1761 103.458 79.1343 103.406 79.0812C103.347 79.0286 103.299 78.9645 103.266 78.8929C103.233 78.8213 103.215 78.7436 103.212 78.6647C103.239 78.3263 103.198 77.986 103.091 77.664C102.983 77.3419 102.812 77.0448 102.588 76.7903C101.992 76.3788 101.271 76.1893 100.55 76.2548H97.2768C96.8931 76.2053 96.5033 76.2383 96.1333 76.3513C95.7634 76.4644 95.4217 76.655 95.1312 76.9105C94.8407 77.166 94.608 77.4805 94.4486 77.833C94.2892 78.1855 94.2067 78.5679 94.2067 78.9548C94.2067 79.3416 94.2892 79.7241 94.4486 80.0766C94.608 80.4291 94.8407 80.7435 95.1312 80.999C95.4217 81.2545 95.7634 81.4451 96.1333 81.5582C96.5033 81.6713 96.8931 81.7042 97.2768 81.6548H100.416C101.552 81.5621 102.68 81.9201 103.555 82.6515C104.194 83.5593 104.537 84.6426 104.537 85.7531C104.537 86.8636 104.194 87.947 103.555 88.8548C102.68 89.5861 101.552 89.9441 100.416 89.8515H97.1281C96.0658 89.9449 95.0063 89.643 94.1529 89.0035Z" fill="white"/>
<path d="M57.8405 36.8182C56.5927 36.8064 55.3762 36.4257 54.3444 35.7239C53.3125 35.0221 52.5114 34.0306 52.042 32.8744C51.5726 31.7181 51.4559 30.4488 51.7065 29.2264C51.9571 28.0039 52.5639 26.883 53.4504 26.0047C54.3369 25.1265 55.4635 24.5302 56.6883 24.291C57.9131 24.0519 59.1812 24.1805 60.333 24.6607C61.4848 25.1409 62.4687 25.9513 63.1608 26.9896C63.8529 28.028 64.2223 29.248 64.2223 30.4959C64.2184 31.33 64.0503 32.1553 63.7274 32.9244C63.4046 33.6936 62.9334 34.3917 62.3408 34.9788C61.7482 35.5658 61.0458 36.0304 60.2736 36.3461C59.5014 36.6617 58.6747 36.8221 57.8405 36.8182ZM57.8405 25.6612C56.8869 25.6729 55.9581 25.9664 55.1709 26.5047C54.3837 27.043 53.7733 27.8022 53.4165 28.6866C53.0596 29.571 52.9723 30.5411 53.1656 31.475C53.3588 32.4089 53.8239 33.2648 54.5023 33.935C55.1808 34.6052 56.0423 35.0598 56.9785 35.2416C57.9146 35.4233 58.8837 35.3242 59.7636 34.9566C60.6436 34.589 61.3952 33.9693 61.9239 33.1756C62.4525 32.3819 62.7346 31.4495 62.7347 30.4959C62.7229 29.207 62.2016 27.9751 61.2846 27.0692C60.3676 26.1634 59.1295 25.6572 57.8405 25.6612Z" fill="white"/>
<path d="M68.8636 42.4564C67.9619 42.4556 67.0685 42.284 66.2306 41.9506C65.3521 41.62 64.5485 41.1173 63.8668 40.472C63.1852 39.8268 62.6392 39.0519 62.261 38.1929C61.8827 37.3338 61.6798 36.4079 61.6641 35.4694C61.6484 34.5309 61.8202 33.5987 62.1694 32.7275L63.5529 33.2779C63.2788 33.9612 63.143 34.6921 63.1534 35.4282C63.1638 36.1643 63.3202 36.8911 63.6136 37.5663C63.9069 38.2416 64.3314 38.8519 64.8623 39.3619C65.3932 39.8719 66.0201 40.2715 66.7066 40.5374C68.094 41.0926 69.6446 41.0775 71.0208 40.4952C72.3971 39.9129 73.4877 38.8107 74.0554 37.4283C74.9905 34.74 75.3735 31.8907 75.1814 29.0509C74.9894 26.2111 74.2262 23.4393 72.9376 20.9014C71.649 18.3635 69.8615 16.1118 67.6821 14.281C65.5027 12.4503 62.9762 11.0782 60.254 10.2469C57.5319 9.41565 54.6699 9.14228 51.8396 9.44319C49.0092 9.7441 46.2687 10.6131 43.7822 11.9982C41.2956 13.3832 39.1142 15.2558 37.3684 17.5039C35.6226 19.7519 34.3485 22.3291 33.6223 25.0812L32.1347 24.6944C32.9301 21.7638 34.3069 19.0231 36.1831 16.6354C38.0593 14.2478 40.3967 12.2619 43.0561 10.7961C45.7155 9.33021 48.6426 8.41429 51.6632 8.10282C54.6839 7.79135 57.7363 8.09068 60.6389 8.98301C63.5414 9.87535 66.2349 11.3424 68.5588 13.297C70.8828 15.2516 72.7899 17.6536 74.1666 20.3603C75.5432 23.067 76.3613 26.0229 76.5723 29.0522C76.7832 32.0815 76.3825 35.1223 75.3942 37.9936C74.8617 39.2949 73.9591 40.4113 72.7983 41.2045C71.6375 41.9978 70.2694 42.4331 68.8636 42.4564Z" fill="white"/>
<path d="M70.4702 30.4959H68.9826C68.9621 27.2625 67.7401 24.1522 65.5542 21.7694C63.3683 19.3867 60.3746 17.9017 57.1549 17.6031C53.9352 17.3045 50.7194 18.2136 48.1326 20.1537C45.5458 22.0938 43.7727 24.9264 43.1578 28.1009L41.6702 27.7885C42.3593 24.2477 44.3405 21.0896 47.2286 18.9283C50.1167 16.767 53.7054 15.757 57.2968 16.0946C60.8883 16.4322 64.2258 18.0934 66.6605 20.755C69.0953 23.4167 70.4532 26.8887 70.4702 30.4959Z" fill="white"/>
<path d="M52.5 60.992C50.7154 60.9832 48.9734 60.4457 47.494 59.4475C46.0146 58.4493 44.8642 57.0351 44.1881 55.3835C43.5119 53.7319 43.3403 51.917 43.695 50.168C44.0496 48.4189 44.9146 46.8142 46.1807 45.5564C47.4468 44.2986 49.0571 43.4442 50.8085 43.1011C52.5598 42.758 54.3736 42.9415 56.0207 43.6285C57.6678 44.3155 59.0744 45.4752 60.0629 46.9611C61.0513 48.447 61.5773 50.1925 61.5744 51.9771C61.5705 53.1649 61.3327 54.3403 60.8745 55.4361C60.4164 56.532 59.7469 57.5268 58.9042 58.364C58.0616 59.2011 57.0623 59.864 55.9635 60.3149C54.8647 60.7659 53.6878 60.9959 52.5 60.992ZM52.5 44.435C51.0102 44.4438 49.5564 44.8936 48.322 45.7277C47.0876 46.5618 46.1279 47.7428 45.5639 49.1217C44.9998 50.5006 44.8568 52.0156 45.1529 53.4757C45.4489 54.9358 46.1707 56.2755 47.2273 57.3258C48.2838 58.3762 49.6278 59.09 51.0896 59.3775C52.5514 59.6649 54.0655 59.5129 55.4411 58.9408C56.8166 58.3687 57.9919 57.402 58.8187 56.1627C59.6455 54.9233 60.0867 53.4669 60.0868 51.9771C60.0848 50.9835 59.8869 50 59.5044 49.0829C59.1219 48.1658 58.5623 47.3331 57.8576 46.6326C57.1529 45.932 56.317 45.3774 55.3976 45.0003C54.4783 44.6232 53.4936 44.4311 52.5 44.435Z" fill="white"/>
<path d="M47.3678 34.4085C47.0607 34.4302 46.7525 34.4302 46.4455 34.4085C44.9404 34.1652 43.5927 33.3363 42.6967 32.1027C42.2559 31.5013 41.9406 30.8173 41.7693 30.0915C41.5981 29.3658 41.5745 28.613 41.7 27.8779L43.1876 28.1159C43.0999 28.6576 43.1205 29.2113 43.2482 29.745C43.3758 30.2786 43.6081 30.7817 43.9314 31.225C44.4239 31.9039 45.1055 32.4227 45.891 32.7166C46.6765 33.0106 47.5312 33.0666 48.3484 32.8778C49.1656 32.689 49.9091 32.2636 50.486 31.6549C51.063 31.0461 51.4478 30.2809 51.5926 29.4548L53.0802 29.6928C52.8435 31.0293 52.1387 32.2379 51.0919 33.102C50.0452 33.9662 48.7249 34.4293 47.3678 34.4085Z" fill="white"/>
<path d="M77.6107 43.0215C77.073 43.0222 76.541 42.9107 76.0487 42.6942C75.5755 42.4919 75.147 42.1978 74.788 41.829C74.429 41.4602 74.1466 41.0239 73.9572 40.5453C73.7677 40.0668 73.6749 39.5555 73.684 39.0409C73.6932 38.5263 73.8043 38.0186 74.0107 37.5471L75.3793 38.1421C75.2541 38.4335 75.1895 38.7473 75.1895 39.0645C75.1895 39.3816 75.2541 39.6954 75.3793 39.9868C75.4949 40.2873 75.6706 40.561 75.8957 40.7912C76.1208 41.0215 76.3906 41.2033 76.6884 41.3256C77.2829 41.5821 77.9543 41.5948 78.5581 41.3611C79.1618 41.1274 79.6497 40.6659 79.9165 40.076C80.9993 36.998 81.5526 33.7588 81.5529 30.4959C81.4624 23.3807 78.7901 16.5408 74.0333 11.2487C69.2765 5.95659 62.7591 2.57281 55.6938 1.72694C48.6286 0.881074 41.4966 2.63073 35.625 6.65036C29.7533 10.67 25.5419 16.6858 23.7744 23.5785C23.2259 25.9173 23.6271 28.3781 24.8901 30.4215C25.8545 31.965 27.252 33.1905 28.9083 33.9449C30.5647 34.6993 32.4065 34.9493 34.204 34.6638C36.0015 34.3782 37.6752 33.5697 39.0162 32.3391C40.3571 31.1084 41.3061 29.5102 41.7446 27.7438L43.2322 28.0859C42.7396 30.1588 41.6432 32.0389 40.0818 33.4885C38.5204 34.9381 36.5641 35.8921 34.4605 36.2297C32.3568 36.5673 30.2003 36.2734 28.2637 35.3851C26.3271 34.4969 24.6975 33.0542 23.581 31.2397C22.8431 30.0619 22.3484 28.7483 22.1261 27.3763C21.9038 26.0043 21.9585 24.6018 22.2868 23.2512C23.2701 19.2004 25.0661 15.3915 27.5657 12.0557C30.0653 8.71979 33.2165 5.92642 36.8281 3.84499C40.4397 1.76356 44.4365 0.437451 48.576 -0.052904C52.7155 -0.543259 56.9115 -0.18764 60.9095 0.992384C64.9075 2.17241 68.6241 4.15224 71.8339 6.8118C75.0437 9.47136 77.6798 12.7552 79.5823 16.4642C81.4849 20.1732 82.6142 24.2299 82.9018 28.3885C83.1894 32.547 82.6292 36.7206 81.2554 40.6562C80.9402 41.3596 80.4286 41.957 79.782 42.3766C79.1355 42.7962 78.3815 43.0201 77.6107 43.0215Z" fill="white"/>
</g>
<defs>
<clipPath id="clip0_198_2423">
<rect width="104.132" height="90" fill="white" transform="translate(0.433884)"/>
</clipPath>
</defs>
</svg>
