<svg width="708" height="708" viewBox="0 0 708 708" fill="none" xmlns="http://www.w3.org/2000/svg">
<path d="M590.329 355.939C590.329 486.391 484.579 592.143 354.13 592.143C223.681 592.143 117.932 486.391 117.932 355.939C117.932 225.488 223.681 119.736 354.13 119.736C484.579 119.736 590.329 225.488 590.329 355.939Z" stroke="#06A5FF"/>
<path d="M623.692 354.136C623.692 503.014 503.005 623.703 354.13 623.703C205.255 623.703 84.5684 503.014 84.5684 354.136C84.5684 205.259 205.255 84.5693 354.13 84.5693C503.005 84.5693 623.692 205.259 623.692 354.136Z" stroke="#06A5FF"/>
<path d="M660.212 348.607C659.936 348.612 659.716 348.839 659.72 349.115C659.747 350.786 659.761 352.459 659.761 354.136C659.761 355.813 659.747 357.487 659.72 359.157C659.716 359.433 659.936 359.661 660.212 359.665C660.159 362.676 660.062 365.676 659.922 368.664C659.647 368.651 659.412 368.864 659.399 369.139C659.237 372.486 659.022 375.819 658.753 379.137C658.731 379.412 658.936 379.653 659.211 379.675C658.963 382.678 658.672 385.669 658.338 388.646C658.063 388.615 657.815 388.812 657.784 389.086C657.406 392.407 656.975 395.712 656.491 398.999C656.451 399.272 656.64 399.527 656.913 399.567C656.469 402.551 655.983 405.52 655.453 408.476C655.181 408.426 654.921 408.607 654.872 408.879C654.278 412.166 653.631 415.435 652.932 418.685C652.874 418.955 653.046 419.221 653.316 419.279C652.678 422.222 651.998 425.15 651.276 428.062C651.008 427.995 650.736 428.158 650.669 428.426C649.859 431.67 648.998 434.893 648.085 438.094C648.009 438.36 648.163 438.636 648.429 438.712C647.599 441.605 646.727 444.481 645.815 447.339C645.552 447.254 645.271 447.399 645.186 447.662C644.165 450.842 643.094 453.999 641.972 457.133C641.879 457.393 642.015 457.679 642.274 457.772C641.255 460.607 640.195 463.421 639.095 466.216C638.838 466.115 638.548 466.24 638.446 466.497C637.218 469.601 635.941 472.68 634.616 475.733C634.506 475.987 634.622 476.281 634.875 476.391C633.672 479.15 632.43 481.887 631.149 484.603C630.899 484.485 630.601 484.591 630.483 484.841C629.053 487.858 627.576 490.849 626.051 493.811C625.925 494.057 626.021 494.358 626.267 494.484C624.886 497.157 623.466 499.807 622.01 502.433C621.768 502.299 621.464 502.385 621.329 502.626C619.706 505.542 618.036 508.428 616.321 511.283C616.179 511.52 616.255 511.827 616.492 511.969C614.939 514.546 613.348 517.099 611.721 519.626C611.489 519.476 611.18 519.542 611.03 519.774C609.22 522.576 607.365 525.347 605.466 528.085C605.309 528.312 605.365 528.624 605.592 528.781C603.874 531.25 602.121 533.692 600.334 536.107C600.112 535.942 599.799 535.988 599.634 536.21C597.645 538.888 595.612 541.533 593.538 544.142C593.367 544.358 593.403 544.673 593.619 544.845C591.744 547.196 589.836 549.519 587.894 551.813C587.683 551.634 587.368 551.66 587.189 551.87C585.03 554.412 582.831 556.918 580.591 559.388C580.406 559.592 580.421 559.909 580.626 560.094C578.602 562.318 576.547 564.512 574.459 566.676C574.261 566.484 573.944 566.489 573.752 566.687C571.433 569.083 569.075 571.441 566.68 573.76C566.481 573.952 566.476 574.269 566.668 574.467C564.505 576.555 562.311 578.611 560.086 580.634C559.901 580.43 559.585 580.414 559.38 580.6C556.911 582.839 554.405 585.039 551.863 587.197C551.653 587.376 551.627 587.692 551.806 587.902C549.512 589.844 547.189 591.753 544.838 593.627C544.666 593.411 544.351 593.375 544.135 593.547C541.525 595.621 538.881 597.653 536.203 599.643C535.981 599.807 535.935 600.121 536.1 600.342C533.685 602.13 531.243 603.883 528.774 605.601C528.617 605.374 528.305 605.318 528.078 605.475C525.34 607.374 522.57 609.229 519.768 611.039C519.536 611.189 519.469 611.499 519.619 611.731C517.092 613.357 514.54 614.948 511.963 616.502C511.82 616.265 511.513 616.188 511.277 616.33C508.421 618.046 505.535 619.716 502.62 621.339C502.379 621.474 502.292 621.778 502.426 622.019C499.8 623.476 497.151 624.896 494.478 626.277C494.352 626.031 494.05 625.935 493.805 626.061C490.842 627.586 487.852 629.063 484.835 630.493C484.585 630.611 484.479 630.909 484.597 631.159C481.881 632.44 479.144 633.683 476.385 634.886C476.275 634.632 475.98 634.516 475.727 634.626C472.674 635.952 469.595 637.229 466.491 638.456C466.234 638.558 466.108 638.849 466.21 639.105C463.415 640.205 460.6 641.266 457.766 642.285C457.673 642.025 457.387 641.89 457.127 641.983C453.993 643.104 450.836 644.176 447.656 645.197C447.393 645.281 447.248 645.563 447.333 645.826C444.475 646.738 441.6 647.61 438.706 648.44C438.63 648.174 438.354 648.02 438.088 648.096C434.887 649.009 431.664 649.871 428.42 650.681C428.152 650.747 427.989 651.019 428.056 651.287C425.145 652.009 422.217 652.689 419.273 653.327C419.215 653.057 418.949 652.885 418.679 652.943C415.429 653.642 412.16 654.289 408.873 654.883C408.601 654.933 408.421 655.193 408.47 655.464C405.515 655.994 402.545 656.481 399.561 656.925C399.521 656.652 399.267 656.463 398.993 656.503C395.706 656.986 392.401 657.418 389.081 657.796C388.806 657.827 388.609 658.075 388.64 658.349C385.663 658.683 382.672 658.974 379.67 659.222C379.647 658.947 379.406 658.742 379.131 658.764C375.813 659.033 372.48 659.249 369.134 659.41C368.858 659.424 368.645 659.658 368.658 659.934C365.67 660.074 362.67 660.17 359.659 660.224C359.655 659.948 359.427 659.727 359.151 659.732C357.481 659.759 355.807 659.772 354.13 659.772C352.454 659.772 350.78 659.759 349.109 659.732C348.833 659.727 348.606 659.948 348.601 660.224C345.591 660.17 342.591 660.074 339.602 659.934C339.616 659.658 339.403 659.424 339.127 659.41C335.78 659.249 332.448 659.033 329.13 658.764C328.855 658.742 328.613 658.947 328.591 659.222C325.588 658.974 322.598 658.683 319.62 658.349C319.651 658.075 319.454 657.827 319.18 657.796C315.859 657.418 312.555 656.986 309.267 656.503C308.994 656.463 308.74 656.652 308.7 656.925C305.716 656.481 302.746 655.994 299.791 655.464C299.84 655.193 299.66 654.933 299.388 654.883C296.101 654.289 292.832 653.642 289.582 652.943C289.312 652.885 289.046 653.057 288.988 653.327C286.044 652.689 283.116 652.009 280.205 651.287C280.271 651.019 280.109 650.747 279.841 650.681C276.597 649.871 273.374 649.009 270.172 648.096C269.907 648.02 269.63 648.174 269.554 648.44C266.661 647.61 263.785 646.738 260.928 645.826C261.012 645.563 260.868 645.281 260.605 645.197C257.425 644.176 254.267 643.104 251.134 641.983C250.874 641.89 250.587 642.025 250.494 642.285C247.66 641.266 244.845 640.205 242.051 639.105C242.152 638.849 242.026 638.558 241.77 638.456C238.666 637.229 235.587 635.952 232.533 634.626C232.28 634.516 231.986 634.632 231.876 634.886C229.117 633.683 226.379 632.44 223.664 631.159C223.782 630.909 223.676 630.611 223.426 630.493C220.409 629.063 217.418 627.586 214.456 626.061C214.21 625.935 213.909 626.031 213.783 626.277C211.11 624.896 208.46 623.476 205.834 622.019C205.969 621.778 205.882 621.473 205.641 621.339C202.725 619.716 199.84 618.046 196.984 616.33C196.747 616.188 196.44 616.265 196.298 616.502C193.721 614.948 191.169 613.357 188.642 611.731C188.792 611.499 188.725 611.189 188.493 611.039C185.691 609.229 182.921 607.374 180.182 605.475C179.956 605.318 179.644 605.374 179.487 605.601C177.018 603.883 174.576 602.13 172.161 600.342C172.326 600.121 172.28 599.807 172.058 599.643C169.38 597.653 166.735 595.621 164.126 593.547C163.909 593.375 163.595 593.411 163.423 593.627C161.072 591.753 158.749 589.844 156.455 587.902C156.634 587.692 156.608 587.376 156.398 587.197C153.856 585.039 151.35 582.839 148.88 580.6C148.676 580.414 148.36 580.43 148.174 580.634C145.95 578.611 143.756 576.555 141.593 574.467C141.785 574.269 141.779 573.952 141.581 573.76C139.185 571.441 136.828 569.083 134.509 566.687C134.316 566.489 134 566.484 133.802 566.676C131.714 564.512 129.658 562.318 127.635 560.094C127.839 559.909 127.855 559.592 127.669 559.388C125.43 556.918 123.23 554.412 121.072 551.87C120.893 551.66 120.578 551.634 120.367 551.813C118.425 549.519 116.517 547.196 114.642 544.845C114.858 544.673 114.894 544.358 114.722 544.142C112.648 541.532 110.616 538.888 108.627 536.21C108.462 535.988 108.149 535.942 107.927 536.106C106.14 533.691 104.387 531.249 102.669 528.781C102.896 528.623 102.952 528.312 102.795 528.085C100.896 525.347 99.041 522.576 97.2307 519.774C97.0809 519.542 96.7716 519.476 96.5397 519.625C94.913 517.098 93.3225 514.546 91.7689 511.969C92.0053 511.827 92.0818 511.52 91.9397 511.283C90.2245 508.428 88.5547 505.542 86.9312 502.626C86.7969 502.385 86.4927 502.299 86.2515 502.433C84.7947 499.807 83.3753 497.157 81.9942 494.484C82.2395 494.358 82.3359 494.056 82.2096 493.811C80.685 490.849 79.2074 487.858 77.7777 484.841C77.6596 484.591 77.3616 484.485 77.1122 484.603C75.831 481.887 74.5885 479.15 73.3856 476.391C73.6386 476.281 73.7547 475.987 73.6447 475.733C72.3194 472.68 71.0423 469.601 69.8147 466.497C69.7132 466.241 69.4229 466.115 69.1662 466.216C68.0662 463.421 67.0061 460.606 65.9866 457.772C66.2463 457.679 66.3815 457.393 66.2885 457.133C65.1671 453.999 64.0954 450.842 63.0744 447.662C62.99 447.399 62.7087 447.254 62.4459 447.339C61.5336 444.481 60.6622 441.605 59.8323 438.712C60.0976 438.636 60.2513 438.36 60.1756 438.094C59.263 434.893 58.4012 431.67 57.5913 428.426C57.5244 428.158 57.2532 427.995 56.9854 428.062C56.2635 425.15 55.5832 422.222 54.9453 419.279C55.215 419.22 55.3866 418.955 55.3286 418.685C54.6299 415.435 53.9829 412.166 53.3885 408.879C53.3394 408.607 53.0795 408.427 52.8079 408.475C52.2786 405.52 51.7916 402.551 51.3477 399.567C51.6207 399.526 51.8094 399.272 51.7692 398.999C51.2857 395.712 50.8544 392.407 50.4764 389.086C50.4452 388.812 50.1977 388.615 49.9235 388.646C49.5894 385.669 49.2981 382.678 49.0501 379.675C49.3252 379.653 49.53 379.412 49.5077 379.137C49.2392 375.819 49.0236 372.486 48.8618 369.139C48.8485 368.864 48.6143 368.651 48.3386 368.664C48.199 365.675 48.1022 362.676 48.0489 359.665C48.3248 359.66 48.5448 359.433 48.5404 359.157C48.5135 357.487 48.5 355.813 48.5 354.136C48.5 352.459 48.5135 350.786 48.5404 349.115C48.5449 348.839 48.3248 348.612 48.0489 348.607C48.1022 345.597 48.199 342.597 48.3386 339.608C48.6143 339.621 48.8485 339.408 48.8618 339.133C49.0236 335.786 49.2392 332.453 49.5077 329.136C49.53 328.861 49.3252 328.619 49.0501 328.597C49.2981 325.594 49.5895 322.604 49.9235 319.626C50.1977 319.657 50.4452 319.46 50.4764 319.186C50.8544 315.865 51.2857 312.561 51.7692 309.273C51.8094 309 51.6207 308.746 51.3477 308.706C51.7916 305.722 52.2786 302.752 52.8079 299.797C53.0795 299.846 53.3394 299.665 53.3885 299.394C53.9829 296.106 54.6299 292.837 55.3286 289.588C55.3866 289.318 55.215 289.052 54.9453 288.994C55.5832 286.05 56.2635 283.122 56.9854 280.21C57.2532 280.277 57.5244 280.114 57.5913 279.846C58.4012 276.603 59.263 273.38 60.1756 270.178C60.2513 269.913 60.0976 269.636 59.8323 269.56C60.6622 266.667 61.5336 263.791 62.4459 260.934C62.7087 261.018 62.99 260.873 63.0744 260.61C64.0954 257.43 65.1671 254.273 66.2885 251.139C66.3815 250.879 66.2463 250.593 65.9866 250.5C67.0061 247.666 68.0662 244.851 69.1662 242.056C69.4229 242.158 69.7132 242.032 69.8147 241.775C71.0423 238.671 72.3194 235.592 73.6447 232.539C73.7547 232.286 73.6386 231.991 73.3856 231.881C74.5885 229.123 75.831 226.385 77.1122 223.669C77.3616 223.787 77.6596 223.681 77.7777 223.431C79.2074 220.414 80.685 217.423 82.2096 214.461C82.3359 214.216 82.2395 213.915 81.9942 213.788C83.3753 211.115 84.7947 208.466 86.2515 205.84C86.4927 205.974 86.7969 205.887 86.9312 205.646C88.5547 202.731 90.2245 199.845 91.9397 196.989C92.0818 196.753 92.0053 196.446 91.7689 196.303C93.3225 193.726 94.913 191.174 96.5397 188.647C96.7716 188.796 97.0809 188.73 97.2307 188.498C99.041 185.696 100.896 182.925 102.795 180.187C102.952 179.96 102.896 179.649 102.669 179.492C104.387 177.023 106.14 174.581 107.927 172.166C108.149 172.33 108.462 172.284 108.627 172.062C110.616 169.384 112.648 166.74 114.722 164.13C114.894 163.914 114.858 163.6 114.642 163.428C116.517 161.077 118.425 158.754 120.367 156.46C120.578 156.638 120.893 156.612 121.072 156.402C123.23 153.86 125.43 151.354 127.669 148.885C127.855 148.68 127.839 148.364 127.635 148.179C129.659 145.954 131.714 143.76 133.802 141.597C134 141.788 134.317 141.783 134.509 141.585C136.828 139.189 139.185 136.831 141.581 134.512C141.779 134.32 141.785 134.004 141.593 133.805C143.756 131.718 145.95 129.662 148.174 127.638C148.36 127.843 148.676 127.858 148.88 127.673C151.35 125.433 153.856 123.234 156.398 121.075C156.608 120.896 156.634 120.581 156.455 120.37C158.749 118.429 161.072 116.52 163.423 114.645C163.595 114.861 163.909 114.897 164.126 114.725C166.735 112.651 169.38 110.619 172.058 108.629C172.279 108.465 172.326 108.152 172.161 107.93C174.576 106.142 177.018 104.389 179.487 102.671C179.644 102.898 179.956 102.954 180.182 102.797C182.921 100.898 185.691 99.0435 188.493 97.233C188.725 97.0833 188.792 96.774 188.642 96.5421C191.169 94.9153 193.721 93.3247 196.298 91.771C196.441 92.0075 196.747 92.084 196.984 91.9418C199.84 90.2266 202.726 88.5567 205.641 86.9332C205.882 86.7989 205.969 86.4946 205.834 86.2534C208.46 84.7965 211.11 83.3771 213.783 81.996C213.909 82.2412 214.211 82.3377 214.456 82.2113C217.418 80.6867 220.409 79.209 223.426 77.7793C223.675 77.6611 223.782 77.3632 223.664 77.1137C226.38 75.8324 229.117 74.5899 231.876 73.3869C231.986 73.6399 232.28 73.756 232.533 73.6461C235.587 72.3206 238.666 71.0435 241.77 69.8158C242.026 69.7143 242.152 69.4241 242.051 69.1674C244.846 68.0673 247.66 67.0071 250.495 65.9875C250.588 66.2473 250.874 66.3824 251.134 66.2894C254.267 65.168 257.425 64.0963 260.605 63.0752C260.867 62.9908 261.012 62.7095 260.928 62.4467C263.786 61.5344 266.661 60.6629 269.555 59.8329C269.63 60.0982 269.907 60.2519 270.172 60.1763C273.374 59.2636 276.597 58.4018 279.841 57.5918C280.108 57.5249 280.271 57.2537 280.205 56.9859C283.116 56.2639 286.044 55.5836 288.988 54.9457C289.046 55.2154 289.312 55.387 289.582 55.329C292.832 54.6303 296.101 53.9832 299.388 53.3888C299.66 53.3397 299.84 53.0798 299.791 52.8082C302.746 52.2788 305.716 51.7918 308.7 51.3479C308.74 51.6209 308.994 51.8096 309.267 51.7694C312.555 51.2858 315.859 50.8546 319.18 50.4765C319.454 50.4453 319.651 50.1978 319.62 49.9236C322.598 49.5895 325.588 49.2982 328.591 49.0502C328.614 49.3252 328.855 49.5301 329.13 49.5078C332.448 49.2392 335.78 49.0236 339.127 48.8618C339.403 48.8485 339.615 48.6143 339.602 48.3387C342.591 48.199 345.591 48.1022 348.601 48.0489C348.606 48.3248 348.833 48.5449 349.109 48.5404C350.78 48.5135 352.454 48.5 354.13 48.5C355.807 48.5 357.481 48.5135 359.151 48.5404C359.427 48.5449 359.655 48.3248 359.659 48.0489C362.67 48.1022 365.67 48.199 368.658 48.3387C368.645 48.6143 368.858 48.8485 369.134 48.8618C372.48 49.0236 375.813 49.2392 379.131 49.5078C379.406 49.5301 379.647 49.3252 379.669 49.0502C382.672 49.2982 385.663 49.5895 388.64 49.9236C388.609 50.1978 388.806 50.4453 389.081 50.4765C392.401 50.8546 395.706 51.2858 398.993 51.7694C399.267 51.8096 399.52 51.6209 399.561 51.3479C402.545 51.7918 405.515 52.2788 408.47 52.8082C408.421 53.0798 408.601 53.3397 408.873 53.3888C412.16 53.9832 415.429 54.6303 418.679 55.329C418.949 55.387 419.214 55.2154 419.273 54.9457C422.216 55.5836 425.144 56.2639 428.056 56.9859C427.989 57.2537 428.152 57.5249 428.42 57.5918C431.664 58.4018 434.887 59.2636 438.088 60.1763C438.354 60.252 438.63 60.0982 438.706 59.8329C441.599 60.6629 444.475 61.5344 447.333 62.4467C447.249 62.7095 447.393 62.9908 447.656 63.0752C450.836 64.0963 453.993 65.168 457.127 66.2894C457.387 66.3824 457.673 66.2473 457.766 65.9875C460.6 67.0071 463.415 68.0673 466.21 69.1674C466.109 69.4241 466.234 69.7143 466.491 69.8158C469.595 71.0435 472.674 72.3206 475.727 73.6461C475.98 73.756 476.275 73.64 476.385 73.3869C479.144 74.5899 481.881 75.8324 484.597 77.1137C484.479 77.3632 484.585 77.6611 484.835 77.7793C487.852 79.209 490.842 80.6867 493.805 82.2113C494.05 82.3377 494.351 82.2412 494.478 81.996C497.151 83.3771 499.8 84.7965 502.426 86.2534C502.292 86.4946 502.379 86.7989 502.62 86.9332C505.535 88.5567 508.421 90.2266 511.277 91.9418C511.513 92.084 511.82 92.0075 511.962 91.771C514.54 93.3247 517.092 94.9153 519.619 96.5421C519.469 96.774 519.536 97.0833 519.768 97.233C522.57 99.0435 525.34 100.898 528.078 102.797C528.305 102.954 528.616 102.898 528.774 102.671C531.242 104.389 533.684 106.142 536.099 107.93C535.935 108.152 535.981 108.465 536.203 108.629C538.881 110.619 541.525 112.651 544.135 114.725C544.351 114.897 544.665 114.861 544.837 114.645C547.189 116.52 549.511 118.429 551.805 120.37C551.627 120.581 551.653 120.896 551.863 121.075C554.405 123.234 556.911 125.433 559.38 127.673C559.585 127.858 559.901 127.843 560.086 127.638C562.311 129.662 564.505 131.718 566.668 133.805C566.476 134.004 566.481 134.32 566.68 134.512C569.075 136.831 571.433 139.189 573.752 141.585C573.944 141.783 574.261 141.788 574.459 141.596C576.547 143.76 578.602 145.954 580.626 148.178C580.421 148.364 580.406 148.68 580.591 148.884C582.831 151.354 585.03 153.86 587.189 156.402C587.368 156.612 587.683 156.638 587.894 156.459C589.836 158.753 591.744 161.076 593.619 163.427C593.403 163.599 593.367 163.914 593.538 164.13C595.612 166.74 597.645 169.384 599.634 172.062C599.799 172.284 600.112 172.33 600.334 172.166C602.121 174.581 603.874 177.023 605.592 179.491C605.365 179.649 605.309 179.96 605.466 180.187C607.365 182.925 609.22 185.696 611.03 188.498C611.18 188.73 611.489 188.797 611.721 188.647C613.348 191.174 614.939 193.726 616.492 196.303C616.255 196.445 616.179 196.752 616.321 196.989C618.036 199.845 619.706 202.731 621.329 205.646C621.464 205.887 621.768 205.974 622.01 205.839C623.466 208.465 624.886 211.115 626.267 213.788C626.021 213.914 625.925 214.216 626.051 214.461C627.576 217.423 629.053 220.414 630.483 223.431C630.601 223.681 630.899 223.787 631.149 223.669C632.43 226.385 633.673 229.122 634.875 231.881C634.622 231.991 634.506 232.286 634.616 232.539C635.941 235.592 637.218 238.671 638.446 241.775C638.548 242.032 638.838 242.158 639.095 242.056C640.195 244.851 641.255 247.666 642.275 250.5C642.015 250.593 641.879 250.879 641.972 251.139C643.094 254.273 644.165 257.43 645.186 260.61C645.271 260.873 645.552 261.018 645.815 260.934C646.727 263.791 647.599 266.667 648.429 269.56C648.163 269.636 648.009 269.913 648.085 270.178C648.998 273.38 649.859 276.603 650.669 279.846C650.736 280.114 651.008 280.277 651.276 280.21C651.998 283.122 652.678 286.05 653.316 288.994C653.046 289.052 652.874 289.318 652.932 289.588C653.631 292.837 654.278 296.106 654.872 299.394C654.921 299.665 655.181 299.846 655.453 299.797C655.983 302.752 656.469 305.722 656.913 308.706C656.64 308.746 656.451 309 656.491 309.273C656.975 312.561 657.406 315.865 657.784 319.186C657.815 319.46 658.063 319.657 658.338 319.626C658.672 322.604 658.963 325.594 659.211 328.597C658.936 328.619 658.731 328.86 658.753 329.136C659.022 332.453 659.237 335.786 659.399 339.133C659.412 339.409 659.647 339.621 659.922 339.608C660.062 342.597 660.159 345.597 660.212 348.607Z" stroke="#06A5FF" stroke-linecap="round" stroke-dasharray="10 10"/>
<ellipse cx="94.4383" cy="190.924" rx="8.56624" ry="8.5664" fill="#06A5FF"/>
<ellipse cx="89.9293" cy="410.945" rx="13.0748" ry="13.075" fill="#06A5FF"/>
<ellipse cx="243.22" cy="110.67" rx="16.6816" ry="16.6819" fill="#06A5FF"/>
<ellipse cx="506.519" cy="131.41" rx="21.1902" ry="21.1906" fill="#B6E5FF"/>
<path d="M147.434 449.297C147.887 448.602 148.939 448.729 149.215 449.51L152.549 458.962C152.658 459.273 152.914 459.509 153.231 459.595L162.908 462.207C163.708 462.423 163.913 463.463 163.255 463.967L155.296 470.059C155.035 470.259 154.888 470.574 154.905 470.903L155.411 480.913C155.453 481.741 154.527 482.258 153.845 481.787L145.592 476.1C145.321 475.913 144.975 475.872 144.668 475.989L135.304 479.564C134.53 479.859 133.753 479.139 133.989 478.344L136.848 468.738C136.941 468.422 136.874 468.081 136.667 467.825L130.374 460.024C129.854 459.379 130.299 458.417 131.128 458.396L141.147 458.146C141.476 458.138 141.78 457.968 141.96 457.693L147.434 449.297Z" fill="#B6E5FF"/>
<path d="M495.973 563.74C496.086 562.919 497.091 562.583 497.674 563.172L504.816 570.376C505.048 570.61 505.38 570.715 505.704 570.656L515.687 568.857C516.503 568.71 517.133 569.563 516.753 570.299L512.108 579.318C511.958 579.611 511.961 579.959 512.116 580.249L516.912 589.188C517.304 589.918 516.688 590.781 515.87 590.648L505.858 589.017C505.533 588.964 505.203 589.074 504.975 589.312L497.956 596.635C497.382 597.234 496.372 596.915 496.246 596.096L494.702 586.069C494.652 585.744 494.445 585.464 494.149 585.321L485.015 580.908C484.269 580.547 484.26 579.488 485 579.114L494.059 574.549C494.352 574.4 494.555 574.117 494.599 573.791L495.973 563.74Z" fill="#06A5FF"/>
<path d="M272.709 608.457L271.758 605.906C272.017 605.81 272.149 605.522 272.053 605.263L271.403 603.519C271.366 603.42 271.362 603.328 271.379 603.246C271.426 603.018 271.309 602.794 271.11 602.696C271.132 602.67 271.155 602.646 271.18 602.622C271.289 602.815 271.519 602.918 271.744 602.858C271.825 602.837 271.917 602.835 272.018 602.866L273.798 603.411C274.062 603.492 274.341 603.344 274.422 603.08L277.025 603.878C276.944 604.142 277.093 604.421 277.357 604.502L279.136 605.047C279.253 605.083 279.373 605.104 279.493 605.111C279.623 605.118 279.744 605.075 279.837 604.999C279.952 605.036 280.081 605.032 280.199 604.978C280.308 604.928 280.412 604.865 280.508 604.788L281.966 603.632C282.182 603.46 282.219 603.145 282.047 602.929L284.18 601.237C284.351 601.453 284.666 601.49 284.882 601.318L286.34 600.161C286.423 600.096 286.509 600.064 286.593 600.054C286.824 600.028 287 599.848 287.032 599.628C287.063 599.641 287.094 599.656 287.124 599.672C286.974 599.836 286.947 600.086 287.074 600.282C287.119 600.352 287.149 600.439 287.151 600.544L287.182 602.405C287.187 602.682 287.414 602.902 287.691 602.897L287.736 605.619C287.46 605.624 287.24 605.851 287.245 606.127L287.276 607.988C287.278 608.111 287.295 608.231 287.326 608.347C287.359 608.473 287.438 608.575 287.539 608.64C287.539 608.761 287.583 608.882 287.671 608.978C287.752 609.066 287.844 609.145 287.946 609.213L289.497 610.242C289.727 610.395 290.037 610.332 290.19 610.102L292.458 611.608C292.306 611.838 292.368 612.148 292.599 612.301L294.149 613.33C294.237 613.388 294.294 613.461 294.329 613.537C294.425 613.749 294.651 613.861 294.87 613.823C294.867 613.857 294.863 613.891 294.857 613.925C294.655 613.832 294.408 613.884 294.261 614.065C294.209 614.13 294.135 614.185 294.035 614.22L292.275 614.824C292.014 614.914 291.875 615.199 291.965 615.46L289.39 616.344C289.3 616.083 289.016 615.944 288.755 616.034L286.994 616.639C286.879 616.679 286.769 616.732 286.669 616.797C286.559 616.868 286.486 616.974 286.456 617.091C286.341 617.128 286.239 617.207 286.175 617.32C286.117 617.425 286.07 617.537 286.037 617.655L285.537 619.448C285.463 619.714 285.619 619.989 285.885 620.064L285.154 622.686C284.888 622.612 284.612 622.768 284.538 623.034L284.038 624.827C284.01 624.928 283.959 625.005 283.897 625.061C283.725 625.218 283.688 625.468 283.792 625.664C283.759 625.672 283.725 625.679 283.691 625.683C283.717 625.462 283.591 625.244 283.374 625.16C283.296 625.13 283.22 625.077 283.157 624.993L282.038 623.506C281.872 623.285 281.558 623.241 281.338 623.407L279.701 621.232C279.921 621.065 279.966 620.752 279.8 620.531L278.68 619.044C278.607 618.946 278.522 618.859 278.429 618.783C278.328 618.701 278.205 618.665 278.084 618.672C278.013 618.574 277.907 618.502 277.779 618.476C277.662 618.452 277.541 618.442 277.418 618.447L275.559 618.526C275.283 618.538 275.069 618.771 275.08 619.047L272.36 619.162C272.349 618.886 272.116 618.672 271.84 618.684L269.98 618.763C269.875 618.767 269.786 618.742 269.713 618.701C269.511 618.586 269.262 618.628 269.108 618.788C269.09 618.759 269.073 618.728 269.058 618.698C269.276 618.653 269.445 618.467 269.458 618.234C269.462 618.15 269.489 618.062 269.55 617.976L270.618 616.452C270.777 616.226 270.722 615.914 270.496 615.756L272.059 613.527C272.285 613.685 272.597 613.63 272.755 613.404L273.824 611.88C273.894 611.78 273.951 611.673 273.994 611.561C274.041 611.439 274.038 611.311 273.994 611.198C274.065 611.101 274.101 610.977 274.086 610.848C274.072 610.729 274.044 610.61 274.001 610.496L273.352 608.751C273.255 608.493 272.967 608.361 272.709 608.457Z" fill="#F1F5F9" stroke="#06A5FF" stroke-linecap="round" stroke-dasharray="5 5"/>
<path d="M355.853 560.018C469.103 560.018 560.911 468.209 560.911 354.957C560.911 241.704 469.103 149.895 355.853 149.895C242.602 149.895 150.795 241.704 150.795 354.957C150.795 468.209 242.602 560.018 355.853 560.018Z" fill="#B6E5FF"/>
<path d="M636.546 299.647C636.495 323.468 627.009 346.3 610.165 363.144C593.321 379.989 570.49 389.474 546.669 389.526H297.958C292.458 389.526 287.182 391.711 283.292 395.6C279.403 399.49 277.218 404.766 277.218 410.267C277.218 415.768 279.403 421.043 283.292 424.933C287.182 428.823 292.458 431.008 297.958 431.008H546.337C535.983 456.915 520.457 480.44 500.707 500.146H297.958C274.122 500.146 251.261 490.676 234.406 473.821C217.551 456.965 208.081 434.104 208.081 410.267C208.081 386.429 217.551 363.568 234.406 346.713C251.261 329.857 274.122 320.388 297.958 320.388H546.669C552.17 320.388 557.445 318.203 561.335 314.313C565.225 310.423 567.41 305.148 567.41 299.647C567.41 294.146 565.225 288.87 561.335 284.981C557.445 281.091 552.17 278.906 546.669 278.906H165.369C175.72 252.997 191.246 229.471 210.999 209.768H546.669C570.497 209.797 593.34 219.276 610.189 236.125C627.038 252.974 636.517 275.818 636.546 299.647Z" fill="#2C3D5B"/>
<path d="M522.167 468.342H493.904C493.17 468.342 492.467 468.051 491.948 467.532C491.43 467.014 491.138 466.31 491.138 465.577C491.138 464.843 491.43 464.14 491.948 463.621C492.467 463.103 493.17 462.811 493.904 462.811H522.167C522.9 462.811 523.603 463.103 524.122 463.621C524.641 464.14 524.932 464.843 524.932 465.577C524.932 466.31 524.641 467.014 524.122 467.532C523.603 468.051 522.9 468.342 522.167 468.342ZM465.641 468.342H437.433C436.7 468.342 435.996 468.051 435.478 467.532C434.959 467.014 434.668 466.31 434.668 465.577C434.668 464.843 434.959 464.14 435.478 463.621C435.996 463.103 436.7 462.811 437.433 462.811H465.641C466.374 462.811 467.078 463.103 467.596 463.621C468.115 464.14 468.406 464.843 468.406 465.577C468.406 466.31 468.115 467.014 467.596 467.532C467.078 468.051 466.374 468.342 465.641 468.342ZM409.129 468.342H380.866C380.133 468.342 379.429 468.051 378.911 467.532C378.392 467.014 378.101 466.31 378.101 465.577C378.101 464.843 378.392 464.14 378.911 463.621C379.429 463.103 380.133 462.811 380.866 462.811H409.129C409.862 462.811 410.566 463.103 411.084 463.621C411.603 464.14 411.894 464.843 411.894 465.577C411.894 466.31 411.603 467.014 411.084 467.532C410.566 468.051 409.862 468.342 409.129 468.342ZM352.617 468.342H324.354C323.621 468.342 322.917 468.051 322.399 467.532C321.88 467.014 321.589 466.31 321.589 465.577C321.589 464.843 321.88 464.14 322.399 463.621C322.917 463.103 323.621 462.811 324.354 462.811H352.617C353.35 462.811 354.054 463.103 354.573 463.621C355.091 464.14 355.382 464.843 355.382 465.577C355.382 466.31 355.091 467.014 354.573 467.532C354.054 468.051 353.35 468.342 352.617 468.342ZM296.105 468.342H296.008C286.078 468.028 276.395 465.171 267.884 460.046C267.56 459.865 267.276 459.62 267.048 459.327C266.821 459.033 266.655 458.697 266.56 458.338C266.465 457.98 266.444 457.605 266.497 457.238C266.55 456.871 266.676 456.518 266.868 456.2C267.06 455.883 267.314 455.607 267.615 455.39C267.916 455.173 268.258 455.018 268.62 454.936C268.981 454.853 269.356 454.845 269.722 454.91C270.087 454.975 270.435 455.114 270.746 455.317C278.439 459.974 287.2 462.574 296.188 462.867C296.551 462.872 296.91 462.949 297.243 463.093C297.577 463.237 297.878 463.445 298.131 463.706C298.384 463.966 298.583 464.274 298.717 464.612C298.851 464.95 298.918 465.31 298.912 465.674C298.907 466.037 298.83 466.395 298.686 466.729C298.542 467.062 298.333 467.364 298.073 467.617C297.812 467.87 297.504 468.069 297.167 468.203C296.829 468.337 296.468 468.403 296.105 468.398V468.342ZM249.839 440.355C249.352 440.357 248.873 440.23 248.45 439.988C248.028 439.745 247.677 439.395 247.433 438.973C242.526 430.328 239.926 420.566 239.884 410.626C239.884 409.893 240.175 409.189 240.694 408.671C241.212 408.152 241.916 407.861 242.649 407.861C243.382 407.861 244.086 408.152 244.605 408.671C245.123 409.189 245.414 409.893 245.414 410.626C245.458 419.618 247.804 428.449 252.231 436.276C252.411 436.592 252.527 436.94 252.573 437.301C252.618 437.662 252.592 438.028 252.496 438.379C252.399 438.729 252.235 439.058 252.011 439.345C251.788 439.632 251.51 439.872 251.194 440.051C250.772 440.254 250.307 440.349 249.839 440.328V440.355ZM249.549 386.276C249.061 386.28 248.581 386.156 248.157 385.915C247.734 385.674 247.381 385.325 247.135 384.904C246.89 384.483 246.76 384.004 246.758 383.517C246.757 383.029 246.885 382.55 247.129 382.128C251.962 373.447 258.923 366.138 267.358 360.889C267.982 360.502 268.733 360.378 269.448 360.546C270.162 360.713 270.781 361.157 271.168 361.781C271.555 362.404 271.678 363.156 271.511 363.87C271.343 364.584 270.899 365.203 270.276 365.59C262.639 370.343 256.339 376.962 251.969 384.824C251.729 385.256 251.378 385.616 250.953 385.866C250.527 386.117 250.043 386.249 249.549 386.248V386.276ZM295.524 357.722C294.791 357.739 294.081 357.463 293.551 356.956C293.02 356.449 292.713 355.752 292.697 355.019C292.68 354.286 292.956 353.576 293.463 353.045C293.97 352.515 294.666 352.208 295.4 352.191C296.243 352.191 297.101 352.191 297.958 352.191H323.773C324.507 352.191 325.21 352.483 325.729 353.001C326.248 353.52 326.539 354.223 326.539 354.957C326.539 355.69 326.248 356.394 325.729 356.912C325.21 357.431 324.507 357.722 323.773 357.722H297.958C297.184 357.722 296.409 357.722 295.649 357.722H295.524ZM546.668 357.722H521.586C520.852 357.722 520.149 357.431 519.63 356.912C519.112 356.394 518.82 355.69 518.82 354.957C518.82 354.223 519.112 353.52 519.63 353.001C520.149 352.483 520.852 352.191 521.586 352.191H546.668C547.692 352.191 548.715 352.191 549.724 352.108C550.087 352.088 550.451 352.14 550.794 352.261C551.137 352.381 551.453 352.568 551.724 352.811C551.995 353.053 552.216 353.347 552.373 353.675C552.531 354.003 552.622 354.359 552.642 354.722C552.662 355.085 552.61 355.448 552.49 355.792C552.369 356.135 552.182 356.451 551.939 356.722C551.697 356.993 551.403 357.213 551.075 357.371C550.747 357.528 550.392 357.619 550.028 357.639C548.867 357.722 547.733 357.722 546.668 357.722ZM493.365 357.722H465.088C464.354 357.722 463.651 357.431 463.132 356.912C462.614 356.394 462.322 355.69 462.322 354.957C462.322 354.223 462.614 353.52 463.132 353.001C463.651 352.483 464.354 352.191 465.088 352.191H493.351C494.084 352.191 494.788 352.483 495.306 353.001C495.825 353.52 496.116 354.223 496.116 354.957C496.116 355.69 495.825 356.394 495.306 356.912C494.788 357.431 494.084 357.722 493.351 357.722H493.365ZM436.853 357.722H408.548C407.815 357.722 407.111 357.431 406.593 356.912C406.074 356.394 405.783 355.69 405.783 354.957C405.783 354.223 406.074 353.52 406.593 353.001C407.111 352.483 407.815 352.191 408.548 352.191H436.811C437.544 352.191 438.248 352.483 438.767 353.001C439.285 353.52 439.577 354.223 439.577 354.957C439.577 355.69 439.285 356.394 438.767 356.912C438.248 357.431 437.544 357.722 436.811 357.722H436.853ZM380.341 357.722H352.036C351.303 357.722 350.599 357.431 350.081 356.912C349.562 356.394 349.271 355.69 349.271 354.957C349.271 354.223 349.562 353.52 350.081 353.001C350.599 352.483 351.303 352.191 352.036 352.191H380.299C381.033 352.191 381.736 352.483 382.255 353.001C382.773 353.52 383.065 354.223 383.065 354.957C383.065 355.69 382.773 356.394 382.255 356.912C381.736 357.431 381.033 357.722 380.299 357.722H380.341ZM576.466 349.025C575.866 349.028 575.281 348.836 574.799 348.477C574.318 348.118 573.966 347.612 573.798 347.036C573.629 346.46 573.652 345.844 573.864 345.283C574.076 344.721 574.465 344.243 574.973 343.922C582.527 339.066 588.714 332.359 592.948 324.439C593.12 324.119 593.353 323.835 593.634 323.605C593.915 323.375 594.239 323.202 594.587 323.096C594.935 322.991 595.3 322.955 595.662 322.991C596.024 323.027 596.375 323.134 596.695 323.306C597.016 323.477 597.299 323.71 597.53 323.991C597.76 324.273 597.933 324.596 598.038 324.944C598.144 325.292 598.179 325.658 598.144 326.019C598.108 326.381 598.001 326.732 597.829 327.053C593.126 335.811 586.262 343.222 577.89 348.582C577.456 348.871 576.946 349.025 576.425 349.025H576.466ZM601.977 301.348C601.244 301.348 600.541 301.056 600.022 300.538C599.503 300.019 599.212 299.315 599.212 298.582C599.045 289.593 596.569 280.798 592.022 273.043C591.721 272.415 591.668 271.697 591.873 271.032C592.078 270.367 592.526 269.803 593.128 269.454C593.731 269.105 594.442 268.996 595.121 269.148C595.801 269.301 596.397 269.704 596.792 270.277C601.81 278.861 604.547 288.586 604.743 298.527C604.743 299.26 604.452 299.964 603.933 300.482C603.414 301.001 602.711 301.292 601.977 301.292V301.348ZM574.641 254.68C574.156 254.674 573.68 254.546 573.258 254.306C565.503 249.759 556.708 247.283 547.719 247.116C546.986 247.116 546.283 246.825 545.764 246.306C545.245 245.787 544.954 245.084 544.954 244.351C544.954 243.617 545.245 242.914 545.764 242.395C546.283 241.876 546.986 241.585 547.719 241.585C557.662 241.767 567.39 244.505 575.968 249.536C576.487 249.844 576.892 250.313 577.119 250.872C577.346 251.431 577.385 252.049 577.228 252.632C577.071 253.215 576.728 253.731 576.251 254.1C575.774 254.47 575.189 254.674 574.586 254.68H574.641ZM519.332 247.102H490.972C490.239 247.102 489.536 246.811 489.017 246.292C488.498 245.774 488.207 245.07 488.207 244.337C488.207 243.603 488.498 242.9 489.017 242.381C489.536 241.863 490.239 241.571 490.972 241.571H519.304C520.038 241.571 520.741 241.863 521.26 242.381C521.778 242.9 522.07 243.603 522.07 244.337C522.07 245.07 521.778 245.774 521.26 246.292C520.741 246.811 520.038 247.102 519.304 247.102H519.332ZM462.64 247.102H434.35C433.616 247.102 432.913 246.811 432.394 246.292C431.876 245.774 431.584 245.07 431.584 244.337C431.584 243.603 431.876 242.9 432.394 242.381C432.913 241.863 433.616 241.571 434.35 241.571H462.654C463.388 241.571 464.091 241.863 464.61 242.381C465.128 242.9 465.42 243.603 465.42 244.337C465.42 245.07 465.128 245.774 464.61 246.292C464.091 246.811 463.388 247.102 462.654 247.102H462.64ZM406.018 247.102H377.713C376.98 247.102 376.277 246.811 375.758 246.292C375.239 245.774 374.948 245.07 374.948 244.337C374.948 243.603 375.239 242.9 375.758 242.381C376.277 241.863 376.98 241.571 377.713 241.571H406.032C406.765 241.571 407.469 241.863 407.987 242.381C408.506 242.9 408.797 243.603 408.797 244.337C408.797 245.07 408.506 245.774 407.987 246.292C407.469 246.811 406.765 247.102 406.032 247.102H406.018ZM349.326 247.102H321.105C320.371 247.102 319.668 246.811 319.149 246.292C318.631 245.774 318.339 245.07 318.339 244.337C318.339 243.603 318.631 242.9 319.149 242.381C319.668 241.863 320.371 241.571 321.105 241.571H349.409C350.143 241.571 350.846 241.863 351.365 242.381C351.883 242.9 352.175 243.603 352.175 244.337C352.175 245.07 351.883 245.774 351.365 246.292C350.846 246.811 350.143 247.102 349.409 247.102H349.326ZM292.634 247.102H264.482C263.749 247.102 263.045 246.811 262.527 246.292C262.008 245.774 261.717 245.07 261.717 244.337C261.717 243.603 262.008 242.9 262.527 242.381C263.045 241.863 263.749 241.571 264.482 241.571H292.787C293.52 241.571 294.223 241.863 294.742 242.381C295.261 242.9 295.552 243.603 295.552 244.337C295.552 245.07 295.261 245.774 294.742 246.292C294.223 246.811 293.52 247.102 292.787 247.102H292.634ZM236.012 247.102H207.901C207.168 247.102 206.464 246.811 205.946 246.292C205.427 245.774 205.136 245.07 205.136 244.337C205.136 243.603 205.427 242.9 205.946 242.381C206.464 241.863 207.168 241.571 207.901 241.571H236.219C236.953 241.571 237.656 241.863 238.175 242.381C238.693 242.9 238.985 243.603 238.985 244.337C238.985 245.07 238.693 245.774 238.175 246.292C237.656 246.811 236.953 247.102 236.219 247.102H236.012Z" fill="#27B1FF"/>
<path fill-rule="evenodd" clip-rule="evenodd" d="M286.953 582.974V128.905C308.249 122.613 330.795 119.236 354.13 119.236C377.795 119.236 400.649 122.709 422.21 129.173V582.706C400.649 589.17 377.795 592.643 354.13 592.643C330.795 592.643 308.249 589.266 286.953 582.974Z" fill="#06A5FF"/>
<path d="M355.483 127.352L355.483 576.412" stroke="white" stroke-width="4" stroke-linecap="round" stroke-dasharray="20 20"/>
<path d="M302.282 127.352L302.282 576.412" stroke="white" stroke-width="2" stroke-linecap="round"/>
<path d="M405.077 127.352L405.077 576.412" stroke="white" stroke-width="2" stroke-linecap="round"/>
</svg>
