<svg width="120" height="121" viewBox="0 0 120 121" fill="none" xmlns="http://www.w3.org/2000/svg">
<rect width="120" height="120" rx="5" fill="#C2D2EE"/>
<g clip-path="url(#clip0_1950_8870)">
<path d="M79.0606 52.9104C79.5422 54.2767 78.2581 63.0368 74.4861 60.7865L75.3689 52.1067H75.4491C76.4122 50.4994 77.2148 50.419 77.9371 50.9816C78.4989 51.4638 78.9001 52.2675 79.0606 52.9104Z" fill="white"/>
<path d="M75.4492 51.2229L75.369 52.1069L74.4861 60.7866L72.4798 80.6375C72.3193 82.1645 71.1154 83.2897 69.5906 83.2897H64.695L50.0885 83.37H46.2363C44.7114 83.37 43.5076 82.2449 43.3471 80.7179L41.1802 60.6259L40.2974 53.875V53.4732L40.3776 44.9542C42.384 41.0965 42.705 35.5511 44.7917 31.5327C53.9408 33.2204 72.9613 28.9609 72.9613 28.9609L75.4492 51.2229Z" fill="white"/>
<path d="M63.5715 51.3828C64.5345 51.3828 65.4173 52.508 65.4173 53.8742C65.4173 55.2405 64.6148 56.3656 63.5715 56.3656C62.5281 56.3656 61.7256 55.2405 61.7256 53.8742C61.7256 52.508 62.6084 51.3828 63.5715 51.3828Z" fill="black"/>
<path d="M64.6148 83.3694V91.1651L57.3115 97.6749L50.0083 91.1651V83.3694L64.6148 83.2891V83.3694Z" fill="white"/>
<path d="M54.9841 86.9867C57.2313 88.3529 59.3179 88.9155 61.8861 89.3173C62.7689 89.4781 63.732 89.5584 64.6148 89.7192V83.3701L50.0083 83.4505V84.2542C51.7739 84.9775 53.379 85.9419 54.9841 86.9867Z" fill="#AACFFA"/>
<path d="M64.6148 94.3802L57.151 97.6753L50.0083 94.2998H49.6873L35.161 100.247C32.4324 101.453 30.6667 104.105 30.6667 107.078V120.5H84.0366V107.078C84.0366 104.105 82.1907 101.372 79.462 100.247L64.6148 94.3802Z" fill="#2C3D5B"/>
<path d="M51.6937 53.8742C51.6937 55.2405 50.8911 56.3656 49.8478 56.3656C48.8045 56.3656 48.002 55.2405 48.002 53.8742C48.002 52.508 48.8045 51.3828 49.8478 51.3828C50.8911 51.3828 51.6937 52.508 51.6937 53.8742Z" fill="black"/>
<path d="M40.3777 44.9537C39.6554 47.4451 40.3777 50.8206 40.2974 53.4727H40.1369C39.0936 51.785 38.3713 51.3832 37.7292 51.6243C36.3649 41.4175 31.3088 31.2912 35.8834 21.0844C36.8464 18.9145 38.2108 16.8249 39.8961 15.1372C41.2605 13.771 42.3841 13.8513 44.1497 13.5298C45.514 13.2084 46.2363 12.0832 47.5204 11.4403C51.2924 9.51145 56.7498 9.67219 60.8428 10.3151C64.2938 10.9581 67.3435 12.244 70.4734 13.6906C73.1219 14.9765 75.6098 16.182 77.8569 18.1108C80.2646 20.12 82.913 21.7274 84.9997 24.1384C87.0863 26.5495 88.6112 29.3623 89.4137 32.4967C86.685 30.7286 83.6353 29.6838 80.4251 29.4427C81.7894 32.4967 83.1538 35.5507 84.5181 38.6046C83.3143 37.2384 81.7092 36.274 79.8633 35.8721C81.0672 36.1132 79.8633 43.9089 79.8633 45.0341C79.7831 46.9629 79.5423 49.7758 77.9372 51.142C76.8939 50.1776 76.1716 51.5439 75.369 52.0261C75.4493 52.2672 75.2085 45.5163 73.6034 41.2568C71.9983 36.9973 63.4912 32.6574 58.3549 32.8985C58.3549 34.0237 59.4785 35.5507 60.0402 36.4347C60.4415 37.0777 62.2071 39.9709 63.0097 40.1316C59.4785 39.2476 56.2682 38.4439 52.9778 36.8366C51.5332 36.1132 50.1688 35.3899 48.8045 34.5863C47.8414 34.0237 46.8784 32.9789 45.7548 32.6574C44.9522 34.104 44.3904 35.8721 43.9892 37.4795C43.6681 38.8458 43.1064 40.212 42.4643 41.4979C41.9025 42.7034 40.6987 43.8286 40.3777 45.0341C40.3777 44.9537 40.3777 44.9537 40.3777 44.9537Z" fill="#2C3D5B"/>
<path d="M40.2974 53.8749L41.0197 60.7062C37.1675 62.9565 36.3649 54.2768 36.7662 52.9105C36.9267 52.3479 37.2477 51.7854 37.7292 51.6246C38.291 51.3835 39.0936 51.7854 40.1369 53.4731H40.2974V53.8749Z" fill="white"/>
<path d="M57.4721 114.633L71.597 97.1928L64.6148 94.3799L57.2313 97.7553L50.0083 94.3799H49.7676L43.0261 97.1124L57.4721 114.633Z" fill="#315D93"/>
<path d="M57.3115 97.6748L54.3421 98.3178L50.0083 99.1215V94.3798V91.165L57.3115 97.6748Z" fill="#55A0F5"/>
<path d="M64.6148 94.3798V99.1215L60.602 98.3178L57.3115 97.6748L64.6148 91.165V94.3798Z" fill="#55A0F5"/>
<path d="M44.7918 26.0674C43.4275 31.6931 41.5013 37.1582 39.0134 42.3017" stroke="#ABB9CA" stroke-width="0.5" stroke-miterlimit="10" stroke-linecap="round"/>
<path d="M46.5574 25.9873C48.8045 29.4431 51.5332 32.5775 54.6632 35.2296" stroke="#ABB9CA" stroke-width="0.5" stroke-miterlimit="10" stroke-linecap="round"/>
<path d="M48.8848 24.2996C54.9842 19.4775 76.1716 27.7554 74.727 35.953" stroke="#ABB9CA" stroke-width="0.5" stroke-miterlimit="10" stroke-linecap="round"/>
<path d="M45.7549 22.37C58.355 13.9313 72.8812 21.0841 79.1411 31.6927" stroke="#ABB9CA" stroke-width="0.5" stroke-miterlimit="10" stroke-linecap="round"/>
<path d="M45.7549 20.2811C48.0823 14.9768 54.1014 13.691 63.5716 14.8965C73.0417 16.102 80.8265 22.21 84.0367 27.1928" stroke="#ABB9CA" stroke-width="0.5" stroke-miterlimit="10" stroke-linecap="round"/>
<path d="M42.5444 23.4951C41.8221 27.4331 40.4578 31.2908 38.4514 34.7466" stroke="#ABB9CA" stroke-width="0.5" stroke-miterlimit="10" stroke-linecap="round"/>
<path d="M42.063 18.0303C40.7789 22.4505 38.7725 26.6296 36.2043 30.4069" stroke="#ABB9CA" stroke-width="0.5" stroke-miterlimit="10" stroke-linecap="round"/>
</g>
<defs>
<clipPath id="clip0_1950_8870">
<rect width="58.6667" height="110.667" fill="white" transform="translate(30.6667 9.83301)"/>
</clipPath>
</defs>
</svg>
